<svg width="546" height="502" viewBox="0 0 546 502" fill="none" xmlns="http://www.w3.org/2000/svg">
<path d="M96.5815 443.98C195.09 497.429 354.803 497.43 453.309 443.981C551.818 390.53 551.818 303.872 453.309 250.424C354.801 196.974 195.088 196.974 96.5793 250.423C-1.92783 303.871 -1.92783 390.531 96.5815 443.98Z" fill="#F5F5F5"/>
<path d="M427.123 432.779C453.774 432.779 475.379 421.31 475.379 407.163C475.379 393.016 453.774 381.547 427.123 381.547C400.471 381.547 378.866 393.016 378.866 407.163C378.866 421.31 400.471 432.779 427.123 432.779Z" fill="#E0E0E0"/>
<path d="M396.854 77.447L405.227 81.8927C405.186 81.5493 405.156 81.207 405.156 80.8736V78.6427C405.156 74.6739 408.188 73.0645 411.926 75.0494C413.439 75.8526 414.833 77.1267 415.961 78.6166C416.573 73.6258 420.832 71.7663 426.005 74.5123C431.598 77.4811 436.133 84.7019 436.133 90.6405V93.9778C436.133 95.516 435.824 96.8111 435.276 97.8432L442.232 101.535C444.306 102.636 445.987 105.313 445.987 107.515C445.987 109.717 444.307 110.609 442.232 109.508L396.854 85.4197C394.78 84.3184 393.099 81.6417 393.099 79.4399C393.1 77.2392 394.78 76.3466 396.854 77.447Z" fill="#EBEBEB"/>
<path d="M361.017 99.8766L367.337 103.231C367.305 102.972 367.283 102.714 367.283 102.462V100.778C367.283 97.7822 369.571 96.5684 372.393 98.0664C373.535 98.6728 374.587 99.6346 375.437 100.759C375.899 96.9921 379.114 95.5895 383.018 97.6618C387.24 99.9027 390.662 105.352 390.662 109.834V112.352C390.662 113.513 390.428 114.491 390.014 115.27L395.264 118.056C396.828 118.886 398.097 120.907 398.097 122.569C398.097 124.231 396.828 124.904 395.264 124.073L361.016 105.894C359.45 105.063 358.183 103.042 358.183 101.381C358.184 99.7199 359.453 99.0463 361.017 99.8766Z" fill="#EBEBEB"/>
<path d="M80.6729 289.781C80.0548 290.089 68.6379 293.069 64.4075 287.933C60.1782 282.796 67.1954 274.789 63.2282 271.838C59.2609 268.888 48.1422 271.856 45.4657 265.64C42.7892 259.424 50.7226 256.76 46.264 250.504C43.4553 246.564 36.5604 244.357 35.9533 240.714C34.9377 234.626 45.9112 231.829 55.2959 237.576C64.6805 243.324 70.3557 240.69 73.3335 240.305C76.3114 239.919 82.7302 240.77 82.5249 250.38C82.3196 259.991 80.6729 289.781 80.6729 289.781Z" fill="#3D5EE1"/>
<path d="M81.4273 276.109C81.1281 276.109 80.8649 275.91 80.8147 275.63C77.5463 257.392 54.4877 242.548 42.4975 239.363C42.1677 239.275 41.9766 238.958 42.0727 238.655C42.1677 238.353 42.5128 238.178 42.8426 238.264C55.1035 241.521 78.6886 256.732 82.0421 275.444C82.0978 275.756 81.8674 276.051 81.5289 276.102C81.495 276.107 81.4612 276.109 81.4273 276.109Z" fill="white"/>
<path d="M54.2414 260.851C54.0285 260.851 53.8221 260.75 53.7053 260.572C53.5305 260.301 53.6266 259.949 53.9226 259.788C54.296 259.584 63.1674 254.816 71.9089 257.046C72.2398 257.13 72.4341 257.445 72.3413 257.749C72.2496 258.054 71.91 258.235 71.5758 258.147C63.352 256.049 54.6433 260.723 54.557 260.77C54.4576 260.825 54.3484 260.851 54.2414 260.851Z" fill="white"/>
<path d="M85.0977 296.777C85.0977 299.377 87.215 302.61 89.8271 303.996L222.315 374.323C224.926 375.71 229.161 375.71 231.772 374.323L413.051 278.096C415.662 276.709 417.78 273.477 417.78 270.876C417.78 268.275 415.664 265.043 413.051 263.656L280.563 193.329C277.952 191.942 273.718 191.942 271.107 193.329L89.826 289.558C87.214 290.945 85.0977 294.177 85.0977 296.777Z" fill="#485057"/>
<path d="M227.045 365.957V375.364C225.33 375.364 223.616 375.023 222.316 374.33L89.8241 304C87.2142 302.615 85.0957 299.382 85.0957 296.781C85.0957 294.342 86.963 291.35 89.3436 289.844C87.2251 291.239 87.3889 293.287 89.8241 294.583L222.316 364.913C223.616 365.606 225.331 365.957 227.045 365.957Z" fill="#343C44"/>
<path d="M80.6624 289.716C78.213 288.416 76.2267 285.113 76.2267 282.341L76.2256 136.977C76.2256 134.205 78.343 130.834 80.9539 129.447L262.235 33.2199C264.846 31.8334 268.949 31.7641 271.399 33.0643C273.849 34.3645 275.836 37.6666 275.836 40.4387V185.803C275.836 188.575 273.718 191.946 271.107 193.333L89.8264 289.56C87.2144 290.947 83.1117 291.016 80.6624 289.716Z" fill="#455A64"/>
<path d="M89.267 289.821C86.6571 290.946 82.9443 290.926 80.662 289.711C78.216 288.416 76.2285 285.113 76.2285 282.342V136.972C76.2285 135.587 76.7527 134.051 77.6154 132.695L86.4824 137.394V137.404C85.6306 138.77 85.0956 140.296 85.0956 141.681V287.05C85.0956 289.621 86.9203 290.775 89.267 289.821Z" fill="#343C44"/>
<path d="M85.0977 141.687V287.051C85.0977 289.823 87.215 290.948 89.826 289.561L271.107 193.334C273.718 191.947 275.835 188.576 275.835 185.804V40.4397C275.835 37.6677 273.718 36.5432 271.107 37.9297L89.826 134.157C87.214 135.544 85.0977 138.915 85.0977 141.687Z" fill="#485057"/>
<path d="M89.8262 294.576L222.315 364.904C224.926 366.29 229.161 366.29 231.772 364.904L413.053 268.676C415.664 267.29 415.664 265.043 413.053 263.656L280.565 193.329C277.954 191.942 273.719 191.942 271.108 193.329L89.8262 289.556C87.2142 290.943 87.2142 293.19 89.8262 294.576Z" fill="#455A64"/>
<path d="M92.3692 142.225L267.147 49.4733C268.714 48.642 269.984 49.3157 269.984 50.9793V176.815C269.984 178.478 268.714 180.501 267.147 181.333L92.3692 274.082C90.8022 274.913 89.5322 274.24 89.5322 272.576V146.742C89.5322 145.079 90.8022 143.056 92.3692 142.225Z" fill="white"/>
<path opacity="0.6" d="M92.3692 142.225L267.147 49.4733C268.714 48.642 269.984 49.3157 269.984 50.9793V176.815C269.984 178.478 268.714 180.501 267.147 181.333L92.3692 274.082C90.8022 274.913 89.5322 274.24 89.5322 272.576V146.742C89.5322 145.079 90.8022 143.056 92.3692 142.225Z" fill="#3D5EE1"/>
<path d="M179.386 134.269C184.039 131.798 187.812 133.801 187.812 138.741C187.812 143.682 184.039 149.689 179.386 152.159C174.733 154.628 170.96 152.626 170.96 147.686C170.96 142.746 174.733 136.739 179.386 134.269Z" fill="#F0F0F0"/>
<path d="M195.99 160.689C195.99 152.573 189.792 148.969 182.148 153.028L177.369 155.564C169.725 159.622 163.526 169.491 163.526 177.607V179.792L195.99 162.572V160.689Z" fill="#F0F0F0"/>
<path d="M212.406 164.697C212.097 164.043 211.313 163.877 210.426 164.345L153.732 194.421C153.161 194.723 152.628 195.249 152.252 195.861C151.869 196.465 151.638 197.142 151.638 197.761V203.895C151.638 204.939 152.315 205.45 153.231 205.212C153.326 205.187 153.379 205.169 153.379 205.169C153.505 205.126 153.622 205.068 153.732 205.01L210.426 174.934C211.584 174.323 212.524 172.825 212.524 171.594V165.46C212.523 165.217 212.493 164.909 212.406 164.697Z" fill="#F0F0F0"/>
<path d="M158.856 195.18C159.956 194.596 160.848 195.069 160.848 196.237C160.848 197.404 159.957 198.824 158.856 199.408C157.755 199.993 156.864 199.519 156.864 198.351C156.864 197.183 157.755 195.763 158.856 195.18Z" fill="#3D5EE1"/>
<path d="M165.444 191.688C166.544 191.103 167.436 191.577 167.436 192.745C167.436 193.913 166.544 195.332 165.444 195.917C164.344 196.5 163.452 196.027 163.452 194.859C163.452 193.692 164.343 192.271 165.444 191.688Z" fill="#3D5EE1"/>
<path d="M172.032 188.187C173.131 187.604 174.024 188.077 174.024 189.245C174.024 190.412 173.133 191.832 172.032 192.416C170.931 193.001 170.04 192.527 170.04 191.359C170.04 190.191 170.931 188.772 172.032 188.187Z" fill="#3D5EE1"/>
<path d="M178.62 184.688C179.719 184.103 180.612 184.577 180.612 185.745C180.612 186.913 179.72 188.332 178.62 188.917C177.519 189.501 176.628 189.027 176.628 187.859C176.628 186.692 177.519 185.272 178.62 184.688Z" fill="#3D5EE1"/>
<path d="M185.209 181.195C186.308 180.612 187.2 181.085 187.2 182.252C187.2 183.42 186.308 184.84 185.209 185.424C184.109 186.007 183.217 185.534 183.217 184.367C183.217 183.199 184.108 181.779 185.209 181.195Z" fill="#3D5EE1"/>
<path d="M191.796 177.695C192.895 177.112 193.787 177.585 193.787 178.752C193.787 179.92 192.896 181.34 191.796 181.924C190.695 182.508 189.804 182.034 189.804 180.867C189.804 179.699 190.696 178.279 191.796 177.695Z" fill="#3D5EE1"/>
<path d="M198.383 174.203C199.483 173.62 200.375 174.093 200.375 175.26C200.375 176.428 199.484 177.847 198.383 178.432C197.284 179.016 196.392 178.542 196.392 177.375C196.392 176.207 197.284 174.787 198.383 174.203Z" fill="#3D5EE1"/>
<path d="M204.971 170.703C206.071 170.12 206.963 170.593 206.963 171.76C206.963 172.928 206.072 174.347 204.971 174.932C203.872 175.515 202.979 175.042 202.979 173.875C202.981 172.707 203.872 171.286 204.971 170.703Z" fill="#3D5EE1"/>
<path d="M105.205 290.815L273.472 201.496C274.779 200.803 276.895 200.803 278.201 201.496L286.807 206.064C288.113 206.757 288.113 207.882 286.807 208.574L118.514 297.879C117.208 298.572 115.091 298.572 113.786 297.879L105.205 293.325C103.899 292.631 103.899 291.508 105.205 290.815Z" fill="#485057"/>
<path d="M127.386 302.59L295.651 213.27C296.957 212.577 299.074 212.577 300.38 213.27L353.317 241.371C354.623 242.063 354.623 243.188 353.317 243.881L185.244 333.078C183.938 333.771 181.819 333.774 180.511 333.085L127.392 305.094C126.082 304.404 126.08 303.283 127.386 302.59Z" fill="#343C44"/>
<path d="M278.22 253.453L283.488 250.657C283.712 250.537 283.699 250.338 283.459 250.21L277.366 246.976C277.126 246.849 276.749 246.842 276.526 246.96L271.257 249.757C271.033 249.876 271.046 250.076 271.287 250.203L277.379 253.437C277.62 253.565 277.996 253.572 278.22 253.453ZM267.823 242.341L262.554 245.137C262.331 245.256 262.345 245.456 262.585 245.584L268.677 248.818C268.918 248.945 269.294 248.952 269.518 248.834L274.786 246.037C275.01 245.918 274.997 245.718 274.756 245.591L268.664 242.357C268.424 242.229 268.047 242.222 267.823 242.341ZM250.802 251.377L241.886 256.11C241.662 256.228 241.675 256.428 241.916 256.555L248.008 259.789C248.248 259.917 248.625 259.924 248.849 259.805L257.765 255.073C257.989 254.954 257.976 254.754 257.735 254.627L251.644 251.393C251.403 251.264 251.026 251.257 250.802 251.377ZM260.124 246.428L254.855 249.225C254.632 249.344 254.644 249.543 254.885 249.671L260.978 252.905C261.218 253.032 261.594 253.039 261.817 252.921L267.086 250.125C267.31 250.005 267.297 249.807 267.057 249.679L260.965 246.445C260.724 246.317 260.348 246.31 260.124 246.428ZM239.455 257.4L234.188 260.196C233.964 260.315 233.977 260.514 234.217 260.642L240.309 263.876C240.55 264.003 240.925 264.01 241.149 263.892L246.418 261.095C246.642 260.976 246.629 260.776 246.387 260.649L240.296 257.415C240.055 257.288 239.678 257.281 239.455 257.4ZM231.755 261.487L226.487 264.283C226.263 264.402 226.276 264.601 226.516 264.729L232.609 267.963C232.849 268.09 233.226 268.097 233.449 267.979L238.718 265.183C238.942 265.063 238.929 264.865 238.689 264.737L232.595 261.503C232.355 261.376 231.98 261.369 231.755 261.487ZM255.717 274.637L260.986 271.84C261.209 271.722 261.197 271.522 260.956 271.395L254.864 268.161C254.623 268.033 254.247 268.026 254.023 268.145L248.754 270.941C248.53 271.06 248.543 271.259 248.783 271.388L254.876 274.621C255.117 274.749 255.494 274.756 255.717 274.637ZM248.018 278.725L253.286 275.929C253.509 275.809 253.496 275.61 253.255 275.482L247.164 272.249C246.924 272.121 246.547 272.114 246.323 272.233L241.055 275.03C240.831 275.148 240.844 275.349 241.085 275.476L247.177 278.71C247.418 278.836 247.794 278.843 248.018 278.725ZM240.318 282.812L245.587 280.015C245.811 279.896 245.798 279.697 245.557 279.569L239.465 276.335C239.225 276.208 238.848 276.201 238.624 276.319L233.357 279.115C233.133 279.235 233.146 279.434 233.387 279.561L239.478 282.795C239.717 282.923 240.094 282.931 240.318 282.812ZM232.617 286.899L237.886 284.103C238.11 283.985 238.097 283.785 237.856 283.657L231.764 280.424C231.524 280.296 231.147 280.289 230.924 280.407L225.656 283.204C225.432 283.322 225.445 283.522 225.685 283.649L231.778 286.882C232.018 287.011 232.393 287.019 232.617 286.899ZM270.521 257.54L275.788 254.743C276.012 254.625 275.999 254.425 275.759 254.297L269.667 251.064C269.426 250.936 269.051 250.929 268.827 251.047L263.558 253.844C263.334 253.963 263.347 254.163 263.587 254.29L269.68 257.524C269.92 257.653 270.297 257.659 270.521 257.54ZM263.418 270.55L275.17 264.311C275.394 264.192 275.38 263.993 275.14 263.866L260.345 256.012C260.105 255.885 259.728 255.878 259.505 255.996L253.425 259.223C253.201 259.343 253.215 259.541 253.455 259.67L261.288 263.827C261.528 263.955 261.541 264.155 261.317 264.273L256.455 266.854C256.231 266.973 256.244 267.173 256.484 267.3L262.576 270.534C262.818 270.662 263.194 270.669 263.418 270.55ZM224.055 265.574L218.786 268.371C218.562 268.49 218.575 268.69 218.817 268.817L224.909 272.051C225.149 272.179 225.525 272.186 225.75 272.067L231.019 269.271C231.242 269.152 231.229 268.953 230.988 268.824L224.897 265.59C224.656 265.463 224.279 265.456 224.055 265.574ZM216.355 269.662L211.086 272.458C210.862 272.577 210.876 272.777 211.116 272.905L217.207 276.138C217.447 276.266 217.824 276.273 218.048 276.155L223.316 273.357C223.539 273.239 223.526 273.038 223.286 272.912L217.194 269.678C216.955 269.55 216.579 269.543 216.355 269.662ZM177.878 315.495C178.118 315.623 178.493 315.63 178.718 315.511L183.987 312.714C184.211 312.596 184.198 312.395 183.958 312.267L177.866 309.034C177.625 308.906 177.249 308.899 177.025 309.017L171.757 311.814C171.533 311.933 171.546 312.132 171.786 312.26L177.878 315.495ZM154.754 302.361L149.486 305.157C149.262 305.276 149.275 305.475 149.515 305.603L155.607 308.837C155.848 308.964 156.224 308.972 156.448 308.853L161.717 306.057C161.941 305.938 161.928 305.738 161.686 305.611L155.594 302.378C155.355 302.249 154.979 302.241 154.754 302.361ZM167.148 311.951C167.388 312.079 167.764 312.086 167.988 311.967L173.257 309.17C173.481 309.052 173.467 308.852 173.227 308.724L167.136 305.49C166.895 305.363 166.52 305.356 166.295 305.474L161.027 308.27C160.803 308.39 160.816 308.589 161.056 308.716L167.148 311.951ZM191.473 317.979L196.742 315.183C196.966 315.064 196.953 314.865 196.712 314.737L190.62 311.503C190.38 311.376 190.003 311.369 189.779 311.488L184.511 314.284C184.289 314.403 184.301 314.603 184.542 314.73L190.634 317.963C190.873 318.091 191.249 318.099 191.473 317.979ZM182.932 322.05C183.173 322.178 183.549 322.185 183.772 322.066L189.041 319.269C189.265 319.151 189.252 318.951 189.012 318.824L182.919 315.59C182.679 315.462 182.303 315.455 182.078 315.574L176.81 318.371C176.586 318.489 176.599 318.689 176.84 318.816L182.932 322.05ZM162.455 298.274L157.186 301.07C156.962 301.189 156.976 301.388 157.217 301.516L163.308 304.749C163.548 304.877 163.925 304.884 164.149 304.765L169.417 301.968C169.641 301.85 169.627 301.65 169.387 301.523L163.295 298.289C163.055 298.161 162.679 298.154 162.455 298.274ZM200.955 277.836L195.686 280.632C195.463 280.752 195.475 280.951 195.716 281.078L201.809 284.312C202.049 284.44 202.425 284.447 202.65 284.328L207.918 281.531C208.142 281.412 208.129 281.213 207.889 281.085L201.797 277.851C201.554 277.725 201.179 277.718 200.955 277.836ZM170.155 294.186L164.886 296.982C164.662 297.101 164.675 297.301 164.915 297.428L171.008 300.662C171.248 300.79 171.625 300.798 171.849 300.678L177.116 297.882C177.34 297.763 177.327 297.564 177.086 297.436L170.995 294.202C170.755 294.074 170.379 294.067 170.155 294.186ZM208.654 273.749L203.387 276.546C203.163 276.665 203.176 276.864 203.417 276.992L209.509 280.226C209.75 280.353 210.125 280.361 210.35 280.242L215.619 277.446C215.843 277.326 215.83 277.127 215.59 277L209.497 273.766C209.255 273.637 208.878 273.63 208.654 273.749ZM193.255 281.924L187.986 284.721C187.762 284.839 187.775 285.039 188.016 285.166L194.108 288.399C194.348 288.527 194.725 288.535 194.949 288.415L200.217 285.619C200.44 285.501 200.427 285.301 200.187 285.173L194.095 281.94C193.856 281.812 193.479 281.805 193.255 281.924ZM185.555 286.011L180.288 288.808C180.064 288.926 180.077 289.126 180.317 289.254L186.409 292.488C186.65 292.615 187.026 292.622 187.25 292.504L192.519 289.708C192.742 289.588 192.729 289.388 192.488 289.261L186.397 286.027C186.155 285.899 185.778 285.892 185.555 286.011ZM177.856 290.099L172.587 292.895C172.363 293.015 172.376 293.214 172.616 293.342L178.709 296.576C178.949 296.703 179.326 296.71 179.549 296.592L184.818 293.795C185.042 293.676 185.029 293.476 184.788 293.348L178.695 290.115C178.455 289.987 178.08 289.98 177.856 290.099ZM217.218 295.074L222.487 292.277C222.711 292.158 222.698 291.957 222.457 291.831L216.365 288.597C216.125 288.47 215.748 288.463 215.524 288.581L210.255 291.377C210.031 291.497 210.045 291.695 210.286 291.824L216.378 295.058C216.617 295.186 216.994 295.193 217.218 295.074ZM284.844 233.306L279.577 236.103C279.353 236.221 279.367 236.421 279.606 236.549L285.698 239.783C285.939 239.91 286.315 239.917 286.539 239.799L291.808 237.003C292.032 236.883 292.018 236.684 291.779 236.556L285.686 233.322C285.445 233.194 285.068 233.187 284.844 233.306ZM275.523 238.254L270.254 241.051C270.03 241.169 270.043 241.369 270.284 241.496L276.376 244.73C276.616 244.858 276.993 244.865 277.217 244.746L282.486 241.95C282.71 241.831 282.696 241.631 282.456 241.503L276.364 238.27C276.124 238.142 275.747 238.135 275.523 238.254ZM292.544 229.219L287.276 232.015C287.052 232.133 287.066 232.333 287.306 232.461L293.398 235.695C293.638 235.823 294.015 235.83 294.238 235.711L299.507 232.915C299.73 232.796 299.717 232.596 299.477 232.468L293.386 229.235C293.145 229.107 292.769 229.1 292.544 229.219ZM252.688 267.006L257.957 264.21C258.181 264.09 258.168 263.892 257.927 263.763L251.835 260.529C251.595 260.402 251.218 260.395 250.995 260.513L245.726 263.31C245.502 263.429 245.515 263.629 245.755 263.756L251.847 266.99C252.089 267.117 252.464 267.125 252.688 267.006ZM301.085 225.147C300.844 225.02 300.468 225.013 300.244 225.131L294.976 227.927C294.752 228.047 294.765 228.246 295.005 228.373L301.098 231.607C301.338 231.735 301.715 231.742 301.937 231.623L307.206 228.826C307.43 228.707 307.417 228.508 307.177 228.38L301.085 225.147ZM224.918 290.987L230.185 288.19C230.409 288.071 230.396 287.872 230.155 287.745L224.063 284.511C223.822 284.383 223.447 284.376 223.222 284.495L217.953 287.292C217.729 287.41 217.742 287.61 217.982 287.738L224.073 290.972C224.317 291.099 224.694 291.105 224.918 290.987ZM319.344 240.863L324.613 238.067C324.837 237.948 324.824 237.747 324.583 237.62L318.491 234.387C318.251 234.26 317.874 234.253 317.65 234.371L312.382 237.167C312.159 237.286 312.172 237.485 312.412 237.614L318.504 240.848C318.744 240.974 319.12 240.981 319.344 240.863ZM302.942 240.331L308.211 237.534C308.435 237.415 308.422 237.215 308.18 237.088L302.088 233.854C301.848 233.726 301.471 233.719 301.248 233.838L295.979 236.634C295.756 236.754 295.769 236.952 296.009 237.081L302.101 240.315C302.341 240.442 302.718 240.449 302.942 240.331ZM309.788 229.767C309.548 229.639 309.171 229.632 308.947 229.751L303.678 232.548C303.455 232.666 303.467 232.866 303.709 232.994L309.801 236.227C310.041 236.355 310.418 236.362 310.641 236.243L315.91 233.447C316.133 233.328 316.12 233.129 315.88 233.002L309.788 229.767ZM311.409 228.906L326.204 236.76C326.444 236.887 326.82 236.894 327.045 236.776L332.313 233.979C332.536 233.86 332.523 233.661 332.283 233.533L317.488 225.679C317.247 225.552 316.871 225.545 316.647 225.663L311.379 228.459C311.155 228.579 311.168 228.779 311.409 228.906ZM293.548 237.926L288.28 240.722C288.056 240.841 288.069 241.041 288.309 241.168L294.402 244.401C294.642 244.529 295.019 244.537 295.242 244.417L300.51 241.621C300.734 241.501 300.721 241.303 300.481 241.174L294.388 237.94C294.147 237.814 293.771 237.807 293.548 237.926ZM235.595 268.688L230.326 271.485C230.102 271.603 230.116 271.803 230.356 271.931L236.448 275.165C236.688 275.292 237.065 275.299 237.289 275.181L242.558 272.384C242.782 272.265 242.767 272.066 242.527 271.939L236.436 268.705C236.195 268.576 235.819 268.569 235.595 268.688ZM310.804 244.934C311.045 245.062 311.421 245.069 311.645 244.95L316.914 242.154C317.137 242.035 317.125 241.836 316.884 241.708L310.791 238.474C310.551 238.347 310.174 238.34 309.952 238.458L304.683 241.255C304.459 241.374 304.472 241.574 304.712 241.701L310.804 244.934ZM243.295 264.601L238.026 267.398C237.802 267.517 237.816 267.716 238.057 267.843L244.148 271.077C244.388 271.205 244.764 271.212 244.989 271.093L250.257 268.296C250.481 268.178 250.468 267.978 250.228 267.85L244.136 264.617C243.894 264.489 243.519 264.482 243.295 264.601ZM185.577 311.408C185.817 311.535 186.194 311.543 186.418 311.424L191.687 308.628C191.91 308.508 191.898 308.31 191.656 308.182L185.564 304.948C185.324 304.821 184.948 304.814 184.724 304.932L179.455 307.729C179.232 307.848 179.245 308.048 179.485 308.175L185.577 311.408ZM173.994 301.387L168.725 304.184C168.502 304.303 168.515 304.502 168.756 304.63L174.848 307.864C175.089 307.991 175.465 307.998 175.689 307.88L180.958 305.084C181.182 304.964 181.169 304.765 180.929 304.637L174.836 301.403C174.595 301.276 174.218 301.269 173.994 301.387ZM194.118 307.336L199.387 304.54C199.611 304.421 199.597 304.221 199.357 304.094L193.265 300.861C193.025 300.733 192.648 300.725 192.424 300.845L187.155 303.641C186.932 303.759 186.944 303.959 187.186 304.087L193.278 307.321C193.517 307.447 193.894 307.455 194.118 307.336ZM201.817 303.249L207.086 300.453C207.31 300.334 207.297 300.135 207.057 300.008L200.965 296.774C200.725 296.646 200.349 296.639 200.124 296.758L194.856 299.554C194.632 299.673 194.645 299.872 194.887 300L200.979 303.233C201.217 303.361 201.594 303.368 201.817 303.249ZM209.517 299.161L214.786 296.365C215.01 296.246 214.997 296.047 214.757 295.918L208.664 292.684C208.424 292.557 208.048 292.55 207.823 292.669L202.556 295.465C202.332 295.584 202.345 295.785 202.585 295.911L208.676 299.145C208.918 299.274 209.293 299.281 209.517 299.161ZM181.694 297.3L176.426 300.096C176.202 300.214 176.215 300.414 176.456 300.543L182.548 303.776C182.788 303.903 183.164 303.91 183.389 303.792L188.658 300.995C188.882 300.877 188.868 300.676 188.628 300.549L182.536 297.315C182.295 297.188 181.919 297.181 181.694 297.3ZM189.395 293.212L184.126 296.009C183.902 296.128 183.915 296.327 184.155 296.454L190.248 299.688C190.488 299.816 190.865 299.823 191.089 299.704L196.357 296.907C196.58 296.789 196.568 296.589 196.327 296.461L190.235 293.228C189.994 293.101 189.619 293.094 189.395 293.212ZM220.195 276.863L214.926 279.659C214.702 279.779 214.715 279.978 214.956 280.106L221.049 283.339C221.289 283.467 221.665 283.474 221.889 283.355L227.157 280.559C227.381 280.441 227.368 280.24 227.128 280.112L221.036 276.879C220.794 276.751 220.419 276.744 220.195 276.863ZM212.495 280.951L207.226 283.748C207.002 283.866 207.015 284.067 207.256 284.194L213.347 287.427C213.587 287.555 213.964 287.562 214.188 287.443L219.457 284.647C219.68 284.528 219.667 284.329 219.427 284.201L213.335 280.967C213.095 280.838 212.719 280.831 212.495 280.951ZM227.894 272.775L222.625 275.571C222.402 275.691 222.415 275.889 222.655 276.017L228.746 279.251C228.986 279.378 229.363 279.385 229.587 279.267L234.856 276.47C235.08 276.351 235.067 276.152 234.825 276.024L228.733 272.79C228.495 272.664 228.118 272.657 227.894 272.775ZM197.095 289.125L191.826 291.922C191.602 292.041 191.615 292.241 191.855 292.368L197.947 295.602C198.188 295.73 198.563 295.737 198.788 295.618L204.057 292.822C204.281 292.702 204.268 292.504 204.028 292.376L197.935 289.143C197.695 289.014 197.318 289.006 197.095 289.125ZM204.794 285.038L199.525 287.834C199.301 287.954 199.315 288.152 199.556 288.28L205.648 291.514C205.888 291.641 206.264 291.648 206.488 291.53L211.756 288.733C211.98 288.614 211.966 288.414 211.726 288.287L205.634 285.053C205.395 284.925 205.018 284.919 204.794 285.038ZM199.173 313.892L204.44 311.095C204.664 310.976 204.651 310.776 204.411 310.649L198.319 307.415C198.078 307.288 197.703 307.281 197.478 307.399L192.21 310.195C191.986 310.315 191.999 310.514 192.24 310.642L198.331 313.876C198.573 314.003 198.949 314.01 199.173 313.892ZM153.988 309.697L147.896 306.463C147.655 306.336 147.28 306.329 147.055 306.447L141.787 309.244C141.563 309.363 141.576 309.563 141.816 309.69L147.909 312.924C148.149 313.052 148.526 313.059 148.75 312.94L154.017 310.144C154.241 310.024 154.227 309.826 153.988 309.697ZM165.527 312.812L159.435 309.578C159.194 309.45 158.819 309.442 158.594 309.562L150.489 313.864C150.265 313.982 150.278 314.182 150.52 314.31L156.612 317.542C156.852 317.67 157.228 317.678 157.453 317.558L165.558 313.256C165.78 313.139 165.767 312.939 165.527 312.812ZM144.64 303.445L138.549 300.211C138.309 300.084 137.933 300.076 137.708 300.195L131.224 303.637C131 303.755 131.013 303.956 131.255 304.083L137.346 307.317C137.586 307.444 137.963 307.451 138.187 307.333L144.671 303.891C144.895 303.774 144.881 303.573 144.64 303.445ZM149.612 300.807C149.852 300.934 150.228 300.941 150.452 300.823L155.72 298.026C155.944 297.907 155.931 297.707 155.69 297.58L149.598 294.346C149.358 294.218 148.981 294.211 148.757 294.33L143.489 297.126C143.265 297.246 143.279 297.444 143.519 297.572L149.612 300.807ZM176.256 316.356L170.164 313.122C169.923 312.994 169.547 312.987 169.323 313.107L159.191 318.484C158.967 318.604 158.98 318.802 159.222 318.93L165.313 322.164C165.553 322.291 165.929 322.298 166.154 322.18L176.285 316.801C176.51 316.683 176.496 316.483 176.256 316.356ZM181.312 322.911L175.22 319.678C174.98 319.55 174.604 319.542 174.38 319.662L167.896 323.104C167.672 323.222 167.685 323.423 167.925 323.549L174.017 326.783C174.258 326.911 174.634 326.918 174.858 326.799L181.342 323.358C181.565 323.239 181.551 323.038 181.312 322.911ZM206.862 270.417C207.103 270.544 207.478 270.551 207.702 270.433L212.97 267.636C213.194 267.517 213.181 267.317 212.941 267.19L206.848 263.956C206.608 263.828 206.231 263.821 206.007 263.94L200.74 266.736C200.516 266.855 200.529 267.054 200.769 267.182L206.862 270.417ZM191.462 278.592C191.702 278.72 192.079 278.727 192.303 278.608L197.572 275.811C197.796 275.693 197.782 275.493 197.541 275.365L191.449 272.131C191.209 272.004 190.833 271.997 190.608 272.115L185.339 274.912C185.115 275.031 185.128 275.23 185.369 275.358L191.462 278.592ZM157.312 296.719C157.552 296.847 157.929 296.855 158.153 296.736L163.422 293.939C163.645 293.821 163.632 293.621 163.392 293.494L157.3 290.26C157.06 290.132 156.684 290.125 156.459 290.244L151.19 293.04C150.966 293.158 150.979 293.358 151.22 293.486L157.312 296.719ZM199.162 274.504C199.402 274.631 199.779 274.639 200.003 274.52L205.271 271.724C205.495 271.605 205.481 271.406 205.241 271.278L199.15 268.044C198.909 267.917 198.534 267.91 198.309 268.028L193.041 270.824C192.817 270.943 192.83 271.143 193.071 271.27L199.162 274.504ZM183.762 282.68C184.003 282.807 184.379 282.814 184.603 282.695L189.871 279.898C190.095 279.78 190.082 279.579 189.841 279.452L183.75 276.218C183.51 276.09 183.133 276.083 182.909 276.202L177.641 278.998C177.417 279.117 177.43 279.316 177.671 279.445L183.762 282.68ZM185.543 323.437C185.303 323.309 184.926 323.301 184.703 323.421L176.598 327.723C176.374 327.841 176.387 328.041 176.627 328.169L182.719 331.403C182.96 331.53 183.335 331.537 183.56 331.419L191.665 327.117C191.889 326.998 191.876 326.798 191.635 326.671L185.543 323.437ZM172.712 288.545C172.953 288.672 173.328 288.679 173.553 288.561L178.822 285.765C179.046 285.645 179.033 285.447 178.793 285.318L172.7 282.084C172.46 281.957 172.083 281.95 171.86 282.068L166.591 284.865C166.367 284.984 166.38 285.183 166.62 285.311L172.712 288.545ZM165.012 292.632C165.252 292.76 165.629 292.767 165.852 292.648L171.12 289.851C171.344 289.733 171.331 289.533 171.091 289.405L164.998 286.171C164.758 286.044 164.381 286.037 164.158 286.155L158.889 288.951C158.665 289.071 158.678 289.27 158.919 289.397L165.012 292.632ZM328.197 247.713C327.957 247.586 327.58 247.579 327.356 247.697L314.388 254.582C314.165 254.7 314.178 254.9 314.418 255.028L320.51 258.262C320.75 258.39 321.126 258.397 321.351 258.278L334.32 251.394C334.543 251.275 334.53 251.076 334.29 250.948L328.197 247.713ZM311.176 256.748C310.936 256.621 310.56 256.614 310.335 256.732L305.066 259.528C304.842 259.648 304.856 259.847 305.097 259.975L311.188 263.209C311.428 263.336 311.805 263.343 312.029 263.224L317.296 260.428C317.52 260.309 317.507 260.11 317.266 259.982L311.176 256.748ZM206.873 309.805L212.142 307.008C212.366 306.889 212.353 306.69 212.112 306.562L206.019 303.328C205.779 303.2 205.404 303.193 205.179 303.312L199.911 306.109C199.687 306.227 199.7 306.427 199.94 306.555L206.033 309.789C206.273 309.916 206.65 309.923 206.873 309.805ZM295.775 264.923C295.535 264.795 295.158 264.788 294.934 264.907L289.666 267.703C289.442 267.822 289.455 268.022 289.696 268.15L295.788 271.383C296.029 271.511 296.405 271.518 296.629 271.4L301.898 268.602C302.122 268.484 302.109 268.284 301.869 268.157L295.775 264.923ZM335.896 243.626C335.656 243.498 335.279 243.491 335.056 243.61L329.787 246.407C329.564 246.525 329.576 246.725 329.817 246.853L335.91 250.087C336.15 250.214 336.527 250.221 336.75 250.103L342.019 247.307C342.243 247.187 342.23 246.988 341.99 246.861L335.896 243.626ZM349.688 242.773L334.893 234.918C334.653 234.791 334.276 234.784 334.052 234.902L328.783 237.699C328.559 237.818 328.572 238.018 328.814 238.145L343.608 245.999C343.848 246.127 344.225 246.134 344.449 246.015L349.718 243.218C349.942 243.1 349.929 242.9 349.688 242.773ZM267.001 280.197C266.761 280.069 266.384 280.062 266.161 280.181L259.677 283.622C259.453 283.741 259.466 283.941 259.707 284.069L265.799 287.303C266.039 287.43 266.416 287.437 266.64 287.319L273.124 283.877C273.348 283.759 273.335 283.558 273.094 283.432L267.001 280.197ZM286.454 269.87C286.214 269.743 285.837 269.736 285.613 269.854L277.507 274.158C277.283 274.276 277.298 274.476 277.537 274.603L283.629 277.837C283.869 277.965 284.245 277.972 284.47 277.853L292.575 273.551C292.798 273.433 292.785 273.233 292.545 273.105L286.454 269.87ZM249.17 289.662C248.93 289.535 248.553 289.528 248.329 289.646L204.966 312.665C204.742 312.783 204.755 312.983 204.995 313.111L211.087 316.345C211.328 316.472 211.703 316.48 211.928 316.361L255.292 293.343C255.515 293.224 255.502 293.024 255.262 292.896L249.17 289.662ZM203.376 313.971C203.135 313.844 202.759 313.837 202.535 313.955L196.051 317.397C195.827 317.515 195.84 317.715 196.081 317.844L202.173 321.077C202.414 321.205 202.79 321.212 203.014 321.093L209.499 317.651C209.721 317.532 209.709 317.333 209.468 317.205L203.376 313.971ZM258.086 284.929C257.846 284.802 257.47 284.795 257.245 284.913L250.761 288.355C250.537 288.475 250.55 288.673 250.79 288.802L256.883 292.035C257.123 292.163 257.5 292.17 257.723 292.051L264.208 288.608C264.432 288.49 264.419 288.29 264.177 288.162L258.086 284.929ZM194.46 318.704C194.219 318.577 193.844 318.569 193.619 318.688L187.134 322.13C186.911 322.249 186.925 322.448 187.165 322.575L193.256 325.809C193.496 325.937 193.872 325.944 194.097 325.825L200.581 322.384C200.805 322.264 200.792 322.065 200.552 321.937L194.46 318.704ZM275.917 275.465C275.677 275.337 275.301 275.329 275.076 275.449L268.592 278.89C268.369 279.009 268.381 279.209 268.623 279.336L274.715 282.57C274.955 282.698 275.332 282.705 275.555 282.586L282.039 279.144C282.263 279.026 282.25 278.826 282.008 278.699L275.917 275.465ZM303.475 260.835C303.235 260.708 302.858 260.701 302.634 260.819L297.366 263.617C297.142 263.735 297.156 263.935 297.397 264.062L303.488 267.296C303.728 267.424 304.105 267.431 304.329 267.312L309.598 264.516C309.822 264.397 309.807 264.198 309.568 264.069L303.475 260.835ZM320.346 249.57L325.614 246.773C325.838 246.654 325.825 246.454 325.585 246.327L319.492 243.093C319.252 242.965 318.875 242.958 318.652 243.077L313.383 245.873C313.16 245.991 313.172 246.191 313.413 246.32L319.506 249.554C319.747 249.682 320.124 249.689 320.346 249.57ZM285.92 249.366L291.188 246.57C291.412 246.451 291.399 246.251 291.158 246.123L285.066 242.89C284.826 242.762 284.45 242.754 284.225 242.874L278.956 245.67C278.732 245.79 278.746 245.988 278.987 246.116L285.078 249.349C285.32 249.477 285.696 249.485 285.92 249.366ZM268.473 277.105L283.874 268.931C284.097 268.812 284.084 268.612 283.843 268.485L277.751 265.251C277.51 265.124 277.135 265.117 276.91 265.235L261.509 273.41C261.286 273.528 261.299 273.728 261.539 273.855L267.63 277.088C267.874 277.218 268.249 277.225 268.473 277.105ZM311.807 253.642C312.047 253.769 312.424 253.776 312.647 253.658L317.916 250.862C318.139 250.742 318.126 250.543 317.886 250.415L311.794 247.181C311.554 247.054 311.177 247.047 310.954 247.165L305.685 249.962C305.461 250.081 305.476 250.28 305.715 250.408L311.807 253.642ZM303.945 249.037L309.213 246.24C309.436 246.122 309.424 245.922 309.183 245.795L303.092 242.561C302.851 242.433 302.475 242.426 302.251 242.545L296.982 245.341C296.758 245.46 296.771 245.659 297.011 245.787L303.104 249.02C303.344 249.15 303.721 249.156 303.945 249.037ZM260.773 281.194L266.042 278.396C266.266 278.278 266.253 278.078 266.013 277.951L259.921 274.717C259.68 274.589 259.304 274.582 259.08 274.701L253.811 277.498C253.587 277.616 253.6 277.816 253.841 277.944L259.934 281.178C260.173 281.305 260.55 281.312 260.773 281.194ZM294.785 262.677C295.025 262.804 295.402 262.811 295.626 262.693L300.893 259.896C301.117 259.777 301.104 259.577 300.864 259.45L294.772 256.216C294.531 256.089 294.155 256.082 293.931 256.2L288.662 258.996C288.438 259.116 288.451 259.314 288.691 259.442L294.785 262.677ZM222.274 301.63L227.542 298.833C227.766 298.714 227.752 298.515 227.512 298.387L221.42 295.153C221.18 295.026 220.804 295.019 220.579 295.137L215.311 297.934C215.087 298.053 215.101 298.253 215.341 298.38L221.433 301.614C221.673 301.741 222.049 301.748 222.274 301.63ZM229.974 297.543L235.242 294.747C235.466 294.627 235.453 294.428 235.212 294.301L229.12 291.067C228.879 290.939 228.504 290.932 228.28 291.052L223.011 293.848C222.787 293.966 222.8 294.166 223.04 294.294L229.133 297.528C229.373 297.654 229.75 297.661 229.974 297.543ZM214.573 305.717L219.842 302.921C220.066 302.803 220.053 302.603 219.813 302.475L213.72 299.242C213.48 299.114 213.103 299.106 212.879 299.225L207.612 302.022C207.388 302.14 207.401 302.34 207.641 302.467L213.733 305.701C213.974 305.829 214.349 305.836 214.573 305.717ZM245.373 289.368L250.642 286.572C250.866 286.453 250.853 286.253 250.612 286.125L244.52 282.891C244.28 282.764 243.903 282.757 243.679 282.875L238.41 285.672C238.186 285.791 238.2 285.991 238.44 286.118L244.532 289.352C244.773 289.48 245.149 289.487 245.373 289.368ZM237.673 293.454L242.941 290.658C243.165 290.54 243.152 290.34 242.912 290.213L236.819 286.979C236.579 286.851 236.202 286.844 235.978 286.963L230.71 289.759C230.486 289.878 230.499 290.078 230.74 290.205L236.832 293.439C237.073 293.567 237.449 293.574 237.673 293.454ZM253.073 285.28L258.342 282.484C258.565 282.365 258.552 282.165 258.312 282.038L252.22 278.804C251.98 278.677 251.603 278.669 251.379 278.788L246.11 281.584C245.886 281.703 245.9 281.902 246.141 282.03L252.232 285.264C252.473 285.392 252.849 285.399 253.073 285.28ZM288.301 224.815C288.541 224.942 288.918 224.95 289.141 224.831L294.41 222.034C294.634 221.915 294.621 221.716 294.381 221.588L292.759 220.727C292.519 220.599 292.142 220.592 291.918 220.711L286.651 223.508C286.428 223.626 286.44 223.826 286.681 223.954L288.301 224.815ZM250.415 247.298C250.654 247.425 251.031 247.433 251.256 247.314L256.524 244.517C256.748 244.399 256.735 244.199 256.495 244.072L250.404 240.838C250.164 240.709 249.787 240.702 249.563 240.822L244.295 243.619C244.071 243.737 244.084 243.937 244.325 244.065L250.415 247.298ZM265.815 239.123C266.055 239.25 266.431 239.258 266.655 239.139L271.924 236.343C272.148 236.223 272.135 236.025 271.894 235.896L265.802 232.662C265.562 232.535 265.185 232.528 264.961 232.646L259.692 235.443C259.47 235.562 259.482 235.763 259.723 235.889L265.815 239.123ZM241.013 252.289C241.253 252.417 241.628 252.424 241.853 252.305L247.122 249.509C247.346 249.391 247.333 249.191 247.092 249.064L240.999 245.83C240.759 245.702 240.382 245.695 240.159 245.815L234.89 248.611C234.666 248.729 234.679 248.929 234.919 249.058L241.013 252.289ZM258.114 243.211C258.355 243.339 258.731 243.346 258.955 243.227L264.223 240.43C264.446 240.312 264.434 240.112 264.192 239.984L258.1 236.751C257.86 236.623 257.484 236.616 257.26 236.734L251.992 239.531C251.768 239.65 251.781 239.849 252.021 239.976L258.114 243.211ZM225.612 260.464C225.852 260.591 226.228 260.599 226.453 260.479L231.721 257.683C231.945 257.564 231.932 257.365 231.691 257.236L225.599 254.002C225.359 253.875 224.982 253.868 224.758 253.986L219.489 256.782C219.265 256.902 219.28 257.102 219.52 257.229L225.612 260.464ZM233.312 256.377C233.552 256.504 233.929 256.511 234.153 256.393L239.422 253.596C239.645 253.477 239.632 253.277 239.391 253.15L233.3 249.916C233.06 249.788 232.683 249.781 232.459 249.9L227.191 252.696C226.967 252.816 226.98 253.014 227.221 253.143L233.312 256.377ZM272.9 232.99C273.14 233.117 273.517 233.124 273.741 233.006L279.01 230.208C279.234 230.09 279.221 229.89 278.98 229.763L277.359 228.902C277.118 228.775 276.743 228.768 276.519 228.886L271.25 231.683C271.026 231.802 271.039 232.002 271.28 232.129L272.9 232.99ZM296 220.727C296.24 220.854 296.617 220.862 296.841 220.743L302.11 217.947C302.334 217.827 302.321 217.628 302.079 217.501L300.458 216.639C300.218 216.512 299.841 216.505 299.617 216.624L294.348 219.42C294.124 219.539 294.137 219.74 294.378 219.867L296 220.727ZM308.797 227.52C309.038 227.647 309.414 227.654 309.638 227.536L314.907 224.74C315.131 224.62 315.118 224.421 314.878 224.294L308.785 221.06C308.545 220.932 308.168 220.925 307.945 221.044L302.676 223.841C302.452 223.96 302.465 224.159 302.705 224.287L308.797 227.52ZM328.047 245.482L333.316 242.685C333.54 242.567 333.527 242.367 333.287 242.239L327.194 239.006C326.954 238.878 326.577 238.871 326.353 238.989L321.086 241.786C320.862 241.905 320.875 242.104 321.116 242.231L327.207 245.465C327.447 245.595 327.823 245.601 328.047 245.482ZM280.601 228.901C280.841 229.029 281.217 229.037 281.442 228.917L286.711 226.121C286.934 226.003 286.921 225.803 286.681 225.675L285.059 224.815C284.819 224.687 284.442 224.68 284.219 224.799L278.95 227.595C278.727 227.715 278.739 227.913 278.98 228.041L280.601 228.901ZM217.912 264.551C218.153 264.679 218.529 264.686 218.753 264.567L224.022 261.771C224.246 261.652 224.233 261.453 223.993 261.325L217.9 258.092C217.66 257.964 217.283 257.957 217.06 258.075L211.791 260.873C211.568 260.991 211.58 261.191 211.821 261.318L217.912 264.551Z" fill="#455A64"/>
<path d="M252.059 307.05L304.049 279.452C305.616 278.62 308.156 278.62 309.723 279.452L339.536 295.277C341.103 296.108 341.103 297.456 339.536 298.289L287.545 325.887C285.978 326.718 283.438 326.718 281.871 325.887L252.059 310.062C250.492 309.229 250.492 307.881 252.059 307.05Z" fill="#343C44"/>
<path d="M347.669 174.333C347.669 174.323 347.68 174.323 347.68 174.323L347.614 174.283L338.738 169.583C338.225 169.372 337.472 169.572 336.565 170.205C328.305 176.017 317.205 177.818 308.129 175.164C307.549 174.667 306.992 174.142 306.468 173.58C306.413 173.52 306.358 173.46 306.304 173.41H306.293C305.987 173.099 305.681 172.868 305.376 172.717L305.223 172.637L296.336 167.946C295.32 167.504 294.403 167.946 293.792 169.332C285.209 188.94 266.918 208.809 254.72 213.779C253.814 214.15 252.973 214.722 252.317 215.425C251.455 216.339 250.92 217.463 250.963 218.638L252.722 262.663C252.722 275.384 258.564 288.818 270.477 295.354L279.67 300.235L279.834 300.315C284.398 302.715 289.826 304.12 296.126 304.12C297.404 304.12 298.703 304.07 300.047 303.95C302.296 303.749 305.419 302.253 306.992 300.757C333.647 275.446 346.609 241.19 346.609 222.234L348.368 176.181C348.411 175.187 348.149 174.574 347.669 174.333Z" fill="#3D5EE1"/>
<path d="M348.368 176.184L346.61 222.237C346.61 241.193 333.648 275.449 306.992 300.76C305.419 302.256 302.296 303.752 300.047 303.953C298.704 304.073 297.404 304.124 296.127 304.124C289.826 304.124 284.398 302.718 279.834 300.318L279.67 300.238L279.353 300.057C267.44 293.521 261.598 280.088 261.598 267.367L259.839 223.342C259.796 222.167 260.331 221.043 261.193 220.129C261.849 219.426 262.69 218.854 263.596 218.482C275.794 213.513 294.085 193.643 302.668 174.035C303.279 172.65 304.207 172.198 305.223 172.64L305.376 172.72C305.682 172.871 305.987 173.102 306.293 173.413H306.304C306.359 173.463 306.413 173.523 306.468 173.584C315.575 183.332 333.484 183.322 345.441 174.909C346.348 174.276 347.101 174.075 347.614 174.286L347.68 174.326C347.68 174.326 347.669 174.326 347.669 174.337C348.149 174.577 348.412 175.19 348.368 176.184Z" fill="#3D5EE1"/>
<path opacity="0.4" d="M347.618 174.279C347.105 174.069 346.352 174.269 345.445 174.902C334.187 182.823 317.643 183.295 308.153 175.163C317.228 177.823 328.312 176.016 336.567 170.203C337.474 169.571 338.227 169.37 338.74 169.581L347.618 174.279Z" fill="white"/>
<path opacity="0.4" d="M305.227 172.635C304.211 172.193 303.283 172.645 302.671 174.03C294.088 193.638 275.797 213.507 263.6 218.477C262.693 218.849 261.853 219.421 261.197 220.124C260.968 220.365 260.761 220.626 260.586 220.897L251.719 216.188C251.893 215.927 252.09 215.666 252.319 215.425C252.439 215.295 252.571 215.174 252.712 215.054L252.723 215.044C252.778 215.003 252.822 214.953 252.876 214.903C252.931 214.863 252.975 214.823 253.029 214.773C253.531 214.371 254.11 214.02 254.722 213.779C266.919 208.809 285.21 188.94 293.794 169.332C294.405 167.946 295.322 167.504 296.338 167.946L305.227 172.635Z" fill="white"/>
<path d="M252.723 215.037C252.767 214.987 252.821 214.946 252.876 214.906C252.821 214.956 252.778 215.007 252.723 215.047C252.723 215.047 252.711 215.037 252.723 215.037Z" fill="#3D5EE1"/>
<path opacity="0.15" d="M252.876 214.906C252.822 214.956 252.778 215.007 252.724 215.047C252.724 215.047 252.713 215.037 252.724 215.037C252.766 214.987 252.821 214.946 252.876 214.906Z" fill="black"/>
<path opacity="0.15" d="M279.838 300.313L279.674 300.242L270.479 295.353C258.566 288.817 252.724 275.383 252.724 262.663L250.965 218.637C250.933 217.774 251.217 216.93 251.719 216.188L260.586 220.896C260.095 221.639 259.811 222.473 259.843 223.336L261.602 267.361C261.602 280.082 267.444 293.516 279.357 300.052L279.674 300.232L279.838 300.313Z" fill="black"/>
<path d="M311.2 259.806L297.009 267.339L299.208 243.736C297.51 242.911 296.429 240.881 296.429 237.965C296.429 232.768 299.865 226.73 304.105 224.48C308.345 222.23 311.781 224.618 311.781 229.816C311.781 232.731 310.699 235.91 309.002 238.538L311.2 259.806Z" fill="#455A64"/>
<path d="M311.2 259.808L298.346 252.984L297.009 267.342L311.2 259.808Z" fill="#485057"/>
<path d="M304.105 224.48C301.331 225.952 298.908 229.048 297.559 232.466L309.002 238.541V238.538C310.7 235.91 311.781 232.731 311.781 229.816C311.781 224.618 308.343 222.23 304.105 224.48Z" fill="#485057"/>
<path d="M126.582 396.917V400.841C126.565 405.453 129.869 410.067 136.497 413.585C146.479 418.883 161.14 420.175 173.416 417.473L184.817 423.526L193.577 421.704L199.556 424.878L199.883 431.521L203.103 433.231L211.192 433.885L217.006 436.867V440.612L224.302 444.484H242.855L249.505 440.956V436.995L190.167 409.459C192.9 406.793 194.271 403.837 194.277 400.882V396.916C193.385 393.086 189.915 391.11 184.374 388.17C171.153 381.152 149.718 381.152 136.497 388.17C130.554 391.326 127.182 392.791 126.582 396.917ZM144.756 392.332C148.502 390.344 154.573 390.344 158.319 392.332C162.064 394.32 162.064 397.544 158.319 399.532C154.573 401.52 148.502 401.52 144.756 399.532C141.011 397.544 141.011 394.32 144.756 392.332Z" fill="#3D5EE1"/>
<path opacity="0.1" d="M126.582 396.917V400.841C126.565 405.453 129.869 410.067 136.497 413.585C146.479 418.883 161.14 420.175 173.416 417.473L184.817 423.526L193.577 421.704L199.556 424.878L199.883 431.521L203.103 433.231L211.192 433.885L217.006 436.867V440.612L224.302 444.484H242.855L249.505 440.956V436.995L190.167 409.459C192.9 406.793 194.271 403.837 194.277 400.882V396.916C193.385 393.086 189.915 391.11 184.374 388.17C171.153 381.152 149.718 381.152 136.497 388.17C130.554 391.326 127.182 392.791 126.582 396.917ZM144.756 392.332C148.502 390.344 154.573 390.344 158.319 392.332C162.064 394.32 162.064 397.544 158.319 399.532C154.573 401.52 148.502 401.52 144.756 399.532C141.011 397.544 141.011 394.32 144.756 392.332Z" fill="black"/>
<path d="M136.498 409.623C146.48 414.921 161.14 416.213 173.416 413.512L184.818 419.564L193.578 417.743L199.556 420.917L199.883 427.561L203.103 429.27L211.193 429.924L217.5 433.16L217.006 436.651L224.302 440.523H242.855L249.505 436.995L190.167 405.498C197.156 398.681 195.237 389.976 184.374 384.209C171.153 377.191 149.719 377.191 136.498 384.209C123.277 391.226 123.277 402.605 136.498 409.623ZM144.756 388.37C148.502 386.382 154.574 386.382 158.319 388.37C162.065 390.358 162.065 393.582 158.319 395.57C154.574 397.558 148.502 397.558 144.756 395.57C141.011 393.581 141.011 390.358 144.756 388.37Z" fill="#3D5EE1"/>
<path opacity="0.3" d="M160.436 411.435C152.043 411.435 144.208 409.731 138.373 406.634C133.263 403.92 130.333 400.377 130.333 396.912C130.333 393.448 133.264 389.905 138.373 387.192C144.208 384.095 152.044 382.391 160.437 382.391C168.83 382.391 176.665 384.095 182.5 387.192C187.609 389.906 190.54 393.449 190.54 396.913C190.54 400.378 187.61 403.921 182.501 406.634C176.664 409.731 168.829 411.435 160.436 411.435ZM160.436 383.77C152.303 383.77 144.733 385.41 139.123 388.386C134.49 390.846 131.832 393.954 131.832 396.912C131.832 399.871 134.49 402.979 139.123 405.439C144.732 408.416 152.302 410.056 160.435 410.056C168.568 410.056 176.137 408.416 181.748 405.439C186.38 402.98 189.037 399.872 189.037 396.913C189.037 393.955 186.38 390.847 181.747 388.386C176.139 385.41 168.57 383.77 160.436 383.77Z" fill="black"/>
<path opacity="0.1" d="M148.252 413.673V417.633C156.339 419.289 165.388 419.234 173.416 417.468V413.508C165.389 415.274 156.34 415.329 148.252 413.673Z" fill="black"/>
<path opacity="0.1" d="M184.817 419.563V423.524L193.577 421.704V417.742L184.817 419.563Z" fill="black"/>
<path opacity="0.1" d="M199.557 420.914V424.876L199.883 431.519V427.559L199.557 420.914Z" fill="black"/>
<path opacity="0.1" d="M203.104 429.273V433.234L211.193 433.888V429.926L203.104 429.273Z" fill="black"/>
<path opacity="0.1" d="M242.856 440.523H224.303V444.484H242.856V440.523Z" fill="black"/>
<path opacity="0.15" d="M249.506 436.992V440.953L242.855 444.481V440.52L245.77 438.973V440.683L247.379 439.829V438.102L249.506 436.992Z" fill="black"/>
<path d="M247.378 438.102L245.77 438.973V440.683L247.378 439.829V438.102Z" fill="#3D5EE1"/>
<path opacity="0.15" d="M247.378 438.106V439.833L186.526 407.528L188.135 406.656L247.378 438.106Z" fill="black"/>
<path opacity="0.15" d="M188.135 406.656V408.384L186.526 407.528L188.135 406.656Z" fill="black"/>
<path d="M452.671 289.715C453.436 263.566 451.156 257.299 443.584 252.508L440.651 267.66C440.651 267.66 444.101 285.516 443.731 291.463C443.405 296.688 442.853 303.224 441.508 307.448C441.27 308.196 440.721 308.825 440.002 309.239C438.074 310.348 437.296 311.486 435.844 312.884C434.707 313.979 433.739 314.251 433.888 314.599C434.081 315.047 434.892 315.771 436.285 315.38C436.986 315.184 437.892 314.68 439.021 314.016C439.021 314.016 438.214 316.195 436.219 318.443C433.515 321.491 433.396 323.363 438.855 323.407C442.276 323.435 445.005 321.496 447.579 314.565C448.32 312.569 449.481 309.417 449.983 306.783C451.292 299.924 452.547 293.924 452.671 289.715Z" fill="#B16668"/>
<path d="M437.214 250.518C440.828 250.036 445.741 250.733 448.915 255.952C452.088 261.17 452.867 270.147 453.228 279.074C453.228 279.074 446.924 283.921 439.362 281.537L437.214 250.518Z" fill="#3D5EE1"/>
<path opacity="0.7" d="M437.214 250.518C440.828 250.036 445.741 250.733 448.915 255.952C452.088 261.17 452.867 270.147 453.228 279.074C453.228 279.074 446.924 283.921 439.362 281.537L437.214 250.518Z" fill="black"/>
<path d="M447.847 394.347C448.421 394.547 448.565 395.552 448.652 397.55C448.718 399.063 449.071 401.702 447.144 402.229C445.218 402.756 442.395 402.487 441.161 401.061C439.621 399.282 438.579 397.716 436.379 395.545C434.472 393.663 432.408 391.905 431.638 389.264C430.942 386.878 431.521 385.843 433.292 385.149C435.728 384.195 439.553 387.313 441.461 387.804C443.104 388.226 447.273 394.147 447.847 394.347Z" fill="#343C44"/>
<path d="M447.846 392.49V394.944C447.846 394.944 445.072 396.904 441.102 395.112C440.985 394.875 440.402 391.602 440.402 391.602L447.846 392.49Z" fill="#B16668"/>
<path d="M426.234 408.484C426.234 408.484 427 410.619 427.413 412.484C427.74 413.967 428.211 416.447 427.645 417.564C427.08 418.679 424.876 419.4 421.459 419.376C419.246 419.361 415.797 420.742 413.436 421.953C410.998 423.204 405.925 423.703 403.345 423.424C400.305 423.096 397.156 421.475 396.664 420.318C396.173 419.16 396.826 417.958 403.989 415.151C404.055 415.125 413.948 412.167 417.415 408.65L426.234 408.484Z" fill="#343C44"/>
<path d="M426.235 405.836C426.235 405.836 426.225 407.657 426.235 408.697C426.245 409.737 424.908 411.289 421.448 411.175C419.018 411.096 417.322 410.495 417.418 408.654V406.002L426.235 405.836Z" fill="#B16668"/>
<path d="M449.583 359.931C448.361 351.914 446.431 347.152 446.431 347.152C446.431 347.152 447.384 336.127 447.841 325.673C448.335 314.382 447.815 300.188 448.049 297.371C448.049 297.371 408.42 289.999 407.712 303.052C407.006 316.105 409.276 349.331 409.746 355.065C410.214 360.799 411.292 365.87 412.58 375.164C413.852 384.337 417.417 405.997 417.417 405.997C421.944 408.247 426.234 405.831 426.234 405.831C426.234 405.831 429.023 379.732 428.73 373.116C428.373 365.037 426.001 358.674 426.001 358.674C426.001 358.674 426.752 347.911 427.416 338.55C428.079 329.189 428.782 324.692 428.936 320.62L429.789 320.231C429.789 320.231 430.659 336.382 431.127 342.116C431.595 347.85 432.587 353.348 434.392 364C435.957 373.239 440.619 392.788 440.619 392.788C445.146 395.038 447.847 392.494 447.847 392.494C447.847 392.494 450.805 367.948 449.583 359.931Z" fill="#485057"/>
<path d="M428.937 320.62C428.937 320.62 438.549 316.265 443.362 312.336C443.362 312.336 438.894 318.124 433.029 320.689C433.029 320.689 430.944 340.752 430.955 340.355L429.75 320.59L428.937 320.62Z" fill="#343C44"/>
<path d="M420.38 246.384L422.724 258.25L434.383 257.467L431.934 244.016L420.38 246.384Z" fill="#B16668"/>
<path d="M446.695 256.606C445.541 253.379 441.089 249.868 436.633 250.628C428.449 252.026 421.957 253.521 417.124 255.108C413.045 256.448 409.329 259.688 408.992 272.024C408.992 272.024 407.626 300.78 407.602 306.342C417.843 310.068 428.496 309.954 434.384 308.771C446.641 306.309 448.119 301.635 448.119 301.635C448.119 301.635 448.277 280.955 447.911 272.025C447.597 264.436 447.488 258.822 446.695 256.606Z" fill="#3D5EE1"/>
<g opacity="0.15">
<path d="M446.695 256.606C445.541 253.379 441.089 249.868 436.633 250.628C428.449 252.026 421.957 253.521 417.124 255.108C413.045 256.448 409.329 259.688 408.992 272.024C408.992 272.024 407.626 300.78 407.602 306.342C417.843 310.068 428.496 309.954 434.384 308.771C446.641 306.309 448.119 301.635 448.119 301.635C448.119 301.635 448.277 280.955 447.911 272.025C447.597 264.436 447.488 258.822 446.695 256.606Z" fill="black"/>
</g>
<path d="M411.386 231.953C411.386 231.953 408.43 236.286 408.788 236.699C409.147 237.112 411.409 237.443 411.409 237.443L411.386 231.953Z" fill="#9A4A4D"/>
<path d="M419.595 219.966C413.431 221.296 411.703 223.837 411.341 232.896C410.963 242.361 412.084 245.311 413.467 246.556C414.399 247.397 419.471 247.447 422.011 246.746C425.191 245.868 432.363 243.363 435.632 238.538C439.478 232.862 440.339 225.257 435.998 222.235C429.89 217.982 422.103 219.425 419.595 219.966Z" fill="#B16668"/>
<path d="M411.408 222.32C413.217 225.168 417.144 226.53 417.144 226.53C418.326 227.768 417.675 232.597 419.755 233.364C419.755 233.364 420.648 229.849 423.862 230.223C427.098 230.598 427.625 234.368 425.65 236.705C423.673 239.043 421.758 238.202 421.758 238.202C421.758 238.202 421.98 243.195 424.455 245.972C424.455 245.972 427.215 246.73 432.228 245.639C435.31 244.968 439.601 241.319 441.349 237.513C445.048 229.461 445.144 222.283 439.556 220.248C438.868 216.587 435.682 215.006 432.077 214.322C424.319 212.852 419.317 217.304 413.345 216.918C409.927 216.696 409.288 218.984 411.408 222.32Z" fill="#343C44"/>
<path d="M439.685 221.474L443.342 219.389C442.715 218.46 441.389 218.175 440.379 218.75C439.369 219.326 439.059 220.545 439.685 221.474Z" fill="#343C44"/>
<path d="M367.827 276.466C369.745 277.25 392.331 292.598 395.853 290.81C399.375 289.023 417.443 269.615 417.443 269.615C422.69 261.622 417.443 255.055 417.443 255.055C417.443 255.055 411.649 256.039 408.621 260.252C405.593 264.466 392.496 279.565 392.496 279.565C389.262 278.077 386.039 276.567 382.827 275.039C380.18 273.779 377.528 272.521 374.937 271.166C374.291 270.828 373.437 270.499 372.9 270.011C371.623 268.85 371.842 266.039 371.866 264.511C371.877 263.797 371.888 263.081 371.979 262.371C372.089 261.498 372.27 259.361 370.561 260.039C370.232 260.17 369.965 260.407 369.746 260.669C369.477 260.99 369.268 261.355 369.134 261.74C368.812 262.664 368.916 263.675 368.62 264.607C368.577 264.742 368.521 264.882 368.41 264.978C368.27 265.101 368.064 265.136 367.871 265.13C365.381 265.061 363.025 261.854 361.882 260.151C361.373 259.393 360.872 258.549 359.994 258.172C358.631 257.587 356.995 258.425 356.119 259.548C355 260.979 354.664 262.839 354.886 264.59C355.191 267.016 356.204 269.261 358.131 270.913C361.051 273.42 364.222 274.992 367.827 276.466Z" fill="#B16668"/>
<path d="M419.283 254.43C416.791 254.694 412.652 254.866 408.598 259.088C403.857 264.025 397.613 272.084 397.613 272.084C397.613 272.084 399.308 279.899 408.538 281.54C408.538 281.54 417.085 273.489 419.462 269.056C421.838 264.622 422.217 257.422 419.283 254.43Z" fill="#3D5EE1"/>
<path opacity="0.7" d="M419.283 254.43C416.791 254.694 412.652 254.866 408.598 259.088C403.857 264.025 397.613 272.084 397.613 272.084C397.613 272.084 399.308 279.899 408.538 281.54C408.538 281.54 417.085 273.489 419.462 269.056C421.838 264.622 422.217 257.422 419.283 254.43Z" fill="black"/>
</svg>
