<svg width="500" height="500" viewBox="0 0 500 500" fill="none" xmlns="http://www.w3.org/2000/svg">
<path d="M92.6149 86.6459L142.369 187.895C143.416 190.025 142.538 192.6 140.407 193.647C138.277 194.694 135.701 193.816 134.655 191.685L84.9019 90.4359C83.8549 88.3059 84.7329 85.7309 86.8639 84.6839C88.9929 83.6369 91.5689 84.5149 92.6149 86.6459Z" fill="#E0E0E0"/>
<path d="M127.792 160.303L138.039 181.156L143.252 178.594L133.006 157.741L127.792 160.303Z" fill="#E0E0E0"/>
<path d="M126.861 148.83C127.842 150.827 127.019 153.241 125.022 154.223L117.313 158.011C115.316 158.992 112.902 158.169 111.92 156.172C110.939 154.175 111.762 151.761 113.759 150.78L121.468 146.992C123.465 146.01 125.88 146.834 126.861 148.83Z" fill="#E0E0E0"/>
<path d="M143.426 182.988L154.189 177.699L151.387 171.996L146.005 174.64L144.246 171.06L149.627 168.415L145.016 159.032L141.24 160.888L139.48 157.307L143.257 155.452L140.471 149.781L129.707 155.071L143.426 182.988Z" fill="#E0E0E0"/>
<path d="M79.8419 88.1415L84.1716 96.9531L99.4435 89.4491L95.1138 80.6374L79.8419 88.1415Z" fill="#E0E0E0"/>
<path d="M63.5389 57.7181C63.7109 58.0681 63.9049 58.4011 64.1149 58.7181C56.3019 63.4971 53.2739 73.5291 57.3929 81.9121C61.7609 90.8001 72.5069 94.4651 81.3959 90.0971L94.8709 83.4751C103.759 79.1071 107.424 68.3611 103.056 59.4721C98.8739 50.9611 88.8439 47.2451 80.1959 50.7791C80.0749 50.4301 79.9339 50.0831 79.7659 49.7431C77.5639 45.2621 72.1459 43.4141 67.6649 45.6161C63.1839 47.8191 61.3369 53.2371 63.5389 57.7181ZM82.7759 57.0751C88.2759 54.3721 94.9259 56.6401 97.6279 62.1401C100.331 67.6401 98.0629 74.2901 92.5629 76.9921C89.6409 78.4281 86.3949 78.4611 83.5889 77.3521C82.7519 80.2511 80.7429 82.8011 77.8209 84.2361C72.3209 86.9391 65.6709 84.6711 62.9689 79.1711C60.2659 73.6711 62.5339 67.0211 68.0339 64.3191C70.9559 62.8831 74.2019 62.8501 77.0079 63.9591C77.8449 61.0601 79.8549 58.5111 82.7759 57.0751ZM75.2559 51.3091C76.3039 53.4411 75.4249 56.0201 73.2919 57.0681C71.1599 58.1161 68.5809 57.2371 67.5329 55.1041C66.4849 52.9711 67.3639 50.3931 69.4969 49.3451C71.6299 48.2981 74.2079 49.1771 75.2559 51.3091Z" fill="#E0E0E0"/>
<path d="M401.991 386.36L427.979 258.895C428.42 256.732 430.531 255.336 432.693 255.777L434.439 256.133C436.602 256.574 437.998 258.685 437.557 260.847L411.569 388.312C411.128 390.475 409.017 391.871 406.854 391.43L405.108 391.074C402.945 390.633 401.55 388.523 401.991 386.36Z" fill="#E0E0E0"/>
<path d="M421.736 294.72L427.016 268.828L420.543 267.508L415.263 293.4L421.736 294.72Z" fill="#E0E0E0"/>
<path d="M414.427 306.527L414.761 304.89C415.174 302.863 417.153 301.554 419.181 301.967L430.39 304.252C432.418 304.665 433.726 306.644 433.313 308.672L432.979 310.309C432.566 312.337 430.587 313.645 428.559 313.232L417.35 310.947C415.323 310.533 414.014 308.554 414.427 306.527Z" fill="#E0E0E0"/>
<path d="M423.44 263.444L410.076 260.719L408.632 267.8L415.314 269.162L414.408 273.608L407.726 272.246L405.35 283.897L410.039 284.853L409.133 289.299L404.444 288.343L403.008 295.383L416.373 298.108L423.44 263.444Z" fill="#E0E0E0"/>
<path d="M414.708 393.003L416.939 382.062L397.977 378.196L395.746 389.136L414.708 393.003Z" fill="#E0E0E0"/>
<path d="M408.22 431.742C408.309 431.307 408.365 430.873 408.397 430.442C418.752 431.575 428.453 424.651 430.575 414.243C432.825 403.206 425.702 392.435 414.666 390.185L397.934 386.774C386.897 384.524 376.126 391.647 373.876 402.683C371.721 413.251 378.164 423.57 388.404 426.403C388.27 426.802 388.156 427.212 388.07 427.634C386.936 433.198 390.527 438.629 396.091 439.763C401.655 440.897 407.086 437.306 408.22 431.742ZM390.46 418.942C383.631 417.55 379.223 410.885 380.616 404.055C382.008 397.226 388.673 392.818 395.503 394.211C399.131 394.951 402.075 397.178 403.83 400.128C406.599 398.101 410.181 397.204 413.808 397.943C420.637 399.335 425.045 406 423.652 412.83C422.26 419.659 415.595 424.067 408.765 422.674C405.137 421.934 402.193 419.707 400.438 416.757C397.669 418.785 394.087 419.682 390.46 418.942ZM393.218 429.361C393.758 426.713 396.342 425.004 398.99 425.544C401.638 426.084 403.347 428.668 402.807 431.316C402.267 433.964 399.683 435.673 397.035 435.133C394.387 434.593 392.678 432.009 393.218 429.361Z" fill="#E0E0E0"/>
<path d="M401.371 53.7478L392.291 53.7969L392.534 98.9769L401.615 98.9278L401.371 53.7478Z" fill="#E0E0E0"/>
<path d="M337.14 53.891L313.627 54.0156L313.759 78.9576L337.272 78.833L337.14 53.891Z" fill="#EBEBEB"/>
<path d="M360.546 53.7324L337.033 53.8594L337.168 78.8014L360.681 78.6744L360.546 53.7324Z" fill="#F5F5F5"/>
<path d="M313.661 60.8888C329.287 61.0178 344.951 60.9268 360.575 60.6728C360.896 60.6678 360.894 60.1748 360.572 60.1738C344.946 60.0878 329.282 60.1638 313.659 60.4608C313.383 60.4658 313.385 60.8858 313.661 60.8888Z" fill="#E0E0E0"/>
<path d="M341.692 78.3943L298.973 78.625L299.082 98.951L341.801 98.7203L341.692 78.3943Z" fill="#EBEBEB"/>
<path d="M384.208 78.1678L341.489 78.3984L341.599 98.7244L384.318 98.4938L384.208 78.1678Z" fill="#F5F5F5"/>
<path d="M298.995 84.2883C327.374 84.6093 355.853 84.3213 384.23 83.8673C384.552 83.8613 384.549 83.3693 384.227 83.3673C355.846 83.2173 327.366 83.2343 298.992 83.8593C298.717 83.8663 298.719 84.2853 298.995 84.2883Z" fill="#E0E0E0"/>
<path d="M448.525 98.9609H283.019V106.243H448.525V98.9609Z" fill="#E0E0E0"/>
<path d="M316.835 102.461H310.116V127.308H316.835V102.461Z" fill="#E0E0E0"/>
<path d="M417.131 102.461H410.412V127.308H417.131V102.461Z" fill="#E0E0E0"/>
<path d="M410.23 36.8963L401.15 36.9453L401.486 99.0833L410.566 99.0343L410.23 36.8963Z" fill="#EBEBEB"/>
<path d="M424.418 48.4707L410.31 48.5469L410.581 98.9029L424.689 98.8267L424.418 48.4707Z" fill="#F5F5F5"/>
<path d="M424.315 58.1815C424.315 58.3165 421.156 58.4255 417.261 58.4255C413.364 58.4255 410.206 58.3155 410.206 58.1815C410.206 58.0465 413.364 57.9375 417.261 57.9375C421.157 57.9375 424.315 58.0475 424.315 58.1815Z" fill="#E0E0E0"/>
<path d="M424.315 56.0643C424.315 56.1993 421.156 56.3083 417.261 56.3083C413.364 56.3083 410.206 56.1993 410.206 56.0643C410.206 55.9293 413.364 55.8203 417.261 55.8203C421.157 55.8203 424.315 55.9293 424.315 56.0643Z" fill="#E0E0E0"/>
<path d="M424.315 91.2596C424.315 91.3946 421.156 91.5036 417.261 91.5036C413.364 91.5036 410.206 91.3946 410.206 91.2596C410.206 91.1246 413.364 91.0156 417.261 91.0156C421.157 91.0156 424.315 91.1246 424.315 91.2596Z" fill="#E0E0E0"/>
<path d="M424.315 89.1424C424.315 89.2774 421.156 89.3864 417.261 89.3864C413.364 89.3864 410.206 89.2774 410.206 89.1424C410.206 89.0074 413.364 88.8984 417.261 88.8984C421.157 88.8974 424.315 89.0074 424.315 89.1424Z" fill="#E0E0E0"/>
<path d="M417.488 84.5289C417.353 84.5289 417.244 79.4489 417.244 73.1829C417.244 66.9149 417.353 61.8359 417.488 61.8359C417.623 61.8359 417.733 66.9149 417.733 73.1829C417.733 79.4489 417.623 84.5289 417.488 84.5289Z" fill="#E0E0E0"/>
<path d="M439.825 60.8438H424.468V98.8517H439.825V60.8438Z" fill="#EBEBEB"/>
<path d="M408.159 47.5241C408.159 48.9651 406.991 50.1341 405.549 50.1341C404.108 50.1341 402.939 48.9661 402.939 47.5241C402.939 46.0831 404.107 44.9141 405.549 44.9141C406.991 44.9141 408.159 46.0831 408.159 47.5241Z" fill="#E0E0E0"/>
<path d="M406.356 54.7031H404.743V91.6681H406.356V54.7031Z" fill="#E0E0E0"/>
<path d="M111.548 278.352L100.046 324.687H104.705L116.644 278.352H111.548Z" fill="#EBEBEB"/>
<path d="M144.887 278.352L156.389 324.687H151.73L139.791 278.352H144.887Z" fill="#EBEBEB"/>
<path d="M130.371 265.75H124.948V324.684H130.371V265.75Z" fill="#EBEBEB"/>
<path d="M165.795 218.484H89.2649V267.515H165.795V218.484Z" fill="#E0E0E0"/>
<path d="M146.757 277.594H108.345V282.329H146.757V277.594Z" fill="#EBEBEB"/>
<path d="M94.3499 261.117C94.3679 261.117 94.3859 261.399 94.4019 262.014H94.2969C94.2179 259.616 94.1609 251.672 94.1609 242.257C94.1819 236.575 94.2019 231.435 94.2159 227.651C94.2409 225.821 94.2609 224.321 94.2759 223.225C94.2899 222.736 94.3019 222.338 94.3109 222.021C94.3229 221.746 94.3359 221.602 94.3489 221.602C94.3619 221.602 94.3749 221.746 94.3869 222.021C94.3959 222.338 94.4079 222.736 94.4219 223.225C94.4369 224.322 94.4569 225.821 94.4819 227.651C94.4959 231.435 94.5159 236.576 94.5369 242.257C94.5369 251.671 94.4809 259.616 94.4019 262.014H94.2969C94.3159 261.399 94.3319 261.117 94.3499 261.117Z" fill="#F5F5F5"/>
<path d="M100.046 261.117C100.064 261.117 100.082 261.399 100.098 262.014H99.9929C99.9139 259.616 99.8569 251.672 99.8569 242.257C99.8779 236.575 99.8979 231.435 99.9119 227.651C99.9369 225.821 99.9569 224.321 99.9719 223.225C99.9859 222.736 99.9979 222.338 100.007 222.021C100.019 221.746 100.032 221.602 100.045 221.602C100.058 221.602 100.071 221.746 100.083 222.021C100.092 222.338 100.104 222.736 100.118 223.225C100.133 224.322 100.153 225.821 100.178 227.651C100.192 231.435 100.212 236.576 100.233 242.257C100.233 251.671 100.177 259.616 100.098 262.014H99.9929C100.012 261.399 100.028 261.117 100.046 261.117Z" fill="#F5F5F5"/>
<path d="M105.742 261.117C105.76 261.117 105.778 261.399 105.794 262.014H105.689C105.61 259.616 105.553 251.672 105.553 242.257C105.574 236.575 105.594 231.435 105.608 227.651C105.633 225.821 105.653 224.321 105.668 223.225C105.682 222.736 105.694 222.338 105.703 222.021C105.715 221.746 105.728 221.602 105.741 221.602C105.754 221.602 105.767 221.746 105.779 222.021C105.788 222.338 105.8 222.736 105.814 223.225C105.829 224.322 105.849 225.821 105.874 227.651C105.888 231.435 105.908 236.576 105.929 242.257C105.929 251.671 105.872 259.616 105.794 262.014H105.689C105.707 261.399 105.724 261.117 105.742 261.117Z" fill="#F5F5F5"/>
<path d="M111.438 261.117C111.456 261.117 111.474 261.399 111.49 262.014H111.385C111.306 259.616 111.249 251.672 111.249 242.257C111.271 236.575 111.29 231.435 111.304 227.651C111.329 225.821 111.349 224.321 111.364 223.225C111.378 222.736 111.39 222.338 111.399 222.021C111.411 221.746 111.424 221.602 111.437 221.602C111.45 221.602 111.463 221.746 111.475 222.021C111.484 222.338 111.496 222.736 111.51 223.225C111.525 224.322 111.545 225.821 111.57 227.651C111.584 231.435 111.604 236.576 111.625 242.257C111.625 251.671 111.568 259.616 111.49 262.014H111.385C111.403 261.399 111.42 261.117 111.438 261.117Z" fill="#F5F5F5"/>
<path d="M117.134 261.117C117.152 261.117 117.17 261.399 117.186 262.014H117.081C117.002 259.616 116.945 251.672 116.945 242.257C116.966 236.575 116.986 231.435 117 227.651C117.025 225.821 117.045 224.321 117.06 223.225C117.074 222.736 117.086 222.338 117.095 222.021C117.107 221.746 117.12 221.602 117.133 221.602C117.146 221.602 117.159 221.746 117.171 222.021C117.18 222.338 117.192 222.736 117.206 223.225C117.221 224.322 117.241 225.821 117.266 227.651C117.28 231.435 117.3 236.576 117.321 242.257C117.321 251.671 117.264 259.616 117.186 262.014H117.081C117.099 261.399 117.116 261.117 117.134 261.117Z" fill="#F5F5F5"/>
<path d="M122.83 261.117C122.848 261.117 122.866 261.399 122.882 262.014H122.777C122.698 259.616 122.641 251.672 122.641 242.257C122.662 236.575 122.682 231.435 122.696 227.651C122.721 225.821 122.741 224.321 122.756 223.225C122.77 222.736 122.782 222.338 122.791 222.021C122.803 221.746 122.816 221.602 122.829 221.602C122.842 221.602 122.855 221.746 122.867 222.021C122.876 222.338 122.888 222.736 122.902 223.225C122.917 224.322 122.937 225.821 122.962 227.651C122.976 231.435 122.996 236.576 123.017 242.257C123.017 251.671 122.96 259.616 122.881 262.014H122.777C122.795 261.399 122.812 261.117 122.83 261.117Z" fill="#F5F5F5"/>
<path d="M128.526 261.117C128.544 261.117 128.562 261.399 128.578 262.014H128.473C128.394 259.616 128.337 251.672 128.337 242.257C128.358 236.575 128.378 231.435 128.392 227.651C128.417 225.821 128.437 224.321 128.452 223.225C128.466 222.736 128.478 222.338 128.487 222.021C128.499 221.746 128.512 221.602 128.525 221.602C128.538 221.602 128.551 221.746 128.563 222.021C128.572 222.338 128.584 222.736 128.598 223.225C128.613 224.322 128.633 225.821 128.658 227.651C128.672 231.435 128.692 236.576 128.713 242.257C128.713 251.671 128.656 259.616 128.577 262.014H128.472C128.49 261.399 128.507 261.117 128.526 261.117Z" fill="#F5F5F5"/>
<path d="M134.222 261.117C134.24 261.117 134.258 261.399 134.274 262.014H134.169C134.09 259.616 134.033 251.672 134.033 242.257C134.054 236.575 134.074 231.435 134.088 227.651C134.113 225.821 134.133 224.321 134.148 223.225C134.162 222.736 134.174 222.338 134.183 222.021C134.195 221.746 134.208 221.602 134.221 221.602C134.234 221.602 134.247 221.746 134.259 222.021C134.268 222.338 134.28 222.736 134.294 223.225C134.309 224.322 134.329 225.821 134.354 227.651C134.368 231.435 134.388 236.576 134.409 242.257C134.409 251.671 134.351 259.616 134.273 262.014H134.168C134.186 261.399 134.203 261.117 134.222 261.117Z" fill="#F5F5F5"/>
<path d="M139.917 261.117C139.935 261.117 139.953 261.399 139.969 262.014H139.864C139.785 259.616 139.728 251.672 139.728 242.257C139.749 236.575 139.769 231.435 139.783 227.651C139.808 225.821 139.828 224.321 139.843 223.225C139.857 222.736 139.869 222.338 139.878 222.021C139.89 221.746 139.903 221.602 139.916 221.602C139.929 221.602 139.942 221.746 139.954 222.021C139.963 222.338 139.975 222.736 139.989 223.225C140.004 224.322 140.024 225.821 140.049 227.651C140.063 231.435 140.083 236.576 140.104 242.257C140.104 251.671 140.047 259.616 139.969 262.014H139.864C139.883 261.399 139.899 261.117 139.917 261.117Z" fill="#F5F5F5"/>
<path d="M145.613 261.117C145.631 261.117 145.649 261.399 145.665 262.014H145.56C145.481 259.616 145.424 251.672 145.424 242.257C145.446 236.575 145.465 231.435 145.479 227.651C145.504 225.821 145.524 224.321 145.539 223.225C145.553 222.736 145.565 222.338 145.574 222.021C145.586 221.746 145.599 221.602 145.612 221.602C145.625 221.602 145.638 221.746 145.65 222.021C145.659 222.338 145.671 222.736 145.685 223.225C145.7 224.322 145.72 225.821 145.745 227.651C145.759 231.435 145.779 236.576 145.8 242.257C145.8 251.671 145.743 259.616 145.665 262.014H145.56C145.579 261.399 145.595 261.117 145.613 261.117Z" fill="#F5F5F5"/>
<path d="M151.309 261.117C151.327 261.117 151.345 261.399 151.361 262.014H151.256C151.177 259.616 151.12 251.672 151.12 242.257C151.141 236.575 151.161 231.435 151.175 227.651C151.2 225.821 151.22 224.321 151.235 223.225C151.249 222.736 151.261 222.338 151.27 222.021C151.282 221.746 151.295 221.602 151.308 221.602C151.321 221.602 151.334 221.746 151.346 222.021C151.355 222.338 151.367 222.736 151.381 223.225C151.396 224.322 151.416 225.821 151.441 227.651C151.455 231.435 151.475 236.576 151.496 242.257C151.496 251.671 151.439 259.616 151.361 262.014H151.256C151.274 261.399 151.291 261.117 151.309 261.117Z" fill="#F5F5F5"/>
<path d="M157.005 261.117C157.023 261.117 157.041 261.399 157.057 262.014H156.952C156.873 259.616 156.816 251.672 156.816 242.257C156.837 236.575 156.857 231.435 156.871 227.651C156.896 225.821 156.916 224.321 156.931 223.225C156.945 222.736 156.957 222.338 156.966 222.021C156.978 221.746 156.991 221.602 157.004 221.602C157.017 221.602 157.03 221.746 157.042 222.021C157.051 222.338 157.063 222.736 157.077 223.225C157.092 224.322 157.112 225.821 157.137 227.651C157.151 231.435 157.171 236.576 157.192 242.257C157.192 251.671 157.135 259.616 157.056 262.014H156.952C156.97 261.399 156.987 261.117 157.005 261.117Z" fill="#F5F5F5"/>
<path d="M162.701 261.117C162.719 261.117 162.737 261.399 162.753 262.014H162.648C162.569 259.616 162.512 251.672 162.512 242.257C162.533 236.575 162.553 231.435 162.567 227.651C162.592 225.821 162.612 224.321 162.627 223.225C162.641 222.736 162.653 222.338 162.662 222.021C162.674 221.746 162.687 221.602 162.7 221.602C162.713 221.602 162.726 221.746 162.738 222.021C162.747 222.338 162.759 222.736 162.773 223.225C162.788 224.322 162.808 225.821 162.833 227.651C162.847 231.435 162.867 236.576 162.888 242.257C162.888 251.671 162.831 259.616 162.752 262.014H162.648C162.666 261.399 162.683 261.117 162.701 261.117Z" fill="#F5F5F5"/>
<path d="M257.54 318.961H58.0439V410.966H257.54V318.961Z" fill="#F5F5F5"/>
<path d="M252.792 406.633H62.6099V323.805H252.791V406.633H252.792ZM63.8509 405.392H251.551V325.046H63.8509V405.392Z" fill="#E0E0E0"/>
<path d="M306.276 318.961H257.54V410.966H306.276V318.961Z" fill="#E0E0E0"/>
<path d="M63.231 349.438C84.603 349.438 105.975 349.438 127.347 349.438C161.114 349.438 194.88 349.438 228.647 349.438C236.488 349.438 244.33 349.438 252.172 349.438C252.494 349.438 252.495 348.938 252.172 348.938C230.8 348.938 209.429 348.938 188.057 348.938C154.29 348.938 120.524 348.938 86.757 348.938C78.915 348.938 71.074 348.938 63.232 348.938C62.909 348.939 62.908 349.438 63.231 349.438Z" fill="#E0E0E0"/>
<path d="M158.318 349.183C158.884 341.016 158.823 332.366 158.382 324.191C158.364 323.864 157.891 323.863 157.873 324.191C157.432 332.366 157.371 341.015 157.938 349.183C157.956 349.427 158.301 349.427 158.318 349.183Z" fill="#E0E0E0"/>
<path d="M209.175 336.691C209.175 338.113 208.023 339.265 206.601 339.265C205.179 339.265 204.027 338.112 204.027 336.691C204.027 335.27 205.179 334.117 206.601 334.117C208.022 334.117 209.175 335.27 209.175 336.691Z" fill="#E0E0E0"/>
<path d="M110.018 336.691C110.018 338.113 108.866 339.265 107.444 339.265C106.022 339.265 104.87 338.112 104.87 336.691C104.87 335.27 106.022 334.117 107.444 334.117C108.866 334.117 110.018 335.27 110.018 336.691Z" fill="#E0E0E0"/>
<path d="M160.275 365.215C160.275 366.637 159.123 367.789 157.701 367.789C156.279 367.789 155.127 366.637 155.127 365.215C155.127 363.793 156.279 362.641 157.701 362.641C159.123 362.641 160.275 363.793 160.275 365.215Z" fill="#E0E0E0"/>
<path d="M81.896 410.969L72.2729 466.533H78.0509L96.3389 410.969H81.896Z" fill="#E0E0E0"/>
<path d="M243.426 410.969L252.015 466.533H246.238L228.982 410.969H243.426Z" fill="#E0E0E0"/>
<path d="M281.992 410.969L292.206 466.533H286.428L267.548 410.969H281.992Z" fill="#E0E0E0"/>
<path d="M160.102 391.254C160.102 392.675 158.95 393.828 157.528 393.828C156.106 393.828 154.954 392.676 154.954 391.254C154.954 389.832 156.106 388.68 157.528 388.68C158.95 388.68 160.102 389.832 160.102 391.254Z" fill="#E0E0E0"/>
<path d="M63.231 377.923C84.603 377.923 105.975 377.923 127.347 377.923C161.114 377.923 194.88 377.923 228.647 377.923C236.488 377.923 244.33 377.923 252.172 377.923C252.494 377.923 252.495 377.422 252.172 377.422C230.8 377.422 209.429 377.422 188.057 377.422C154.29 377.422 120.524 377.422 86.757 377.422C78.915 377.422 71.074 377.422 63.232 377.422C62.909 377.422 62.908 377.923 63.231 377.923Z" fill="#E0E0E0"/>
<path d="M466.884 175.664H418.231V188.535H466.884V175.664Z" fill="#F5F5F5"/>
<path d="M446.311 202.088C446.306 202.083 446.301 202.004 446.296 201.854C446.292 201.682 446.287 201.465 446.28 201.194C446.271 200.588 446.259 199.744 446.244 198.661C446.224 196.439 446.196 193.245 446.161 189.217L446.312 189.368C435.203 189.39 417.536 189.425 397.662 189.465C397.772 189.355 397.412 189.712 397.907 189.217V189.22V189.227V189.24V189.266V189.318V189.422V189.629V190.043V190.868C397.907 191.417 397.907 191.964 397.907 192.51C397.907 193.601 397.906 194.684 397.906 195.758C397.905 197.906 397.903 200.019 397.902 202.089L397.66 201.847C411.514 201.891 423.637 201.93 432.331 201.957C436.662 201.986 440.137 202.01 442.565 202.026C443.746 202.04 444.67 202.05 445.332 202.058C445.63 202.065 445.868 202.07 446.056 202.074C446.219 202.077 446.305 202.082 446.311 202.088C446.316 202.093 446.24 202.098 446.086 202.104C445.906 202.108 445.678 202.113 445.392 202.119C444.743 202.127 443.836 202.137 442.677 202.151C440.263 202.167 436.806 202.191 432.499 202.22C423.762 202.248 411.58 202.286 397.659 202.33L397.417 202.331V202.088C397.416 200.018 397.414 197.905 397.413 195.757C397.413 194.683 397.412 193.6 397.412 192.509C397.412 191.964 397.412 191.416 397.412 190.867V190.042V189.628V189.421V189.317V189.265V189.239V189.226V189.219V189.216C397.908 188.72 397.551 189.079 397.663 188.968C417.537 189.008 435.204 189.043 446.313 189.065H446.465L446.464 189.216C446.428 193.282 446.4 196.506 446.381 198.75C446.365 199.818 446.353 200.652 446.344 201.249C446.338 201.509 446.332 201.717 446.328 201.883C446.321 202.024 446.316 202.093 446.311 202.088Z" fill="#E0E0E0"/>
<path d="M370.205 314.931C370.2 314.926 370.195 314.847 370.19 314.697C370.186 314.525 370.181 314.308 370.174 314.037C370.165 313.431 370.153 312.587 370.138 311.504C370.118 309.282 370.09 306.088 370.055 302.06L370.206 302.211C359.097 302.233 341.43 302.268 321.556 302.308C321.666 302.198 321.306 302.555 321.801 302.061V302.064V302.071V302.084V302.11V302.162V302.266V302.473V302.887V303.712C321.801 304.261 321.801 304.808 321.801 305.354C321.801 306.445 321.8 307.528 321.8 308.602C321.799 310.75 321.797 312.863 321.796 314.933L321.554 314.691C335.408 314.735 347.531 314.774 356.225 314.801C360.556 314.83 364.031 314.854 366.459 314.87C367.64 314.884 368.564 314.894 369.226 314.902C369.524 314.909 369.762 314.914 369.95 314.918C370.113 314.92 370.2 314.925 370.205 314.931C370.21 314.936 370.134 314.941 369.98 314.947C369.8 314.951 369.572 314.956 369.286 314.963C368.637 314.971 367.729 314.981 366.571 314.995C364.157 315.011 360.7 315.035 356.393 315.064C347.656 315.092 335.474 315.13 321.553 315.174L321.311 315.175V314.932C321.31 312.862 321.308 310.749 321.307 308.601C321.307 307.527 321.306 306.444 321.306 305.353C321.306 304.808 321.306 304.26 321.306 303.711V302.886V302.472V302.265V302.161V302.109V302.083V302.07V302.063V302.06C321.802 301.564 321.445 301.922 321.557 301.812C341.431 301.852 359.098 301.887 370.207 301.909H370.359L370.358 302.06C370.322 306.126 370.294 309.35 370.275 311.594C370.259 312.662 370.247 313.496 370.238 314.093C370.232 314.353 370.226 314.561 370.222 314.727C370.215 314.867 370.21 314.936 370.205 314.931Z" fill="#E0E0E0"/>
<path d="M102.372 180.805H53.719V193.676H102.372V180.805Z" fill="#F5F5F5"/>
<path d="M81.7989 207.236C81.7939 207.231 81.7889 207.152 81.7839 207.002C81.7799 206.83 81.7749 206.613 81.7679 206.342C81.7589 205.736 81.7469 204.892 81.7309 203.809C81.7109 201.587 81.6829 198.393 81.6479 194.365L81.7989 194.516C70.6899 194.538 53.0229 194.574 33.1489 194.613C33.2589 194.503 32.8989 194.86 33.3939 194.366V194.369V194.376V194.389V194.415V194.467V194.571V194.778V195.192V196.017C33.3939 196.566 33.3939 197.113 33.3939 197.659C33.3939 198.75 33.3929 199.833 33.3929 200.907C33.3919 203.055 33.3899 205.168 33.3889 207.238L33.1469 206.996C47.0009 207.04 59.1239 207.078 67.8179 207.106C72.1489 207.135 75.6239 207.159 78.0519 207.175C79.2329 207.189 80.1569 207.199 80.8189 207.207C81.1169 207.214 81.3549 207.219 81.5429 207.223C81.7069 207.226 81.7939 207.231 81.7989 207.236C81.8039 207.241 81.7279 207.246 81.5739 207.252C81.3939 207.256 81.1659 207.261 80.8799 207.268C80.2309 207.276 79.3239 207.286 78.1649 207.3C75.7509 207.316 72.2939 207.34 67.9869 207.369C59.2499 207.397 47.0679 207.435 33.1469 207.479L32.9049 207.48V207.237C32.9039 205.167 32.9019 203.054 32.9009 200.906C32.9009 199.832 32.8999 198.749 32.8999 197.658C32.8999 197.113 32.8999 196.565 32.8999 196.016V195.191V194.777V194.57V194.466V194.414V194.388V194.375V194.368V194.365C33.3959 193.869 33.0389 194.228 33.1509 194.117C53.0249 194.157 70.6919 194.192 81.8009 194.214H81.9529L81.9519 194.365C81.9159 198.431 81.8879 201.655 81.8689 203.898C81.8529 204.966 81.8409 205.8 81.8319 206.397C81.8259 206.657 81.8199 206.865 81.8159 207.031C81.8089 207.172 81.8039 207.241 81.7989 207.236Z" fill="#E0E0E0"/>
<path d="M265.399 50.4548C265.394 50.4498 265.389 50.3708 265.384 50.2208C265.38 50.0488 265.375 49.8318 265.368 49.5608C265.359 48.9548 265.347 48.1108 265.331 47.0278C265.311 44.8058 265.283 41.6118 265.248 37.5838L265.399 37.7348C254.29 37.7568 236.623 37.7918 216.749 37.8318C216.859 37.7218 216.499 38.0788 216.994 37.5838V37.5868V37.5938V37.6068V37.6328V37.6848V37.7888V37.9958V38.4098V39.2348C216.994 39.7838 216.994 40.3318 216.994 40.8768C216.994 41.9678 216.993 43.0508 216.993 44.1248C216.992 46.2728 216.99 48.3858 216.989 50.4558L216.747 50.2138C230.601 50.2578 242.724 50.2968 251.418 50.3238C255.749 50.3528 259.224 50.3768 261.652 50.3928C262.833 50.4068 263.757 50.4168 264.419 50.4248C264.717 50.4308 264.955 50.4368 265.143 50.4408C265.307 50.4438 265.394 50.4488 265.399 50.4548C265.404 50.4598 265.328 50.4658 265.174 50.4708C264.994 50.4748 264.766 50.4798 264.48 50.4868C263.831 50.4948 262.924 50.5048 261.765 50.5188C259.351 50.5348 255.894 50.5588 251.587 50.5878C242.85 50.6158 230.668 50.6538 216.747 50.6978L216.505 50.6988V50.4558C216.504 48.3858 216.502 46.2728 216.501 44.1248C216.501 43.0508 216.5 41.9678 216.5 40.8768C216.5 40.3318 216.5 39.7838 216.5 39.2348V38.4098V37.9958V37.7888V37.6848V37.6328V37.6068V37.5938V37.5868V37.5838C216.996 37.0878 216.639 37.4458 216.751 37.3358C236.625 37.3758 254.292 37.4108 265.401 37.4328H265.553L265.552 37.5838C265.516 41.6498 265.488 44.8748 265.469 47.1178C265.453 48.1858 265.441 49.0198 265.432 49.6168C265.425 49.8768 265.42 50.0848 265.416 50.2508C265.409 50.3908 265.404 50.4598 265.399 50.4548Z" fill="#E0E0E0"/>
<path d="M271.996 37.5814C271.99 37.5754 271.984 37.4924 271.977 37.3364C271.972 37.1514 271.965 36.9274 271.958 36.6544C271.947 36.0214 271.932 35.1604 271.914 34.0734C271.891 31.8164 271.858 28.6294 271.818 24.7104L271.996 24.8884C264.423 24.9064 254.121 24.9314 242.766 24.9584C242.543 25.1794 243.065 24.6564 243.012 24.7114V24.7144V24.7214V24.7344V24.7614V24.8144V24.9204V25.1324V25.5544V26.3954C243.012 26.9544 243.012 27.5114 243.011 28.0644C243.01 29.1704 243.01 30.2634 243.009 31.3404C243.006 33.4934 243.003 35.5814 243 37.5814L242.764 37.3454C251.203 37.3904 258.468 37.4294 263.675 37.4574C266.243 37.4854 268.301 37.5064 269.766 37.5224C270.45 37.5344 270.995 37.5444 271.409 37.5524C271.785 37.5614 271.986 37.5714 271.996 37.5814C272.006 37.5914 271.824 37.6004 271.465 37.6104C271.064 37.6174 270.535 37.6274 269.871 37.6404C268.419 37.6564 266.379 37.6784 263.834 37.7054C258.587 37.7334 251.267 37.7724 242.764 37.8174L242.528 37.8184V37.5814C242.525 35.5814 242.522 33.4934 242.519 31.3404C242.518 30.2634 242.518 29.1704 242.517 28.0644C242.517 27.5114 242.517 26.9544 242.516 26.3954V25.5544V25.1324V24.9194V24.8134V24.7604V24.7334V24.7204V24.7134V24.7104C242.462 24.7624 242.986 24.2394 242.766 24.4614C254.121 24.4884 264.423 24.5134 271.996 24.5314H272.176L272.174 24.7094C272.134 28.6744 272.101 31.8984 272.078 34.1814C272.059 35.2514 272.044 36.0984 272.034 36.7224C272.02 37.2984 272.008 37.5934 271.996 37.5814Z" fill="#E0E0E0"/>
<path d="M450.923 466.533C450.923 466.677 360.96 466.793 250.01 466.793C139.022 466.793 49.0779 466.677 49.0779 466.533C49.0779 466.389 139.022 466.273 250.01 466.273C360.959 466.272 450.923 466.389 450.923 466.533Z" fill="#343C44"/>
<path d="M201.036 111.704L197.08 103.645C198.858 98.7997 199.362 93.4197 198.259 87.9907C195.088 72.3797 179.863 62.2947 164.252 65.4657C148.641 68.6367 138.556 83.8617 141.726 99.4727C144.897 115.084 160.122 125.169 175.734 121.998C182.252 120.674 187.802 117.244 191.83 112.565L191.823 112.58L201.036 111.704Z" fill="white"/>
<path d="M201.036 111.702C201.036 111.702 200.851 111.73 200.463 111.773C200.053 111.817 199.473 111.88 198.718 111.962C197.138 112.127 194.83 112.367 191.833 112.679C191.778 112.685 191.729 112.645 191.723 112.59C191.721 112.571 191.725 112.551 191.733 112.535L191.74 112.52L191.907 112.63C189.498 115.447 185.726 118.753 180.312 120.832C178.967 121.353 177.525 121.784 176.005 122.108C174.473 122.357 172.888 122.675 171.224 122.695C167.913 122.849 164.353 122.438 160.833 121.268C157.316 120.105 153.847 118.186 150.81 115.514C147.772 112.851 145.174 109.43 143.411 105.469C141.623 101.519 140.783 97.0096 140.974 92.4486C141.173 87.8896 142.431 83.2396 144.873 79.1466L145.796 77.6116L146.851 76.1736L147.377 75.4576L147.964 74.7936L149.14 73.4756C149.546 73.0526 149.994 72.6716 150.418 72.2696C150.855 71.8816 151.255 71.4526 151.734 71.1216C152.666 70.4276 153.554 69.6806 154.562 69.1196C158.46 66.6796 162.831 65.2386 167.164 64.7996C171.506 64.3896 175.784 64.9836 179.61 66.3426C183.442 67.6966 186.822 69.8016 189.562 72.3136C192.31 74.8256 194.416 77.7386 195.902 80.7126C196.684 82.1866 197.199 83.7196 197.714 85.1886C198.088 86.6996 198.515 88.1446 198.69 89.5806C199.508 95.3266 198.466 100.228 197.175 103.68L197.171 103.602C198.434 106.235 199.408 108.265 200.075 109.656C200.391 110.321 200.634 110.832 200.806 111.194C200.965 111.534 201.036 111.702 201.036 111.702C201.036 111.702 200.934 111.517 200.756 111.169C200.572 110.806 200.312 110.293 199.973 109.625C199.288 108.261 198.287 106.27 196.99 103.687C196.978 103.662 196.977 103.633 196.986 103.609C198.232 100.167 199.224 95.3026 198.382 89.6226C198.201 88.2026 197.77 86.7756 197.394 85.2836C196.877 83.8346 196.362 82.3216 195.583 80.8696C194.102 77.9386 192.013 75.0716 189.294 72.6026C186.583 70.1336 183.246 68.0686 179.466 66.7426C175.694 65.4126 171.48 64.8366 167.207 65.2456C162.941 65.6846 158.64 67.1076 154.808 69.5116C153.817 70.0636 152.945 70.8006 152.027 71.4826C151.555 71.8086 151.162 72.2316 150.732 72.6136C150.316 73.0096 149.874 73.3836 149.475 73.8006L148.318 75.0976L147.74 75.7506L147.223 76.4556L146.185 77.8706L145.277 79.3816C142.874 83.4086 141.635 87.9826 141.436 92.4676C141.245 96.9546 142.065 101.396 143.82 105.286C145.55 109.188 148.102 112.561 151.089 115.192C154.076 117.831 157.49 119.733 160.955 120.891C164.423 122.056 167.935 122.475 171.205 122.337C172.849 122.325 174.416 122.017 175.932 121.779C177.436 121.466 178.864 121.048 180.198 120.54C185.565 118.515 189.328 115.269 191.751 112.497C191.787 112.455 191.85 112.45 191.893 112.486C191.928 112.516 191.937 112.567 191.918 112.607L191.911 112.621L191.811 112.477C194.783 112.221 197.072 112.024 198.639 111.889C199.408 111.826 199.998 111.777 200.416 111.742C200.82 111.712 201.036 111.702 201.036 111.702Z" fill="#343C44"/>
<path d="M156.651 95.6205L160.384 91.8875L167.583 98.2865L181.716 84.6875L185.182 88.4205L167.05 105.487L156.651 95.6205Z" fill="#3D5EE1"/>
<path d="M183.357 429.329L165.975 445.805C165.975 445.805 183.142 465.391 180.928 469.448L139.097 445.305L164.993 416.203L183.357 429.329Z" fill="#5D6369"/>
<g opacity="0.6">
<path d="M154.444 436.09C153.517 435.809 152.411 436.355 152.092 437.27C151.774 438.185 152.319 439.315 153.242 439.612C154.164 439.909 155.512 439.294 155.726 438.349C155.94 437.404 155.227 436.113 154.261 436.046" fill="white"/>
</g>
<g opacity="0.6">
<path d="M139.096 445.309L141.735 442.344L180.74 466.706C180.74 466.706 181.739 468.069 180.963 469.879L139.096 445.309Z" fill="white"/>
</g>
<path d="M166.769 446.012C166.637 446.207 165.581 445.671 164.196 445.696C162.809 445.684 161.76 446.231 161.626 446.037C161.466 445.882 162.514 444.876 164.192 444.875C165.87 444.859 166.927 445.856 166.769 446.012Z" fill="#343C44"/>
<path d="M169.943 450.483C169.867 450.705 168.789 450.501 167.58 450.92C166.359 451.303 165.614 452.109 165.421 451.975C165.214 451.888 165.81 450.632 167.323 450.14C168.831 449.636 170.058 450.29 169.943 450.483Z" fill="#343C44"/>
<path d="M169.154 457.143C168.946 457.072 169.295 455.899 170.495 455.128C171.689 454.348 172.902 454.508 172.882 454.727C172.892 454.962 171.917 455.168 170.942 455.816C169.951 456.442 169.365 457.247 169.154 457.143Z" fill="#343C44"/>
<path d="M169.436 440.968C169.238 441.098 168.495 440.247 167.318 439.614C166.154 438.958 165.038 438.785 165.042 438.548C165.017 438.331 166.339 438.131 167.714 438.895C169.095 439.648 169.633 440.873 169.436 440.968Z" fill="#343C44"/>
<path d="M172.182 436.76C172.133 436.844 171.266 436.471 170.141 435.463C169.582 434.96 168.971 434.29 168.412 433.458C168.133 433.042 167.867 432.587 167.628 432.095C167.515 431.855 167.369 431.593 167.312 431.225C167.222 430.878 167.429 430.269 167.888 430.105C168.295 429.923 168.751 430.02 169.05 430.198C169.358 430.377 169.564 430.592 169.752 430.787C170.138 431.183 170.47 431.603 170.751 432.024C171.309 432.87 171.661 433.719 171.861 434.45C172.258 435.925 172.113 436.874 172.021 436.87C171.889 436.879 171.82 435.964 171.31 434.632C171.055 433.969 170.675 433.209 170.13 432.455C169.856 432.08 169.541 431.707 169.182 431.354C168.82 430.968 168.454 430.733 168.222 430.856C168.136 430.904 168.112 430.93 168.123 431.114C168.143 431.29 168.247 431.514 168.357 431.751C168.57 432.214 168.806 432.648 169.05 433.049C169.541 433.851 170.071 434.521 170.553 435.052C171.517 436.114 172.253 436.654 172.182 436.76Z" fill="#343C44"/>
<path d="M171.742 436.886C171.652 436.872 171.705 435.908 172.444 434.569C172.813 433.906 173.368 433.171 174.132 432.502C174.516 432.17 174.951 431.857 175.435 431.586C175.928 431.333 176.56 430.975 177.391 431.373C177.805 431.612 177.943 432.139 177.888 432.481C177.849 432.843 177.727 433.097 177.626 433.364C177.401 433.889 177.098 434.352 176.761 434.744C176.086 435.533 175.274 436.034 174.557 436.31C173.092 436.868 172.109 436.583 172.134 436.505C172.13 436.363 173.069 436.415 174.32 435.78C174.937 435.467 175.621 434.974 176.177 434.263C176.455 433.91 176.702 433.504 176.883 433.056C177.092 432.581 177.149 432.128 176.959 432.071C176.758 431.94 176.206 432.05 175.821 432.292C175.381 432.527 174.978 432.797 174.616 433.083C173.896 433.661 173.339 434.298 172.935 434.877C172.126 436.043 171.87 436.924 171.742 436.886Z" fill="#343C44"/>
<path d="M314.179 430.742L318.324 453.101C318.324 453.101 343.079 461.196 343.242 465.815L296.132 466.375L292.654 430.742H314.179Z" fill="#5D6369"/>
<g opacity="0.6">
<path d="M300.027 452.415C299.086 452.646 298.413 453.68 298.605 454.63C298.798 455.58 299.843 456.273 300.788 456.058C301.732 455.843 302.579 454.627 302.281 453.705C301.984 452.783 300.712 452.036 299.846 452.471" fill="white"/>
</g>
<g opacity="0.6">
<path d="M296.132 466.377L295.39 462.953L341.681 463.55C341.681 463.55 343.236 464.213 343.49 466.166L296.132 466.377Z" fill="white"/>
</g>
<path d="M319.113 452.871C319.099 453.107 317.917 453.183 316.738 453.911C315.539 454.608 314.915 455.614 314.701 455.515C314.485 455.463 314.873 454.063 316.316 453.207C317.752 452.338 319.17 452.656 319.113 452.871Z" fill="#343C44"/>
<path d="M324.122 455.102C324.17 455.332 323.139 455.706 322.312 456.683C321.457 457.635 321.227 458.708 320.993 458.691C320.771 458.722 320.643 457.337 321.694 456.143C322.734 454.94 324.123 454.878 324.122 455.102Z" fill="#343C44"/>
<path d="M326.841 461.232C326.626 461.277 326.328 460.09 326.967 458.815C327.597 457.535 328.722 457.055 328.816 457.254C328.944 457.451 328.211 458.125 327.702 459.181C327.169 460.223 327.076 461.215 326.841 461.232Z" fill="#343C44"/>
<path d="M317.153 447.666C317.049 447.878 315.976 447.525 314.641 447.581C313.306 447.61 312.257 448.03 312.14 447.825C312.008 447.651 313.043 446.805 314.616 446.761C316.187 446.705 317.274 447.484 317.153 447.666Z" fill="#343C44"/>
<path d="M205.444 268.219C204.662 268.747 202.883 295.579 205.444 301.463L198.928 349.808C198.928 349.808 181.451 377.563 177.932 381.602C174.414 385.641 151.593 425.039 151.593 425.039L177.357 447.263C177.357 447.263 222.138 388.756 229.336 378.372C240.63 362.08 253.961 301.006 253.961 301.006L255.697 270.691L205.444 268.219Z" fill="#343C44"/>
<path d="M240.63 306.897C241.412 308.33 276.278 361.924 276.278 361.924C276.278 361.924 281.568 390.313 282.741 402.834C283.914 415.355 292.486 447.552 292.486 447.552L320.545 445.349C320.545 445.349 312.956 362.453 308.265 346.297C303.574 330.141 290.523 298.923 290.523 298.923L279.51 269.711L247.802 270.305L240.63 306.897Z" fill="#343C44"/>
<path d="M260.478 278.484C260.495 278.489 260.435 278.787 260.303 279.35C260.155 279.956 259.954 280.776 259.702 281.808C259.147 283.985 258.365 287.054 257.404 290.826C255.442 298.435 252.724 308.946 249.56 320.513C246.392 332.083 243.311 342.498 240.961 349.999C239.785 353.749 238.812 356.777 238.112 358.86C237.771 359.867 237.499 360.666 237.299 361.257C237.108 361.803 236.999 362.087 236.982 362.082C236.965 362.077 237.04 361.782 237.199 361.225C237.376 360.627 237.616 359.818 237.919 358.799C238.568 356.649 239.484 353.618 240.609 349.892C242.868 342.367 245.891 331.942 249.058 320.376C252.173 308.821 254.992 298.361 257.049 290.733C258.077 286.978 258.913 283.924 259.507 281.756C259.799 280.734 260.031 279.923 260.203 279.323C260.366 278.769 260.46 278.48 260.478 278.484Z" fill="#5D6369"/>
<path d="M346.642 152.005C346.642 152.005 349.588 149.679 350.543 149.752C351.497 149.826 357.426 150.681 357.426 150.681C357.426 150.681 357.805 153.175 356.1 153.997C354.396 154.819 351.874 154.885 351.874 154.885L350.461 155.879L346.642 152.005Z" fill="#FFCAAE"/>
<path d="M269.244 160.202L315.695 196.677L338.655 175.037L339.288 170.829C339.468 169.632 339.796 168.463 340.265 167.348L346.204 153.234L360.094 175.759C360.094 175.759 325.948 220.348 319.965 221.908C312.082 223.964 272.811 197.379 272.811 197.379L269.244 160.202Z" fill="#FFCAAE"/>
<path d="M345.977 165.668C346.045 165.562 348.089 167.645 348.978 171.022C349.904 174.391 349.18 177.217 349.068 177.16C348.9 177.149 349.369 174.391 348.475 171.157C347.626 167.912 345.837 165.761 345.977 165.668Z" fill="#FF9A6C"/>
<path d="M239.177 94.6638L238.271 142.266C237.952 150.392 237.522 162.423 250.393 162.341C261.555 161.428 264.789 150.971 265.079 143.388C265.216 139.791 265.338 136.791 265.377 136.423C265.377 136.423 277.586 135.756 278.937 123.75C279.59 117.949 279.961 105.889 280.17 94.9758C280.395 83.2548 271.567 73.3318 259.903 72.1658L258.743 72.0498C246.163 71.5288 239.349 82.0748 239.177 94.6638Z" fill="#FFCAAE"/>
<path d="M265.408 136.426C265.408 136.426 257.787 136.113 250.22 130.234C250.22 130.234 253.16 139.396 265.262 139.512L265.408 136.426Z" fill="#FF935C"/>
<path d="M259.993 101.087C259.725 101.15 258.555 100.205 256.618 99.6461C254.688 99.0731 253.076 99.2051 252.912 99.0151C252.829 98.9281 253.137 98.7621 253.842 98.6961C254.537 98.6281 255.66 98.6911 256.865 99.0431C258.07 99.3961 258.999 99.9321 259.495 100.349C260.003 100.771 260.123 101.061 259.993 101.087Z" fill="#343C44"/>
<path d="M257.618 103.463C257.562 104.323 256.788 104.986 255.888 104.945C254.99 104.904 254.306 104.174 254.361 103.313C254.416 102.453 255.191 101.789 256.089 101.83C256.989 101.871 257.673 102.602 257.618 103.463Z" fill="#343C44"/>
<path d="M264.459 113.529C264.461 113.423 265.629 113.34 267.513 113.288C267.99 113.286 268.445 113.237 268.557 112.924C268.702 112.594 268.556 112.066 268.382 111.494C268.053 110.308 267.708 109.065 267.346 107.763C265.92 102.456 264.938 98.1112 265.153 98.0552C265.367 98.0002 266.697 102.256 268.123 107.564C268.463 108.872 268.789 110.118 269.098 111.311C269.223 111.865 269.469 112.504 269.157 113.187C268.995 113.527 268.623 113.748 268.313 113.799C268.001 113.861 267.735 113.84 267.501 113.83C265.617 113.742 264.455 113.635 264.459 113.529Z" fill="#343C44"/>
<path d="M259.129 91.7648C258.922 92.2068 257.317 91.8268 255.382 91.8748C253.446 91.8818 251.847 92.3058 251.634 91.8698C251.541 91.6618 251.852 91.2578 252.52 90.8768C253.182 90.4958 254.21 90.1738 255.371 90.1568C256.531 90.1418 257.563 90.4358 258.23 90.7978C258.903 91.1588 259.22 91.5538 259.129 91.7648Z" fill="#343C44"/>
<path d="M278.176 96.0096C277.955 96.3686 276.393 95.9216 274.488 95.8116C272.584 95.6676 270.994 95.9036 270.803 95.5166C270.72 95.3326 271.043 95.0146 271.715 94.7426C272.382 94.4706 273.405 94.2766 274.547 94.3526C275.689 94.4306 276.691 94.7596 277.332 95.1186C277.978 95.4776 278.274 95.8376 278.176 96.0096Z" fill="#343C44"/>
<path d="M239.268 103.83C239.059 103.721 230.768 100.62 230.407 109.286C230.046 117.952 238.821 116.527 238.846 116.279C238.872 116.03 239.268 103.83 239.268 103.83Z" fill="#FFCAAE"/>
<path d="M236.336 112.884C236.299 112.855 236.18 112.983 235.921 113.09C235.667 113.193 235.236 113.254 234.791 113.066C233.89 112.692 233.179 111.206 233.202 109.643C233.213 108.854 233.41 108.109 233.715 107.499C234.006 106.876 234.434 106.45 234.899 106.388C235.362 106.301 235.677 106.59 235.773 106.839C235.879 107.086 235.817 107.257 235.862 107.274C235.885 107.297 236.054 107.137 235.999 106.776C235.971 106.602 235.877 106.394 235.681 106.219C235.48 106.041 235.178 105.942 234.855 105.964C234.185 105.982 233.557 106.572 233.222 107.242C232.85 107.913 232.61 108.749 232.598 109.636C232.581 111.385 233.407 113.056 234.644 113.47C235.247 113.655 235.763 113.492 236.034 113.298C236.312 113.093 236.365 112.901 236.336 112.884Z" fill="#FF935C"/>
<path d="M264.615 119.271C264.651 119.047 262.963 118.978 261.486 117.789C260.75 117.206 260.231 116.498 259.845 115.983C259.463 115.462 259.193 115.143 259.114 115.192C259.039 115.238 259.16 115.626 259.45 116.225C259.743 116.815 260.244 117.639 261.078 118.302C261.904 118.975 262.855 119.261 263.521 119.344C264.195 119.435 264.612 119.345 264.615 119.271Z" fill="#343C44"/>
<path d="M277.797 100.127C277.599 100.314 276.117 100.14 274.171 100.669C272.224 101.182 270.907 102.104 270.669 102.033C270.554 102.004 270.735 101.715 271.307 101.304C271.87 100.897 272.866 100.38 274.079 100.056C275.292 99.7318 276.36 99.6958 276.997 99.7828C277.646 99.8668 277.896 100.041 277.797 100.127Z" fill="#343C44"/>
<path d="M275.199 104.368C275.144 105.228 274.369 105.891 273.47 105.85C272.572 105.809 271.888 105.079 271.943 104.219C271.998 103.359 272.773 102.695 273.671 102.736C274.57 102.777 275.255 103.508 275.199 104.368Z" fill="#343C44"/>
<path d="M296.757 84.6131C296.639 84.1251 296.297 83.7171 295.872 83.4501C294.945 82.8691 293.857 82.9131 292.809 82.8691C290.2 82.7571 287.629 82.0201 285.334 80.7771C286.156 80.3881 286.928 79.9081 287.588 79.2831C288.953 77.9921 289.771 75.9821 289.21 74.1901C289.105 73.8541 288.92 73.4991 288.586 73.3861C288.056 73.2081 287.575 73.7201 287.191 74.1261C285.93 75.4621 284.782 76.0191 282.96 75.7861C281.828 75.6411 280.736 75.3571 279.858 74.7781C279.823 74.7401 279.793 74.6981 279.758 74.6601C279.342 74.2071 278.936 73.7751 278.535 73.3561C278.534 73.3541 278.532 73.3521 278.532 73.3521L278.533 73.3551C275.521 70.2031 272.917 68.0061 270.207 66.8301C266.235 65.1061 259.537 64.2711 255.321 65.2571C251.105 66.2431 247.254 69.5401 246.557 73.8131C244.262 71.7651 240.737 71.6871 237.846 72.7611L237.775 72.7281C234.56 73.7781 232.66 77.0941 231.634 80.3171C231.578 80.4931 231.528 80.6721 231.475 80.8491C230.353 82.5271 228.85 83.9501 227.077 84.9201C226.764 85.0911 226.406 85.3011 226.359 85.6541C226.312 86.0041 226.601 86.3031 226.883 86.5161C227.632 87.0831 228.512 87.4661 229.432 87.6561C229.12 88.4201 228.758 89.1611 228.316 89.8661C227.94 90.4651 227.493 91.1831 227.79 91.8251C228.02 92.3211 228.637 92.5401 229.18 92.4751C229.723 92.4101 230.211 92.1241 230.68 91.8441C230.302 92.6851 229.924 93.5261 229.546 94.3671C230.693 94.5991 231.888 94.5381 233.017 94.2291C233.612 97.2841 234.273 101.18 235.001 103.26C236.332 103.292 237.601 103.014 238.402 103.774C239.491 104.807 239.939 106.707 241.812 106.04C242.765 105.701 243.679 103.744 244.02 102.792C246.286 96.4701 247.164 89.6581 246.586 82.9671C247.943 81.5961 249.565 80.4901 251.337 79.7281L251.191 79.8521C254.585 78.7741 258.42 77.7271 261.568 79.3911C264.01 80.6821 265.396 83.2891 267.192 85.3881C270.595 89.3661 274.799 91.5671 280.021 91.9321C280.395 95.5761 279.883 100.171 279.97 103.564L283.248 98.1841L283.25 98.2111C283.494 97.8201 283.698 97.4251 283.895 97.0281L283.962 96.9081V96.8931C284.276 96.2561 284.575 95.6181 284.967 94.9911C284.978 95.0011 284.988 95.0111 284.999 95.0211C286.791 96.6901 289.563 94.2861 288.168 92.2731C287.891 91.8741 287.557 91.5151 287.172 91.2171C287.99 92.0271 289.231 92.4381 290.34 92.1301C291.449 91.8211 292.333 90.7311 292.268 89.5811C292.223 88.7961 291.683 88.0811 290.984 87.7531C292.464 87.9071 293.989 87.6241 295.301 86.9221C296.163 86.4601 297.016 85.6871 296.757 84.6131Z" fill="#343C44"/>
<path d="M250.309 75.2969C250.332 75.3289 249.796 75.6019 249.072 76.3689C248.355 77.1329 247.537 78.4729 247.117 80.3159C246.903 81.2319 246.757 82.2589 246.728 83.3669C246.693 84.4749 246.751 85.6649 246.802 86.9179C246.85 88.1709 246.904 89.4949 246.787 90.8679C246.728 91.5529 246.627 92.2489 246.46 92.9429C246.29 93.6249 246.09 94.3639 245.557 94.9399C245.132 95.4089 244.437 95.6039 243.843 95.4659C243.244 95.3429 242.718 95.0089 242.338 94.5619C241.587 93.6379 241.425 92.4859 241.26 91.4699L241.512 91.5069C241.075 92.4039 240.627 93.2899 239.98 93.9889C239.343 94.6929 238.475 95.1469 237.604 95.2019C237.17 95.2289 236.736 95.1479 236.369 94.9509C235.995 94.7559 235.728 94.4349 235.548 94.0979C235.377 93.7549 235.293 93.3819 235.321 93.0239C235.351 92.6669 235.499 92.3319 235.732 92.0979L235.857 92.2149C234.901 93.2469 233.905 93.7889 233.219 94.0859C232.873 94.2339 232.596 94.3209 232.409 94.3759C232.221 94.4259 232.122 94.4469 232.12 94.4389C232.118 94.4309 232.212 94.3949 232.395 94.3309C232.576 94.2619 232.845 94.1619 233.181 94.0019C233.848 93.6829 234.812 93.1259 235.729 92.0999L235.854 92.2169C235.438 92.6349 235.394 93.3879 235.726 94.0029C235.894 94.3059 236.139 94.5929 236.468 94.7579C236.795 94.9299 237.192 95.0009 237.588 94.9719C238.388 94.9139 239.197 94.4879 239.794 93.8179C240.405 93.1489 240.838 92.2869 241.27 91.3879L241.453 91.0069L241.521 91.4259C241.687 92.4399 241.863 93.5459 242.547 94.3799C242.887 94.7809 243.37 95.0829 243.894 95.1889C244.419 95.3049 244.98 95.1459 245.351 94.7439C245.817 94.2459 246.021 93.5459 246.186 92.8749C246.35 92.1979 246.451 91.5169 246.51 90.8429C246.629 89.4939 246.581 88.1779 246.541 86.9269C246.497 85.6749 246.448 84.4799 246.493 83.3579C246.533 82.2359 246.693 81.1959 246.923 80.2679C247.373 78.4019 248.237 77.0459 248.991 76.2929C249.755 75.5359 250.309 75.2969 250.309 75.2969Z" fill="#5D6369"/>
<path d="M287.233 88.0051C287.236 88.0091 287.202 88.036 287.134 88.085C287.051 88.142 286.95 88.2111 286.827 88.2961C286.693 88.3911 286.523 88.501 286.308 88.609C286.097 88.723 285.856 88.861 285.566 88.975C284.434 89.476 282.627 89.956 280.389 89.764C278.172 89.579 275.528 88.722 273.196 86.887C270.838 85.093 268.795 82.49 267.148 79.526C266.311 78.045 265.638 76.532 264.888 75.131C264.144 73.729 263.315 72.4301 262.296 71.3941C261.29 70.3531 260.111 69.573 258.884 69.196C258.273 68.996 257.653 68.9381 257.06 68.9361C256.466 68.9521 255.9 69.0571 255.377 69.2131C254.33 69.5331 253.478 70.0841 252.827 70.6571C252.174 71.2351 251.729 71.852 251.421 72.383C250.844 73.475 250.795 74.1841 250.751 74.1711C250.746 74.1701 250.751 74.128 250.764 74.045C250.782 73.946 250.804 73.825 250.831 73.678C250.898 73.357 251.05 72.894 251.324 72.331C251.622 71.782 252.062 71.143 252.72 70.54C253.376 69.943 254.241 69.366 255.316 69.023C255.853 68.856 256.436 68.741 257.053 68.719C257.667 68.714 258.317 68.771 258.95 68.972C260.225 69.353 261.445 70.152 262.479 71.212C263.527 72.267 264.375 73.59 265.128 75C265.887 76.411 266.561 77.921 267.39 79.388C269.025 82.329 271.037 84.903 273.351 86.68C275.64 88.498 278.221 89.356 280.404 89.565C282.604 89.779 284.388 89.338 285.521 88.873C286.665 88.402 287.212 87.9701 287.233 88.0051Z" fill="#5D6369"/>
<path d="M288.47 82.7463C288.479 82.7633 288.323 82.8653 288.03 83.0353C287.74 83.2113 287.297 83.4253 286.734 83.6503C286.172 83.8803 285.478 84.0903 284.692 84.2603C283.904 84.4163 283.024 84.5243 282.095 84.5343C281.166 84.5343 280.284 84.4353 279.495 84.2873C278.708 84.1253 278.011 83.9223 277.447 83.6983C276.882 83.4793 276.437 83.2693 276.145 83.0973C275.851 82.9303 275.693 82.8303 275.702 82.8133C275.727 82.7663 276.382 83.1263 277.514 83.5113C278.078 83.7083 278.768 83.8873 279.542 84.0323C280.319 84.1633 281.183 84.2523 282.093 84.2523C283.003 84.2423 283.866 84.1443 284.641 84.0053C285.414 83.8523 286.102 83.6653 286.664 83.4623C287.793 83.0663 288.445 82.6993 288.47 82.7463Z" fill="#5D6369"/>
<path d="M255.399 143.609L267.771 148.646C270.802 149.522 276.587 154.446 280.064 157.775L294.455 176.977L272.453 203.79L255.399 143.609Z" fill="#5D6369"/>
<path d="M238.138 134.547L236.13 137.691C236.13 137.691 207.046 145.276 204.635 151.102C201.249 159.282 205.687 184.691 205.687 184.691L211.828 239.431L203.432 269.721L280.474 271.038C280.474 271.038 275.799 191.626 274.715 183.22C273.631 174.814 266.287 146.313 266.287 146.313L238.138 134.547Z" fill="#5D6369"/>
<path d="M273.405 167.719C273.414 167.718 273.43 167.804 273.454 167.972C273.478 168.171 273.509 168.417 273.546 168.72C273.62 169.42 273.721 170.382 273.85 171.601C274.108 174.104 274.437 177.729 274.817 182.212C275.579 191.177 276.447 203.576 277.305 217.274C278.162 230.977 278.972 243.376 279.64 252.346C279.976 256.798 280.249 260.416 280.442 262.967C280.529 264.189 280.598 265.154 280.648 265.856C280.665 266.161 280.678 266.409 280.689 266.609C280.695 266.779 280.694 266.866 280.685 266.867C280.676 266.868 280.66 266.782 280.636 266.614C280.611 266.415 280.581 266.169 280.544 265.866C280.47 265.166 280.369 264.204 280.24 262.985C279.982 260.482 279.653 256.857 279.273 252.375C278.511 243.41 277.643 231.01 276.785 217.307C275.928 203.609 275.118 191.211 274.45 182.241C274.114 177.788 273.84 174.171 273.648 171.619C273.561 170.397 273.492 169.431 273.442 168.729C273.426 168.424 273.412 168.176 273.401 167.976C273.395 167.807 273.396 167.72 273.405 167.719Z" fill="#343C44"/>
<path opacity="0.3" d="M207.156 256.278L214.918 259.215L219.233 245.655C219.233 245.655 226.63 251.326 231.807 250.586C236.985 249.846 244.381 245.655 244.381 245.655L261.146 248.778L279.514 255.023L278.158 232.34L229.587 229.875L214.917 231.601L207.156 256.278Z" fill="black"/>
<path d="M160.456 275.532L172.984 269.563C174.142 265.685 175.314 261.812 176.592 257.563C181.91 259.923 186.655 262.029 191.604 264.225C193.397 258.651 194.991 253.697 196.646 248.553C201.889 250.818 206.653 252.876 211.701 255.057C213.407 249.543 214.942 244.582 216.58 239.289C220.912 241.246 224.552 243.204 228.414 244.504C230.381 245.166 233.008 245.291 234.881 244.533C240.291 242.344 245.47 239.583 250.918 236.961C251.699 238.452 252.188 239.32 252.617 240.216C255.193 245.606 255.37 245.69 260.871 243.16C266.727 240.467 272.595 237.797 278.394 234.984C280.85 233.793 282.726 233.995 285.232 235.404C304.327 246.142 323.536 246.733 342.001 234.224C359.48 222.382 367.126 205.294 364.553 184.483C361.992 163.771 350.174 149.335 330.659 142.059C299.902 130.591 266.496 150.486 261.375 182.957C260.953 185.636 259.97 187.07 257.522 188.089C252.509 190.176 247.613 192.542 242.676 194.809C234.404 198.606 234.407 198.611 237.035 207.395C235.384 208.284 234.013 209.127 232.559 209.791C213.391 218.555 162.318 241.349 145.578 248.814L139.751 268.686L160.456 275.532ZM351.671 186.557C347.458 197.644 334.94 203.172 323.848 198.843C312.903 194.572 307.315 182.32 311.331 171.401C315.493 160.087 328.085 154.4 339.387 158.729C350.5 162.987 355.942 175.316 351.671 186.557Z" fill="#3D5EE1"/>
<path opacity="0.3" d="M239.167 221.705L152.702 259.188C151.253 259.816 149.568 259.151 148.94 257.701C148.312 256.252 148.977 254.567 150.427 253.939L236.892 216.455C238.341 215.827 240.026 216.492 240.654 217.942C241.281 219.392 240.616 221.077 239.167 221.705Z" fill="black"/>
<path d="M243.913 221.994C243.917 222.002 243.831 222.051 243.659 222.137C243.46 222.234 243.207 222.357 242.892 222.51C242.179 222.843 241.184 223.308 239.921 223.898C237.297 225.101 233.561 226.815 228.959 228.926C219.695 233.155 206.89 238.981 192.704 245.321C178.512 251.66 165.611 257.28 156.221 261.225C151.53 263.206 147.716 264.768 145.073 265.828C143.776 266.341 142.756 266.745 142.024 267.034C141.696 267.158 141.433 267.257 141.226 267.336C141.045 267.401 140.951 267.43 140.948 267.422C140.945 267.414 141.032 267.368 141.206 267.287C141.408 267.196 141.664 267.081 141.984 266.938C142.707 266.627 143.715 266.193 144.996 265.642C147.648 264.504 151.425 262.884 156.077 260.888C165.428 256.858 178.301 251.186 192.492 244.848C206.658 238.507 219.483 232.767 228.808 228.593C233.439 226.545 237.199 224.883 239.839 223.716C241.12 223.164 242.127 222.729 242.85 222.417C243.174 222.283 243.434 222.176 243.639 222.091C243.816 222.018 243.909 221.985 243.913 221.994Z" fill="#343C44"/>
<path d="M253.419 241.027C253.289 241.089 249.346 233.146 244.612 223.288C239.877 213.426 236.145 205.384 236.274 205.321C236.404 205.259 240.346 213.2 245.081 223.062C249.816 232.92 253.549 240.965 253.419 241.027Z" fill="#343C44"/>
<path d="M361.953 191.179C361.953 191.179 361.922 190.912 361.887 190.391C361.854 189.855 361.806 189.084 361.744 188.079C361.715 187.57 361.682 187.002 361.645 186.376C361.58 185.752 361.448 185.076 361.339 184.341C361.223 183.606 361.098 182.815 360.965 181.969C360.865 181.117 360.549 180.252 360.331 179.312C359.477 175.548 357.719 171.099 354.943 166.382C352.145 161.685 348.107 156.778 342.604 152.611C341.913 152.096 341.214 151.575 340.507 151.048C339.77 150.565 338.994 150.122 338.226 149.649C337.443 149.203 336.701 148.661 335.86 148.281C335.029 147.882 334.19 147.48 333.342 147.073C332.917 146.872 332.49 146.669 332.061 146.466C331.615 146.303 331.166 146.14 330.716 145.976C329.815 145.647 328.905 145.316 327.987 144.981C327.06 144.675 326.09 144.477 325.13 144.216C324.16 143.996 323.207 143.655 322.195 143.551C320.19 143.266 318.164 142.853 316.065 142.841C315.02 142.805 313.966 142.702 312.905 142.719C311.844 142.774 310.774 142.829 309.697 142.884C309.159 142.921 308.616 142.918 308.078 142.989C307.541 143.072 307.002 143.154 306.462 143.238C305.383 143.417 304.286 143.543 303.201 143.767C301.062 144.349 298.845 144.783 296.738 145.663L295.13 146.253C294.862 146.354 294.59 146.444 294.325 146.555L293.548 146.93C292.51 147.431 291.467 147.934 290.417 148.441C289.394 148.996 288.412 149.642 287.399 150.243C286.903 150.56 286.374 150.831 285.901 151.189L284.474 152.257C282.504 153.609 280.781 155.3 278.977 156.928C278.16 157.828 277.339 158.732 276.514 159.641L275.894 160.323L275.337 161.06L274.228 162.545L273.114 164.036L272.138 165.63L271.164 167.234L270.675 168.039C270.529 168.316 270.4 168.604 270.261 168.886C269.715 170.02 269.166 171.159 268.616 172.303C268.179 173.494 267.741 174.691 267.301 175.891C265.721 180.754 264.87 185.92 264.8 191.176C264.869 196.434 265.718 201.601 267.297 206.466C267.737 207.667 268.175 208.864 268.611 210.055C269.162 211.199 269.71 212.338 270.257 213.473L270.671 214.321L271.16 215.126L272.135 216.731L273.11 218.326L274.225 219.817L275.334 221.302L275.89 222.039L276.51 222.721C277.335 223.63 278.156 224.534 278.974 225.434C280.778 227.063 282.501 228.754 284.472 230.107L285.899 231.175C286.371 231.534 286.901 231.804 287.397 232.122C288.41 232.723 289.392 233.369 290.415 233.925C291.465 234.432 292.509 234.935 293.546 235.436L294.323 235.811C294.588 235.921 294.861 236.012 295.128 236.113L296.736 236.703C298.843 237.583 301.06 238.017 303.2 238.599C304.285 238.823 305.382 238.95 306.461 239.128C307.002 239.211 307.541 239.294 308.078 239.376C308.616 239.447 309.16 239.443 309.698 239.481C310.775 239.536 311.845 239.591 312.906 239.646C313.967 239.662 315.021 239.56 316.066 239.524C318.166 239.512 320.192 239.098 322.197 238.813C323.208 238.709 324.162 238.368 325.132 238.148C326.092 237.887 327.062 237.69 327.989 237.382C328.907 237.047 329.817 236.715 330.718 236.387C331.169 236.223 331.617 236.06 332.063 235.897C332.492 235.693 332.919 235.491 333.343 235.289C334.191 234.882 335.03 234.479 335.861 234.081C336.701 233.7 337.443 233.158 338.227 232.712C338.994 232.239 339.771 231.797 340.507 231.313C341.214 230.786 341.913 230.265 342.604 229.75C348.106 225.583 352.144 220.675 354.942 215.979C357.717 211.262 359.475 206.814 360.329 203.05C360.547 202.111 360.863 201.246 360.963 200.393C361.096 199.548 361.221 198.757 361.337 198.022C361.446 197.287 361.578 196.611 361.643 195.987C361.679 195.362 361.712 194.794 361.741 194.284C361.803 193.279 361.851 192.508 361.884 191.972C361.922 191.446 361.953 191.179 361.953 191.179C361.953 191.179 361.957 191.446 361.94 191.968C361.919 192.505 361.889 193.278 361.849 194.286C361.827 194.797 361.802 195.367 361.775 195.995C361.719 196.621 361.594 197.3 361.493 198.039C361.384 198.778 361.267 199.573 361.141 200.422C361.048 201.279 360.74 202.149 360.528 203.094C359.7 206.881 357.962 211.364 355.195 216.123C352.405 220.862 348.36 225.821 342.83 230.038C342.135 230.559 341.433 231.087 340.721 231.62C339.981 232.11 339.2 232.559 338.427 233.038C337.639 233.49 336.892 234.037 336.047 234.425C335.211 234.829 334.366 235.238 333.512 235.651C333.084 235.855 332.654 236.061 332.222 236.267C331.772 236.432 331.321 236.598 330.867 236.765C329.959 237.099 329.042 237.435 328.117 237.775C327.183 238.087 326.205 238.289 325.237 238.555C324.259 238.779 323.297 239.125 322.278 239.233C320.256 239.525 318.212 239.946 316.093 239.964C315.038 240.003 313.975 240.107 312.904 240.093C311.833 240.04 310.753 239.987 309.666 239.933C309.123 239.896 308.574 239.9 308.031 239.83C307.489 239.748 306.945 239.665 306.399 239.583C305.309 239.405 304.201 239.278 303.105 239.054C300.943 238.471 298.704 238.035 296.574 237.15C296.034 236.953 295.493 236.755 294.949 236.556C294.678 236.454 294.403 236.363 294.135 236.252L293.35 235.874C292.301 235.37 291.246 234.862 290.185 234.352C289.151 233.793 288.158 233.142 287.134 232.535C286.633 232.215 286.098 231.942 285.62 231.58L284.177 230.503C282.186 229.138 280.442 227.433 278.619 225.787C277.792 224.878 276.962 223.965 276.127 223.048L275.501 222.359L274.938 221.615L273.816 220.116L272.689 218.609L271.702 216.998L270.716 215.377L270.222 214.564L269.803 213.707C269.25 212.56 268.695 211.409 268.138 210.253C267.696 209.048 267.253 207.839 266.808 206.626C265.209 201.709 264.351 196.486 264.282 191.172C264.352 185.86 265.213 180.639 266.812 175.724C267.257 174.511 267.701 173.302 268.143 172.098C268.7 170.943 269.255 169.791 269.807 168.645C269.948 168.36 270.078 168.069 270.226 167.789L270.72 166.976L271.705 165.355L272.692 163.745L273.819 162.239L274.941 160.74L275.504 159.996L276.13 159.307C276.964 158.39 277.795 157.477 278.621 156.569C280.444 154.924 282.188 153.219 284.179 151.855L285.622 150.778C286.1 150.417 286.635 150.144 287.136 149.824C288.16 149.218 289.152 148.567 290.187 148.008C291.248 147.498 292.303 146.99 293.351 146.486L294.136 146.108C294.403 145.997 294.679 145.906 294.95 145.804C295.493 145.605 296.035 145.408 296.574 145.21C298.704 144.325 300.942 143.889 303.104 143.306C304.2 143.081 305.308 142.955 306.397 142.777C306.943 142.694 307.487 142.612 308.029 142.53C308.572 142.459 309.121 142.464 309.664 142.427C310.751 142.373 311.831 142.32 312.902 142.267C313.973 142.253 315.036 142.357 316.091 142.396C318.209 142.413 320.254 142.834 322.275 143.126C323.295 143.234 324.257 143.579 325.234 143.804C326.202 144.07 327.179 144.272 328.114 144.583C329.039 144.923 329.956 145.26 330.864 145.593C331.318 145.76 331.77 145.926 332.219 146.091C332.651 146.297 333.081 146.503 333.509 146.707C334.363 147.12 335.208 147.528 336.044 147.933C336.89 148.32 337.637 148.868 338.425 149.32C339.197 149.799 339.978 150.248 340.719 150.737C341.43 151.271 342.133 151.798 342.828 152.319C348.358 156.536 352.403 161.495 355.194 166.234C357.962 170.993 359.7 175.476 360.528 179.264C360.74 180.209 361.048 181.08 361.141 181.937C361.266 182.787 361.384 183.582 361.493 184.321C361.594 185.06 361.718 185.739 361.775 186.365C361.802 186.993 361.827 187.563 361.849 188.074C361.889 189.082 361.919 189.855 361.94 190.392C361.958 190.912 361.953 191.179 361.953 191.179Z" fill="#343C44"/>
<path d="M355.288 178.796C355.279 178.796 355.263 178.663 355.242 178.405C355.221 178.122 355.194 177.743 355.158 177.26C355.141 177.006 355.123 176.725 355.103 176.417C355.069 176.108 355.001 175.774 354.945 175.41C354.827 174.683 354.715 173.84 354.434 172.923C354.004 171.062 353.127 168.864 351.748 166.536C350.359 164.217 348.357 161.796 345.635 159.743C342.922 157.709 339.499 155.979 335.55 155.282C331.628 154.61 327.201 154.733 322.985 156.336C321.912 156.68 320.904 157.211 319.867 157.708C318.885 158.302 317.85 158.849 316.936 159.593C315.964 160.26 315.115 161.095 314.225 161.899C313.421 162.789 312.577 163.66 311.884 164.67C310.462 166.646 309.22 168.841 308.469 171.254C307.69 173.653 307.271 176.2 307.236 178.793C307.27 181.387 307.689 183.935 308.467 186.335C309.218 188.75 310.46 190.945 311.882 192.921C312.575 193.931 313.42 194.803 314.224 195.693C315.114 196.497 315.963 197.332 316.935 197.999C317.849 198.743 318.884 199.29 319.866 199.884C320.903 200.382 321.911 200.913 322.984 201.257C327.2 202.86 331.628 202.983 335.55 202.31C339.499 201.613 342.922 199.883 345.635 197.848C348.357 195.794 350.358 193.373 351.747 191.054C353.125 188.726 354.002 186.528 354.432 184.667C354.713 183.751 354.825 182.908 354.943 182.181C354.999 181.817 355.067 181.483 355.101 181.174C355.121 180.866 355.14 180.585 355.156 180.331C355.191 179.848 355.219 179.469 355.24 179.186C355.263 178.929 355.279 178.796 355.288 178.796C355.297 178.796 355.299 178.928 355.295 179.188C355.287 179.473 355.276 179.854 355.263 180.339C355.254 180.595 355.244 180.878 355.233 181.188C355.207 181.499 355.147 181.836 355.099 182.204C354.996 182.938 354.899 183.79 354.632 184.718C354.228 186.602 353.371 188.834 352 191.205C350.618 193.566 348.61 196.038 345.861 198.142C343.121 200.227 339.65 202.006 335.632 202.735C331.642 203.439 327.13 203.33 322.823 201.708C321.728 201.36 320.697 200.822 319.637 200.316C318.633 199.713 317.576 199.155 316.641 198.399C315.648 197.719 314.778 196.87 313.869 196.049C313.046 195.142 312.183 194.253 311.473 193.223C310.017 191.207 308.747 188.964 307.977 186.498C307.179 184.047 306.751 181.442 306.717 178.793C306.752 176.145 307.181 173.541 307.979 171.09C308.749 168.625 310.019 166.382 311.475 164.367C312.185 163.337 313.048 162.448 313.871 161.541C314.78 160.721 315.65 159.872 316.643 159.192C317.578 158.436 318.635 157.878 319.639 157.276C320.698 156.77 321.729 156.232 322.824 155.884C327.13 154.263 331.642 154.153 335.631 154.857C339.648 155.586 343.12 157.365 345.86 159.449C348.609 161.553 350.617 164.025 351.999 166.386C353.37 168.757 354.227 170.989 354.631 172.873C354.899 173.801 354.996 174.653 355.099 175.388C355.147 175.755 355.207 176.093 355.233 176.404C355.244 176.714 355.254 176.997 355.263 177.253C355.277 177.738 355.287 178.12 355.295 178.404C355.299 178.664 355.297 178.796 355.288 178.796Z" fill="#343C44"/>
<path opacity="0.3" d="M290.523 143.843V238.12C290.523 238.12 296.136 241.011 304.036 242.597L303.074 139.711C298.648 140.575 294.433 141.885 290.523 143.843Z" fill="white"/>
<path d="M283.677 234.664C283.533 234.664 283.417 215.302 283.417 191.424C283.417 167.537 283.534 148.18 283.677 148.18C283.82 148.18 283.937 167.538 283.937 191.424C283.938 215.302 283.821 234.664 283.677 234.664Z" fill="white"/>
<path d="M273.369 158.329C273.398 158.351 273.127 158.776 272.616 159.523C272.096 160.264 271.383 161.364 270.548 162.747C269.706 164.127 268.792 165.822 267.868 167.746C266.968 169.682 266.072 171.853 265.295 174.191C264.535 176.535 263.969 178.816 263.546 180.909C263.149 183.007 262.88 184.914 262.74 186.524C262.592 188.133 262.515 189.442 262.494 190.347C262.463 191.252 262.429 191.754 262.393 191.755C262.357 191.756 262.323 191.255 262.292 190.346C262.25 189.437 262.272 188.119 262.374 186.495C262.467 184.869 262.7 182.941 263.075 180.82C263.476 178.704 264.033 176.397 264.801 174.029C265.586 171.668 266.504 169.481 267.436 167.539C268.392 165.608 269.347 163.918 270.236 162.553C271.117 161.185 271.881 160.11 272.453 159.403C273.016 158.691 273.34 158.307 273.369 158.329Z" fill="white"/>
<path d="M258.68 191.147C258.742 191.277 254.764 193.307 249.795 195.68C244.825 198.054 240.747 199.873 240.685 199.744C240.623 199.614 244.601 197.585 249.571 195.211C254.539 192.837 258.618 191.018 258.68 191.147Z" fill="white"/>
<path d="M232.813 212.314C232.817 212.322 232.749 212.364 232.614 212.438C232.449 212.524 232.25 212.627 232.007 212.754C231.428 213.041 230.642 213.431 229.65 213.922C227.599 214.928 224.618 216.358 220.924 218.102C213.537 221.592 203.285 226.314 191.882 231.351C180.474 236.387 170.077 240.784 162.522 243.892C158.745 245.447 155.68 246.687 153.555 247.525C152.523 247.927 151.705 248.246 151.104 248.48C150.846 248.575 150.636 248.652 150.462 248.716C150.316 248.767 150.24 248.788 150.236 248.78C150.232 248.772 150.302 248.733 150.441 248.667C150.61 248.59 150.814 248.497 151.064 248.383C151.656 248.126 152.462 247.778 153.478 247.338C155.624 246.426 158.654 245.137 162.38 243.553C169.898 240.358 180.268 235.91 191.672 230.875C203.071 225.84 213.344 221.172 220.769 217.768C224.45 216.081 227.444 214.71 229.564 213.738C230.574 213.283 231.374 212.923 231.963 212.658C232.215 212.55 232.422 212.462 232.593 212.389C232.734 212.332 232.809 212.306 232.813 212.314Z" fill="white"/>
<path d="M331.889 152.471C331.876 152.572 330.163 152.218 327.382 152.32C324.619 152.408 320.751 153.101 317.016 155.11C313.28 157.118 310.567 159.963 308.97 162.22C307.352 164.484 306.702 166.108 306.61 166.063C306.581 166.051 306.717 165.637 307.037 164.918C307.355 164.199 307.885 163.185 308.667 162.01C310.21 159.665 312.942 156.708 316.768 154.652C320.592 152.595 324.565 151.947 327.372 151.953C328.783 151.948 329.921 152.065 330.697 152.197C331.474 152.326 331.895 152.441 331.889 152.471Z" fill="white"/>
<path d="M339.559 147.292C339.541 147.323 339.101 147.121 338.324 146.731C337.552 146.331 336.411 145.796 334.985 145.186C333.561 144.567 331.826 143.927 329.869 143.314C327.905 142.726 325.716 142.18 323.384 141.778C321.048 141.395 318.801 141.194 316.752 141.106C314.703 141.045 312.853 141.081 311.305 141.199C309.757 141.309 308.504 141.441 307.644 141.566C306.782 141.68 306.3 141.727 306.293 141.691C306.286 141.656 306.755 141.542 307.611 141.366C308.465 141.179 309.718 140.99 311.274 140.832C312.83 140.665 314.696 140.59 316.766 140.626C318.835 140.688 321.11 140.876 323.47 141.264C325.826 141.67 328.036 142.237 330.012 142.856C331.98 143.5 333.718 144.182 335.133 144.849C336.551 145.508 337.674 146.097 338.419 146.553C339.171 147 339.577 147.261 339.559 147.292Z" fill="white"/>
<path opacity="0.3" d="M219.019 220.197L222.432 202.946L226.451 202.783L228.46 180.32L224.138 198.203L219.752 197.222L215.601 219.504L219.019 220.197Z" fill="black"/>
<path d="M254.227 227.104C254.227 227.104 260.213 222.748 262.273 222.021C264.334 221.294 271.277 220.059 273.724 218.305C273.724 218.305 275.924 219.49 274.064 221.393C272.204 223.296 268.829 225.257 267.071 225.777C265.313 226.297 265.866 227.563 267.129 228.009C268.391 228.455 277.381 229.991 277.381 229.991C277.381 229.991 287.83 230.215 288.686 231.274C289.542 232.333 288.832 233.763 287.977 234.062C287.361 234.277 278.39 234.876 278.39 234.876L273.777 234.328C273.777 234.328 288.113 236.973 288.931 238.182C289.749 239.391 289.04 240.211 288.304 240.649C287.567 241.087 281.252 239.856 281.252 239.856L272.643 238.792L288.306 243.276C288.306 243.276 289.732 243.889 289.433 245.064C289.134 246.239 287.193 246.495 287.193 246.495L270.625 243.282C270.625 243.282 278.697 248.962 278.981 249.703C279.361 250.695 277.691 251.601 277.046 251.187C276.401 250.773 266.008 246.32 266.008 246.32L254.122 240.907L246.251 241.002L249.668 226.415L254.227 227.104Z" fill="#FFCAAE"/>
<path d="M218.611 241.412L252.396 240.91L251.746 226.836L215.602 219.511L220.81 192.943L196.164 187.25C192.541 202.438 191.345 215.2 190.447 225.494C190.447 225.494 188.757 236.143 200.819 239.097C208.495 240.976 218.611 241.412 218.611 241.412Z" fill="#FFCAAE"/>
<path d="M190.143 190.605L224.138 198.205C224.138 198.205 230.077 176.065 230.282 169.921C230.487 163.777 222.068 144.355 210.215 148.286C210.215 148.286 206.626 147.56 203.361 152.358C202.047 154.287 190.143 190.605 190.143 190.605Z" fill="#5D6369"/>
<path d="M228.802 166.731C228.699 166.729 229.105 164.801 228.43 161.797C228.095 160.306 227.508 158.568 226.595 156.76C225.711 154.942 224.538 153.004 222.633 151.674C220.731 150.365 218.605 149.576 216.615 149.304C214.616 149.004 212.777 148.98 211.247 149.048C209.713 149.113 208.483 149.308 207.648 149.499C206.814 149.695 206.372 149.878 206.353 149.833C206.346 149.817 206.45 149.757 206.658 149.659C206.863 149.551 207.182 149.44 207.596 149.302C208.43 149.048 209.672 148.793 211.225 148.68C212.776 148.564 214.637 148.549 216.686 148.829C218.742 149.086 220.955 149.882 222.937 151.25C224.942 152.647 226.164 154.709 227.027 156.548C227.932 158.401 228.496 160.19 228.791 161.721C229.088 163.256 229.101 164.532 229.034 165.399C228.994 165.833 228.951 166.168 228.899 166.392C228.852 166.618 228.819 166.734 228.802 166.731Z" fill="#343C44"/>
<path d="M228.802 177.75C228.817 177.753 228.8 177.892 228.755 178.156C228.695 178.469 228.623 178.849 228.535 179.31C228.31 180.381 228.007 181.823 227.634 183.598C226.811 187.314 225.682 192.411 224.385 198.265L224.331 198.51L224.084 198.455C221.948 197.98 219.672 197.474 217.325 196.952C209.841 195.248 203.069 193.707 198.081 192.572C195.677 192 193.707 191.53 192.262 191.186C191.623 191.023 191.102 190.89 190.686 190.784C190.327 190.686 190.14 190.627 190.144 190.609C190.148 190.591 190.342 190.617 190.709 190.682C191.131 190.763 191.659 190.865 192.307 190.989C193.76 191.293 195.743 191.707 198.162 192.213C203.159 193.31 209.942 194.799 217.439 196.445C219.784 196.972 222.06 197.484 224.194 197.964L223.893 198.154C225.261 192.316 226.452 187.233 227.321 183.527C227.754 181.766 228.106 180.334 228.367 179.272C228.487 178.819 228.587 178.445 228.669 178.137C228.741 177.879 228.787 177.746 228.802 177.75Z" fill="#343C44"/>
<path d="M362.403 175.034C362.403 175.034 363.385 175.421 364.485 174.455C365.584 173.489 367.414 170.957 366.618 170.001C365.822 169.045 363.814 168.669 363.814 168.669C363.814 168.669 365.272 166.822 364.636 165.479C363.729 163.565 361.93 164.333 361.93 164.333C361.93 164.333 362.77 162.933 361.981 160.772C361.762 160.173 361.302 159.688 360.718 159.432L358.981 158.67C358.981 158.67 360.536 156.355 358.763 154.424C358.396 154.024 357.924 153.711 357.405 153.466C355.111 152.382 352.33 152.596 350.632 154.482C352.036 155.874 353.603 157.429 353.256 158.574C353.256 158.574 345.91 163.443 347.808 166.024C349.036 167.694 350.313 166.941 350.313 166.941C350.313 166.941 348.486 168.602 349.452 169.702C349.754 170.046 350.172 170.233 350.605 170.328C351.627 170.553 352.309 170.538 353.361 169.922L354.567 169.24C354.567 169.24 354.05 170.796 355.074 171.653C355.159 171.724 355.247 171.788 355.335 171.846C356.223 172.423 357.391 172.335 358.274 171.75L361.003 169.942L361.24 171.28C361.24 171.28 359.63 173.147 362.403 175.034Z" fill="#FFCAAE"/>
<path d="M362.403 175.034C362.403 175.034 362.026 174.868 361.474 174.33C361.211 174.053 360.899 173.665 360.745 173.103C360.594 172.545 360.681 171.82 361.149 171.203L361.122 171.301C361.043 170.883 360.959 170.437 360.87 169.966L361.077 170.055C360.571 170.397 360.03 170.764 359.454 171.153C359.165 171.348 358.867 171.549 358.561 171.756C358.265 171.966 357.898 172.184 357.503 172.291C356.722 172.529 355.739 172.437 355.015 171.843C354.636 171.565 354.367 171.103 354.287 170.627C354.199 170.145 354.236 169.664 354.375 169.175L354.668 169.416C354.084 169.735 353.537 170.097 352.864 170.412C352.189 170.733 351.351 170.733 350.629 170.559C350.253 170.485 349.854 170.345 349.522 170.079C349.19 169.839 348.915 169.379 348.945 168.92C348.957 168.465 349.142 168.068 349.362 167.72C349.586 167.368 349.844 167.058 350.153 166.762L350.434 167.143C349.897 167.422 349.288 167.398 348.767 167.161C348.244 166.919 347.856 166.52 347.541 166.055C347.199 165.552 347.192 164.887 347.356 164.347C347.517 163.796 347.808 163.314 348.126 162.862C349.453 161.083 351.225 159.676 353.112 158.355L353.007 158.496C353.119 158.104 352.94 157.607 352.657 157.166C352.379 156.717 352.016 156.291 351.636 155.878C351.253 155.463 350.85 155.063 350.449 154.664L350.274 154.49L350.439 154.305C351.285 153.357 352.479 152.774 353.69 152.613C354.905 152.444 356.129 152.65 357.212 153.103C358.297 153.522 359.319 154.351 359.691 155.502C360.06 156.658 359.76 157.851 359.181 158.801L359.078 158.446C359.685 158.715 360.283 158.98 360.872 159.241C361.512 159.54 362.008 160.109 362.217 160.753C362.637 161.968 362.694 163.303 362.115 164.44L361.847 164.133C362.492 163.893 363.197 163.909 363.783 164.225C364.374 164.548 364.711 165.094 364.919 165.672C365.078 166.287 364.94 166.882 364.743 167.391C364.534 167.904 364.271 168.358 363.954 168.774L363.848 168.492C364.682 168.677 365.445 168.943 366.105 169.358C366.422 169.579 366.749 169.798 366.897 170.212C367.015 170.607 366.927 170.977 366.831 171.3C366.353 172.574 365.595 173.446 364.966 174.118C364.337 174.802 363.623 175.13 363.13 175.143C362.885 175.161 362.699 175.132 362.578 175.102C362.457 175.074 362.4 175.042 362.403 175.034C362.406 175.013 362.651 175.11 363.118 175.048C363.587 175 364.229 174.676 364.825 173.989C365.417 173.319 366.145 172.419 366.565 171.22C366.65 170.923 366.707 170.591 366.614 170.311C366.531 170.05 366.225 169.813 365.934 169.629C365.325 169.257 364.57 169.005 363.782 168.843L363.516 168.788L363.676 168.561C364.208 167.805 364.781 166.773 364.54 165.784C364.37 165.328 364.052 164.824 363.586 164.592C363.132 164.343 362.52 164.339 362.014 164.532L361.494 164.731L361.747 164.225C362.218 163.281 362.191 162.021 361.785 160.911C361.606 160.372 361.198 159.917 360.672 159.673C360.085 159.417 359.489 159.157 358.884 158.893L358.633 158.784L358.781 158.539C359.28 157.713 359.542 156.62 359.22 155.665C358.901 154.696 358.036 153.97 357.017 153.578C356.008 153.159 354.873 152.974 353.763 153.13C352.655 153.28 351.588 153.806 350.827 154.659L350.817 154.3C351.219 154.698 351.626 155.103 352.021 155.53C352.412 155.956 352.792 156.398 353.102 156.898C353.402 157.382 353.683 157.995 353.506 158.652L353.484 158.736L353.401 158.793C351.56 160.075 349.792 161.486 348.539 163.161C347.947 163.973 347.452 165.033 347.959 165.798C348.215 166.185 348.57 166.546 348.97 166.727C349.36 166.918 349.85 166.914 350.194 166.739L351.592 166.029L350.475 167.121C349.954 167.63 349.438 168.292 349.409 168.936C349.366 169.578 350.071 170.013 350.724 170.13C351.424 170.295 352.093 170.299 352.701 170.025C353.296 169.755 353.895 169.376 354.471 169.068L354.908 168.834L354.764 169.309C354.517 170.122 354.617 171.086 355.252 171.553C355.867 172.071 356.71 172.165 357.412 171.965C358.113 171.772 358.688 171.25 359.288 170.9C359.871 170.522 360.42 170.166 360.932 169.834L361.106 169.721L361.139 169.923C361.217 170.396 361.291 170.844 361.36 171.263L361.369 171.316L361.333 171.361C360.914 171.888 360.803 172.554 360.927 173.063C361.05 173.582 361.328 173.966 361.569 174.247C362.074 174.796 362.425 175 362.403 175.034Z" fill="#FF9A6C"/>
<path d="M359.353 157.93C359.411 157.941 359.336 158.676 358.845 159.749C358.366 160.822 357.409 162.176 356.07 163.363C354.731 164.55 353.348 165.384 352.343 165.951C351.333 166.514 350.684 166.813 350.648 166.753C350.61 166.69 351.195 166.276 352.15 165.637C353.101 164.993 354.427 164.124 355.723 162.974C357.018 161.826 357.973 160.571 358.517 159.581C359.072 158.595 359.272 157.908 359.353 157.93Z" fill="#FF9A6C"/>
<path d="M361.988 163.845C362.064 163.853 361.919 164.475 361.198 165.054C360.497 165.613 359.514 166.28 358.408 167.026C356.196 168.503 354.339 169.603 354.259 169.483C354.179 169.364 355.907 168.07 358.119 166.593C359.217 165.853 360.259 165.216 360.975 164.761C361.692 164.303 361.92 163.819 361.988 163.845Z" fill="#FF9A6C"/>
<path d="M364.028 168.548C364.11 168.661 363.494 169.237 362.555 169.646C361.617 170.059 360.777 170.122 360.749 169.985C360.717 169.841 361.462 169.56 362.346 169.169C363.232 168.784 363.944 168.426 364.028 168.548Z" fill="#FF9A6C"/>
<path d="M363.572 170.027C363.58 170.177 362.883 170.313 362.204 170.801C361.514 171.272 361.147 171.881 361.009 171.822C360.873 171.789 361.078 170.948 361.905 170.374C362.727 169.794 363.586 169.888 363.572 170.027Z" fill="#FF9A6C"/>
</svg>
