<svg width="598" height="670" viewBox="0 0 598 670" fill="none" xmlns="http://www.w3.org/2000/svg">
<path d="M598 512.414H0V512.749H598V512.414Z" fill="#E6E6E6"/>
<path d="M149.292 532.688H109.678V533.022H149.292V532.688Z" fill="#E6E6E6"/>
<path d="M97.1414 532.688H74.1865V533.022H97.1414V532.688Z" fill="#E6E6E6"/>
<path d="M251.823 537.617H228.869V537.952H251.823V537.617Z" fill="#E6E6E6"/>
<path d="M371.497 545.094H319.838V545.429H371.497V545.094Z" fill="#E6E6E6"/>
<path d="M309.19 545.094H301.616V545.429H309.19V545.094Z" fill="#E6E6E6"/>
<path d="M542.198 537.617H430.162V537.952H542.198V537.617Z" fill="#E6E6E6"/>
<path d="M283.469 452.649H52.5223C48.7585 452.649 45.6956 449.217 45.6956 445V81.2815C45.6956 77.0646 48.7585 73.6328 52.5223 73.6328H283.469C287.231 73.6328 290.294 77.0646 290.294 81.2815V445C290.294 449.217 287.231 452.649 283.469 452.649ZM52.5223 73.9692C48.9224 73.9692 45.9946 77.2495 45.9946 81.2829V445.002C45.9946 449.035 48.9224 452.315 52.5223 452.315H283.469C287.067 452.315 289.995 449.035 289.995 445.002V81.2815C289.995 77.2495 287.067 73.9678 283.469 73.9678L52.5223 73.9692Z" fill="#E6E6E6"/>
<path d="M542.159 452.649H311.214C307.451 452.649 304.388 449.217 304.388 445V81.2815C304.388 77.0646 307.451 73.6328 311.214 73.6328H542.159C545.924 73.6328 548.986 77.0646 548.986 81.2815V445C548.987 449.217 545.924 452.649 542.159 452.649ZM311.214 73.9692C307.615 73.9692 304.687 77.2495 304.687 81.2829V445.002C304.687 449.035 307.615 452.315 311.214 452.315H542.159C545.759 452.315 548.687 449.035 548.687 445.002V81.2815C548.687 77.2495 545.759 73.9678 542.159 73.9678L311.214 73.9692Z" fill="#E6E6E6"/>
<path d="M319.809 397.945H293.51V514.839H319.809V397.945Z" fill="#E0E0E0"/>
<path d="M314.814 514.841H319.809V498.922H309.577L314.814 514.841Z" fill="#FAFAFA"/>
<path d="M204.568 397.945H178.27V514.839H204.568V397.945Z" fill="#E0E0E0"/>
<path d="M319.81 397.945H200.209V505.072H319.81V397.945Z" fill="#FAFAFA"/>
<path d="M315.472 403.213V431.555H204.546V403.213H315.472ZM315.934 402.695H204.083V432.073H315.934V402.695Z" fill="#E0E0E0"/>
<path d="M205.203 514.841H200.209V498.922H210.441L205.203 514.841Z" fill="#FAFAFA"/>
<path d="M257.363 417.378C257.363 419.014 258.547 420.342 260.009 420.342C261.469 420.342 262.654 419.016 262.654 417.378C262.654 415.742 261.47 414.414 260.009 414.414C258.549 414.415 257.363 415.742 257.363 417.378Z" fill="#E6E6E6"/>
<path d="M315.472 437.338V465.68H204.546V437.338H315.472ZM315.934 436.82H204.083V466.198H315.934V436.82Z" fill="#E0E0E0"/>
<path d="M257.363 451.511C257.363 453.147 258.547 454.475 260.009 454.475C261.469 454.475 262.654 453.148 262.654 451.511C262.654 449.873 261.47 448.547 260.009 448.547C258.549 448.548 257.363 449.875 257.363 451.511Z" fill="#E6E6E6"/>
<path d="M315.472 471.463V499.805H204.546V471.463H315.472ZM315.934 470.945H204.083V500.323H315.934V470.945Z" fill="#E0E0E0"/>
<path d="M257.363 485.636C257.363 487.272 258.547 488.6 260.009 488.6C261.469 488.6 262.654 487.273 262.654 485.636C262.654 483.998 261.47 482.672 260.009 482.672C258.549 482.672 257.363 483.998 257.363 485.636Z" fill="#E6E6E6"/>
<path d="M188.501 330.062H162.202V514.843H188.501V330.062Z" fill="#E0E0E0"/>
<path d="M183.507 514.841H188.501V498.922H178.27L183.507 514.841Z" fill="#FAFAFA"/>
<path d="M90.2105 330.062H63.9116V514.843H90.2105V330.062Z" fill="#E0E0E0"/>
<path d="M188.501 330.062H85.8523V505.075H188.501V330.062Z" fill="#FAFAFA"/>
<path d="M184.082 335.016V374.64H90.2712V335.016H184.082ZM184.626 334.406H89.7271V375.251H184.626V334.406Z" fill="#E0E0E0"/>
<path d="M184.082 379.461V484.566H139.398V379.461H184.082ZM184.626 378.852H138.853V485.178H184.626V378.852Z" fill="#E0E0E0"/>
<path d="M134.955 379.461V484.566H90.2712V379.461H134.955ZM135.5 378.852H89.7271V485.178H135.5V378.852Z" fill="#E0E0E0"/>
<path d="M90.8465 514.841H85.8521V498.922H96.0838L90.8465 514.841Z" fill="#FAFAFA"/>
<path d="M134.532 354.831C134.532 356.469 135.716 357.795 137.177 357.795C138.638 357.795 139.823 356.469 139.823 354.831C139.823 353.195 138.639 351.867 137.177 351.867C135.716 351.869 134.532 353.195 134.532 354.831Z" fill="#E6E6E6"/>
<path d="M144.002 429.503C144.002 431.139 145.186 432.467 146.648 432.467C148.109 432.467 149.293 431.141 149.293 429.503C149.293 427.867 148.109 426.539 146.648 426.539C145.186 426.539 144.002 427.866 144.002 429.503Z" fill="#E6E6E6"/>
<path d="M125.061 429.503C125.061 431.139 126.245 432.467 127.706 432.467C129.166 432.467 130.352 431.141 130.352 429.503C130.352 427.867 129.168 426.539 127.706 426.539C126.246 426.539 125.061 427.866 125.061 429.503Z" fill="#E6E6E6"/>
<path d="M122.082 278.539H110.988C110.988 278.539 112.913 290.03 112.913 296.791C112.913 303.553 104.474 330.058 116.535 330.058C128.594 330.058 120.156 303.552 120.156 296.791C120.155 290.028 122.082 278.539 122.082 278.539Z" fill="#E0E0E0"/>
<path d="M79.8965 305.719V313.795C79.8965 322.742 86.4302 330.063 94.4171 330.063H101.625C109.611 330.063 116.145 322.742 116.145 313.795V305.719H79.8965Z" fill="#F5F5F5"/>
<path d="M234.018 380.914C234.018 390.283 243.383 397.949 254.83 397.949H265.163C276.611 397.949 285.977 390.283 285.977 380.914H234.018Z" fill="#E0E0E0"/>
<path d="M507.829 367.198C501.562 372.929 492.912 383.424 484.986 398.189C479.707 408.022 476.526 418.325 475.129 431.937C475.159 416.528 475.202 399.973 475.25 384.348C476.842 380.327 480.477 371.061 483.086 363.739C491.789 339.31 495.03 333.302 502.858 312.231C513.298 284.126 523.996 250.777 520.933 253.442C514.691 258.872 490.77 309.058 488.184 316.241C479.291 340.951 476.814 358.962 475.275 376.343C475.323 361.667 475.374 348.192 475.424 337.795C475.585 303.883 476.1 292.937 476.351 289.562C477.319 287.847 478.462 285.848 479.127 284.77C484.746 275.668 486.913 267.913 492.208 254.336C499.71 235.098 506.171 200.941 504.283 202.664C496.418 209.837 490.214 225.259 482.062 244.911C473.911 264.562 476.241 275.862 474.624 292.645C474.284 295.939 474.025 308.368 473.837 325.593C471.723 307.242 467.757 295.148 460.521 284.159C451.62 270.643 443.01 261.512 436.693 256.743C430.376 251.975 447.602 285.178 455.84 299.67C463.176 312.575 469.933 323.964 473.744 335.18C473.542 358.525 473.448 388.088 473.448 415.606C471.559 403.083 468.473 389.598 464.356 379.156C459.41 366.609 451.8 347.366 445.742 340.838C444.286 339.271 452.076 376.697 457.074 386.649C462.073 396.601 465.743 405.98 468.889 411.621C469.624 412.937 472.059 418.013 473.45 420.932C473.463 454.525 473.616 484.169 473.877 494.259H475.172C475.083 491.655 475.069 474.566 475.097 451.949C478.216 439.667 485.35 425.654 491.237 412.869C497.663 398.911 514.097 361.465 507.829 367.198Z" fill="#E0E0E0"/>
<path d="M493.278 514.842H455.792L452.962 473.672H496.108L493.278 514.842Z" fill="#F0F0F0"/>
<path d="M498.902 478.469H450.168L448.773 464.578H500.297L498.902 478.469Z" fill="#F5F5F5"/>
<path d="M148.615 101.164H81.5767V183.64H148.615V101.164Z" fill="#E0E0E0"/>
<path d="M155.876 101.164H86.6296V183.64H155.876V101.164Z" fill="#F5F5F5"/>
<path d="M150.074 177.14V107.664L92.4301 107.664L92.4301 177.14H150.074Z" fill="white"/>
<path d="M136.102 160.305V124.508H106.403V160.305H136.102Z" fill="#F5F5F5"/>
<path d="M490.421 110.781H428.145V187.398H490.421V110.781Z" fill="#E0E0E0"/>
<path d="M497.166 110.781H432.839V187.398H497.166V110.781Z" fill="#F5F5F5"/>
<path d="M491.777 181.361V116.82L438.228 116.82V181.361H491.777Z" fill="white"/>
<path d="M465.002 167.809C474.228 167.809 481.708 159.429 481.708 149.092C481.708 138.755 474.228 130.375 465.002 130.375C455.776 130.375 448.296 138.755 448.296 149.092C448.296 159.429 455.776 167.809 465.002 167.809Z" fill="#F5F5F5"/>
<path d="M218.257 150.344H168.527V211.525H218.257V150.344Z" fill="#E0E0E0"/>
<path d="M223.645 150.344H172.277V211.525H223.645V150.344Z" fill="#F5F5F5"/>
<path d="M219.341 206.703V155.164H176.581V206.703H219.341Z" fill="white"/>
<path d="M197.961 167.906L186.267 190.602H209.656L197.961 167.906Z" fill="#F5F5F5"/>
<path d="M299 572.932C427.07 572.932 530.891 566.138 530.891 557.759C530.891 549.379 427.07 542.586 299 542.586C170.93 542.586 67.1086 549.379 67.1086 557.759C67.1086 566.138 170.93 572.932 299 572.932Z" fill="#F5F5F5"/>
<path d="M417.698 218.999L405.835 213.609C405.835 213.609 390.179 245.599 385.696 247.214C379.594 249.412 366.975 255.521 359.476 256.665C358.465 257.989 356.798 262.164 356.957 263.687C367.018 267.445 389.12 262.454 393.851 258.518C404.637 249.541 417.698 218.999 417.698 218.999Z" fill="#E58A7B"/>
<path d="M421.35 211.739C423.557 220.903 411.574 239.311 411.574 239.311L395.833 229.418C395.833 229.418 398.768 221.851 402.36 214.144C408.162 201.7 418.83 201.28 421.35 211.739Z" fill="#3D5EE1"/>
<path opacity="0.2" d="M421.35 211.739C423.557 220.903 411.574 239.311 411.574 239.311L395.833 229.418C395.833 229.418 398.768 221.851 402.36 214.144C408.162 201.7 418.83 201.28 421.35 211.739Z" fill="black"/>
<path opacity="0.2" d="M402.109 233.361L408.292 237.245L409.373 215.984C405.785 219.082 403.24 228.405 402.109 233.361Z" fill="black"/>
<path d="M411.02 204.832C411.02 204.832 398.798 235.299 405.923 292.035C420.436 292.035 447.025 292.035 454.086 292.035C454.852 283.752 452.321 243.343 461.494 204.312C461.494 204.312 453.335 202.456 445.491 202.032C439.354 201.699 430.456 201.48 425.016 202.033C417.845 202.762 411.02 204.832 411.02 204.832Z" fill="#3D5EE1"/>
<path opacity="0.2" d="M411.02 204.832C411.02 204.832 398.798 235.299 405.923 292.035C420.436 292.035 447.025 292.035 454.086 292.035C454.852 283.752 452.321 243.343 461.494 204.312C461.494 204.312 453.335 202.456 445.491 202.032C439.354 201.699 430.456 201.48 425.016 202.033C417.845 202.762 411.02 204.832 411.02 204.832Z" fill="black"/>
<path d="M399.85 558.972C399.775 560.411 418.035 561.577 440.636 561.577C463.237 561.577 481.62 560.411 481.695 558.972C481.77 557.533 463.51 556.367 440.909 556.367C418.308 556.366 399.926 557.533 399.85 558.972Z" fill="#E8ECF1"/>
<path d="M433.121 522.808L424.55 526.508L431.899 547.88L440.47 544.18L433.121 522.808Z" fill="#E58A7B"/>
<path d="M470.089 548.669H461.084L457.781 525.305H466.785L470.089 548.669Z" fill="#E58A7B"/>
<path d="M460.505 547.5H470.622C470.991 547.5 471.295 547.787 471.353 548.189L472.663 557.156C472.799 558.086 472.101 558.966 471.25 558.95C467.722 558.882 466.018 558.65 461.57 558.65C458.833 558.65 453.178 558.969 449.397 558.969C445.7 558.969 445.343 554.782 446.911 554.402C453.937 552.702 456.673 550.357 459.012 548.12C459.433 547.717 459.967 547.5 460.505 547.5Z" fill="#323737"/>
<path d="M430.526 543.966L440.119 540.841C440.478 540.724 440.848 540.897 441.007 541.257L444.561 549.292C444.93 550.124 444.494 551.169 443.662 551.424C440.187 552.487 437.852 553.151 433.502 554.568C430.496 555.546 427.439 557.141 424.47 558.202C422.414 558.936 417.586 558.966 415.085 558.966C411.388 558.966 410.564 554.599 412.148 554.399C416.159 553.895 416.697 554.128 418.911 552.885C422.57 550.828 425.401 549.125 428.57 545.406C429.122 544.76 429.769 544.212 430.526 543.966Z" fill="#323737"/>
<path d="M360.992 256.57L351.083 251.898L347.003 264.197C347.003 264.197 352.721 265.359 359.252 264.197L360.992 256.57Z" fill="#E58A7B"/>
<path d="M343.719 251.594L343.458 259.777L347.004 264.194L351.083 251.895L343.719 251.594Z" fill="#E58A7B"/>
<path d="M433.153 522.793L424.581 526.5L428.375 537.515L436.948 533.807L433.153 522.793Z" fill="#CF6F64"/>
<path d="M466.788 525.312H457.78L459.487 537.355H468.496L466.788 525.312Z" fill="#CF6F64"/>
<path opacity="0.2" d="M404.395 276.696C404.567 279.12 404.777 281.597 405.034 284.145L440.848 271.118C446.44 269.245 451.307 265.307 454.626 259.924C454.761 256.344 454.945 252.585 455.215 248.66C455.339 246.747 455.486 244.79 455.646 242.808C455.818 240.743 456.014 238.636 456.236 236.516L404.395 276.696Z" fill="black"/>
<path d="M416.088 232.744L414.868 232.582C415.579 225.896 420.034 220.611 424.74 220.737L424.704 222.114C420.641 221.981 416.727 226.748 416.088 232.744Z" fill="white"/>
<path d="M422.46 245.113C422.393 245.113 422.326 245.112 422.258 245.111L422.294 243.733C426.407 243.902 430.272 239.098 430.91 233.102L432.13 233.265C431.429 239.857 427.115 245.113 422.46 245.113Z" fill="white"/>
<path d="M444.814 176.203C443.136 183.584 441.14 197.107 445.491 202.032C445.491 202.032 442.452 209.518 430.211 209.518C419.025 209.518 425.016 202.032 425.016 202.032C432.465 200.066 432.596 193.959 431.616 188.224L444.814 176.203Z" fill="#E58A7B"/>
<path d="M439.433 181.109L431.622 188.221C431.858 189.578 432.025 190.954 432.041 192.292C434.324 194.839 438.907 188.386 439.377 185.093C439.61 183.453 439.632 181.875 439.433 181.109Z" fill="#CF6F64"/>
<path d="M418.198 176.116C419.343 178.413 421.363 179.842 423.271 180.318C426.143 181.035 427.587 178.075 426.795 175.096C426.082 172.415 423.729 168.812 420.844 169.429C418.001 170.039 416.888 173.49 418.198 176.116Z" fill="#CF6F64"/>
<path d="M422.937 152.488C418.464 154.785 416.887 174.693 422.511 177.637C428.135 180.58 431.409 148.139 422.937 152.488Z" fill="#323737"/>
<path d="M446.178 165.1C445.108 175.094 444.932 180.975 440.159 186.105C432.978 193.82 422.207 189.244 420.601 179.268C419.155 170.289 421.148 155.453 430.088 151.476C438.896 147.558 447.249 155.106 446.178 165.1Z" fill="#E58A7B"/>
<path d="M431.485 157.671C438.102 155.775 442.972 154.483 441.234 160.671C438.919 168.915 436.142 176.901 439.867 177.274C442.132 177.5 452.18 172.723 450.904 167.894C449.793 163.686 454.463 162.551 455.324 160.406C458.425 152.679 449.564 153.683 451.141 149.008C452.676 144.456 444.002 136.763 439.195 140.521C431.415 146.606 418.044 146.519 425.074 136.539C430.108 129.391 421.126 130.859 421.126 130.859C421.126 130.859 426.551 134.465 417.419 140.039C407.739 145.946 416.6 161.937 431.485 157.671Z" fill="#323737"/>
<path d="M449.631 176.116C448.245 178.413 446.077 179.842 444.117 180.318C441.171 181.035 440.038 178.075 441.141 175.096C442.134 172.415 444.864 168.812 447.685 169.429C450.463 170.039 451.215 173.49 449.631 176.116Z" fill="#E58A7B"/>
<path d="M405.923 292.04C405.923 292.04 397.84 373.106 397.208 403.873C396.553 435.875 424.606 535.721 424.606 535.721L438.971 528.962C438.971 528.962 422.245 437.744 424.569 406.314C427.102 372.052 437.583 292.039 437.583 292.039H405.923V292.04Z" fill="#3D5EE1"/>
<path opacity="0.2" d="M426.014 314.294C419.573 329.276 423.912 358.895 427.402 376.453C428.73 364.059 430.303 350.607 431.802 338.158C431.655 319.018 430.328 304.243 426.014 314.294Z" fill="black"/>
<path d="M438.322 523.703C438.389 523.672 440.025 528.833 440.025 528.833L423.467 536.622L420.859 531.188L438.322 523.703Z" fill="#3D5EE1"/>
<path d="M423.008 292.039C423.008 292.039 429.193 369.14 433.291 398.025C437.78 429.656 455.412 535.021 455.412 535.021H471.904C471.904 535.021 462.022 432.21 460.155 400.893C458.129 366.902 454.085 292.039 454.085 292.039H423.008Z" fill="#3D5EE1"/>
<path d="M472.157 530.209C472.227 530.209 472.708 535.373 472.708 535.373H454.58L453.286 529.445L472.157 530.209Z" fill="#3D5EE1"/>
<path opacity="0.2" d="M465.838 524.1C465.76 524.1 465.694 524.034 465.686 523.947C465.596 523.012 456.685 430.191 455.008 402.054C453.189 371.52 449.53 303.816 449.493 303.135C449.489 303.04 449.553 302.958 449.637 302.953C449.641 302.953 449.644 302.953 449.647 302.953C449.727 302.953 449.796 303.024 449.801 303.115C449.837 303.795 453.495 371.498 455.316 402.03C456.991 430.162 465.901 522.976 465.991 523.91C466.001 524.005 465.94 524.089 465.856 524.099C465.849 524.1 465.843 524.1 465.838 524.1Z" fill="black"/>
<path d="M432.502 167.896C432.459 168.709 432.04 169.37 431.566 169.37C431.091 169.37 430.74 168.711 430.783 167.896C430.825 167.082 431.245 166.422 431.72 166.422C432.195 166.422 432.545 167.082 432.502 167.896Z" fill="#323737"/>
<path d="M424.293 167.896C424.25 168.709 423.831 169.37 423.356 169.37C422.881 169.37 422.531 168.711 422.574 167.896C422.617 167.082 423.036 166.422 423.51 166.422C423.985 166.422 424.336 167.082 424.293 167.896Z" fill="#323737"/>
<path d="M426.881 168.297C426.881 168.297 424.984 172.992 423.047 175.257C424.262 176.601 426.478 175.986 426.478 175.986L426.881 168.297Z" fill="#DF5753"/>
<path d="M427.09 179.403C426.973 179.403 426.882 179.296 426.889 179.164C426.896 179.033 426.998 178.926 427.115 178.926C430.304 178.926 431.922 176.431 431.939 176.405C432.01 176.295 432.144 176.263 432.238 176.336C432.332 176.408 432.352 176.555 432.282 176.667C432.21 176.777 430.507 179.403 427.09 179.403Z" fill="#323737"/>
<path d="M433.963 165.42C433.839 165.474 433.701 165.466 433.586 165.384C432.017 164.277 430.554 165.019 430.54 165.029C430.339 165.144 430.072 165.044 429.982 164.805C429.893 164.567 429.998 164.281 430.215 164.167C430.293 164.126 432.124 163.194 434.071 164.568C434.266 164.706 434.314 164.999 434.18 165.225C434.125 165.316 434.047 165.383 433.963 165.42Z" fill="#323737"/>
<path d="M421.119 162.744C421.06 162.725 421.003 162.692 420.956 162.641C420.788 162.467 420.788 162.165 420.956 161.967C422.626 159.99 424.561 160.292 424.642 160.305C424.869 160.333 425.021 160.587 424.972 160.848C424.923 161.108 424.698 161.287 424.469 161.25C424.404 161.239 422.893 161.023 421.56 162.601C421.441 162.743 421.268 162.792 421.119 162.744Z" fill="#323737"/>
<path d="M466.117 217.507L453.675 213.797C453.675 213.797 441.476 247.442 437.166 249.638C431.302 252.627 416.455 262.967 410.145 267.953C409.795 269.62 410.07 274.063 410.864 275.273C421.593 273.089 442.235 264.198 446.54 259.678C456.354 249.375 466.117 217.507 466.117 217.507Z" fill="#E58A7B"/>
<path d="M457.435 549.265C456.75 549.265 456.116 549.134 455.728 548.752C455.421 548.448 455.295 548.022 455.354 547.489C455.397 547.091 455.594 546.902 455.755 546.813C456.77 546.242 459.579 548.239 459.896 548.469C459.966 548.522 459.999 548.617 459.981 548.712C459.962 548.806 459.895 548.882 459.81 548.904C459.175 549.072 458.267 549.265 457.435 549.265ZM456.207 547.178C456.095 547.178 456.001 547.196 455.927 547.238C455.868 547.271 455.798 547.333 455.778 547.518C455.737 547.899 455.816 548.183 456.022 548.386C456.49 548.851 457.662 548.913 459.21 548.567C458.227 547.908 456.897 547.178 456.207 547.178Z" fill="#3D5EE1"/>
<path d="M459.76 548.904C459.725 548.904 459.691 548.895 459.66 548.876C458.757 548.308 457.071 546.098 457.321 544.973C457.366 544.769 457.519 544.417 458.033 544.347C458.369 544.3 458.667 544.405 458.925 544.652C459.921 545.611 459.984 548.522 459.986 548.646C459.988 548.733 459.947 548.817 459.878 548.864C459.841 548.891 459.801 548.904 459.76 548.904ZM458.157 544.815C458.126 544.815 458.094 544.819 458.06 544.823C457.782 544.86 457.75 545.003 457.736 545.064C457.588 545.728 458.649 547.399 459.534 548.187C459.473 547.336 459.274 545.639 458.637 545.025C458.49 544.883 458.333 544.815 458.157 544.815Z" fill="#3D5EE1"/>
<path d="M425.677 547.592C424.796 547.83 423.957 547.901 423.421 547.575C423.08 547.369 422.884 547.023 422.839 546.553C422.811 546.272 422.896 546.026 423.081 545.843C424.045 544.882 427.947 545.915 428.389 546.036C428.475 546.06 428.536 546.143 428.54 546.245C428.543 546.347 428.491 546.442 428.406 546.486C427.682 546.853 426.654 547.326 425.677 547.592ZM423.732 546C423.568 546.044 423.439 546.107 423.354 546.191C423.279 546.266 423.251 546.352 423.263 546.475C423.294 546.794 423.419 547.017 423.641 547.153C424.276 547.541 425.751 547.234 427.649 546.344C426.315 546.03 424.572 545.77 423.732 546Z" fill="#3D5EE1"/>
<path d="M428.366 546.502C428.337 546.51 428.307 546.51 428.277 546.506C427.118 546.265 424.642 544.724 424.619 543.57C424.613 543.301 424.727 542.931 425.294 542.711C425.705 542.538 426.129 542.573 426.526 542.792C427.826 543.51 428.505 546.083 428.534 546.191C428.554 546.272 428.535 546.36 428.482 546.426C428.45 546.465 428.409 546.49 428.366 546.502ZM425.538 543.117C425.497 543.128 425.455 543.144 425.412 543.159C425.042 543.305 425.045 543.475 425.045 543.531C425.06 544.223 426.778 545.496 427.992 545.925C427.75 545.185 427.169 543.692 426.318 543.222C426.062 543.08 425.805 543.045 425.538 543.117Z" fill="#3D5EE1"/>
<path d="M411.158 267.156L398.686 273.588L397.239 277.531L401.849 281.005C401.849 281.005 410.45 279.956 412.901 273.764L411.158 267.156Z" fill="#E58A7B"/>
<path d="M411.689 275.5C410.91 270.308 409.386 267.941 409.372 267.918L411.338 266.266C411.414 266.38 413.222 269.113 414.114 275.043L411.689 275.5Z" fill="#323737"/>
<path d="M413.814 269.059C414.218 270.18 413.568 271.531 412.362 272.078C411.155 272.624 409.85 272.158 409.446 271.036C409.042 269.915 409.691 268.564 410.898 268.017C412.103 267.472 413.409 267.937 413.814 269.059Z" fill="#323737"/>
<path d="M390.259 278.786L391.916 280.666L403.107 275.304L398.686 273.594L390.259 278.786Z" fill="#E58A7B"/>
<path opacity="0.2" d="M438.322 523.703C438.389 523.672 440.025 528.833 440.025 528.833L423.467 536.622L420.859 531.188L438.322 523.703Z" fill="black"/>
<path opacity="0.2" d="M472.157 530.209C472.227 530.209 472.708 535.373 472.708 535.373H454.58L453.286 529.445L472.157 530.209Z" fill="black"/>
<path d="M469.359 213.647C472.65 225.529 459.839 241.76 459.839 241.76L442.081 233.64C442.081 233.64 444.583 225.007 449.344 213.442C454.757 200.298 466.038 201.655 469.359 213.647Z" fill="#3D5EE1"/>
<path opacity="0.2" d="M469.359 213.647C472.65 225.529 459.839 241.76 459.839 241.76L442.081 233.64C442.081 233.64 444.583 225.007 449.344 213.442C454.757 200.298 466.038 201.655 469.359 213.647Z" fill="black"/>
<path d="M292.87 94.5625H285.231V95.94H292.87V94.5625Z" fill="#3D5EE1"/>
<path d="M391.813 149.179L390.889 172.172L392.116 172.234L393.04 149.241L391.813 149.179Z" fill="#3D5EE1"/>
<path d="M389.433 100.758H248.307L235.168 430.021H376.295L389.433 100.758Z" fill="#3D5EE1"/>
<path opacity="0.56" d="M385.22 105.273H244.093L230.956 434.537H372.083L385.22 105.273Z" fill="#FAFAFA"/>
<path opacity="0.07" d="M381.006 109.797H239.881L226.743 439.06H367.869L381.006 109.797Z" fill="#3D5EE1"/>
<path d="M364.943 253.398H244.485L243.479 278.598H363.938L364.943 253.398Z" fill="white"/>
<path d="M310.739 235.023H245.219L244.769 246.298H310.288L310.739 235.023Z" fill="#3D5EE1"/>
<path d="M362.23 321.398H241.771L240.766 346.598H361.224L362.23 321.398Z" fill="white"/>
<path opacity="0.47" d="M340.14 380.609H259.137L257.932 410.812H338.935L340.14 380.609Z" fill="#3D5EE1"/>
<path d="M334.722 415.49H253.72C253.681 415.49 253.644 415.471 253.617 415.44C253.59 415.41 253.576 415.367 253.578 415.324L254.784 385.122C254.786 385.036 254.85 384.969 254.925 384.969H335.928C335.966 384.969 336.003 384.987 336.031 385.018C336.057 385.049 336.071 385.092 336.069 385.135L334.863 415.337C334.861 415.423 334.798 415.49 334.722 415.49ZM253.868 415.171H334.586L335.777 385.288H255.059L253.868 415.171Z" fill="white"/>
<path d="M296.582 303.016H242.505L242.055 314.29H296.131L296.582 303.016Z" fill="#3D5EE1"/>
<path d="M338.595 172.023C338.294 179.569 335.853 186.537 331.939 192.197C326.03 200.776 316.774 206.353 306.585 206.353C296.397 206.353 287.598 200.776 282.373 192.197C278.912 186.537 277.027 179.57 277.329 172.023C278.086 153.062 292.414 137.695 309.325 137.695C326.249 137.694 339.351 153.062 338.595 172.023Z" fill="white"/>
<path d="M341.476 144.887C341.396 146.892 340.748 148.744 339.707 150.247C338.137 152.526 335.678 154.008 332.97 154.008C330.263 154.008 327.926 152.526 326.537 150.247C325.617 148.744 325.116 146.892 325.196 144.887C325.397 139.849 329.205 135.766 333.699 135.766C338.196 135.766 341.677 139.849 341.476 144.887Z" fill="#3D5EE1"/>
<path d="M257.457 265.998C257.369 268.228 255.682 270.036 253.692 270.036C251.702 270.036 250.16 268.228 250.249 265.998C250.337 263.769 252.024 261.961 254.014 261.961C256.005 261.96 257.547 263.769 257.457 265.998Z" fill="#323737"/>
<path d="M273.587 265.998C273.499 268.228 271.813 270.036 269.822 270.036C267.832 270.036 266.291 268.228 266.379 265.998C266.468 263.769 268.154 261.961 270.144 261.961C272.134 261.961 273.677 263.769 273.587 265.998Z" fill="#323737"/>
<path d="M289.719 265.998C289.631 268.228 287.944 270.036 285.954 270.036C283.964 270.036 282.422 268.228 282.511 265.998C282.599 263.769 284.286 261.961 286.276 261.961C288.266 261.96 289.808 263.769 289.719 265.998Z" fill="#323737"/>
<path d="M254.745 334C254.656 336.229 252.97 338.037 250.98 338.037C248.989 338.037 247.448 336.229 247.536 334C247.625 331.77 249.311 329.961 251.301 329.961C253.291 329.962 254.833 331.77 254.745 334Z" fill="#323737"/>
<path d="M270.875 334C270.786 336.229 269.1 338.037 267.11 338.037C265.12 338.037 263.578 336.229 263.667 334C263.755 331.77 265.442 329.961 267.432 329.961C269.423 329.962 270.964 331.77 270.875 334Z" fill="#323737"/>
<path d="M287.005 334C286.917 336.229 285.231 338.037 283.24 338.037C281.25 338.037 279.709 336.229 279.797 334C279.886 331.77 281.572 329.961 283.562 329.961C285.552 329.961 287.095 331.77 287.005 334Z" fill="#323737"/>
<path d="M303.137 334C303.049 336.229 301.362 338.037 299.372 338.037C297.382 338.037 295.84 336.229 295.929 334C296.017 331.77 297.704 329.961 299.694 329.961C301.684 329.962 303.226 331.77 303.137 334Z" fill="#323737"/>
<path d="M319.268 334C319.179 336.229 317.493 338.037 315.503 338.037C313.512 338.037 311.971 336.229 312.059 334C312.148 331.77 313.834 329.961 315.824 329.961C317.814 329.962 319.356 331.77 319.268 334Z" fill="#323737"/>
<path d="M320.811 160.556C320.504 168.223 314.709 174.439 307.864 174.439C301.02 174.439 295.72 168.223 296.026 160.556C296.332 152.887 302.128 146.672 308.973 146.672C315.816 146.672 321.117 152.888 320.811 160.556Z" fill="#3D5EE1"/>
<path d="M331.939 192.199C326.03 200.777 316.774 206.354 306.585 206.354C296.397 206.354 287.598 200.777 282.374 192.199C288.187 185.713 297.389 181.5 307.578 181.5C317.778 181.5 326.643 185.713 331.939 192.199Z" fill="#3D5EE1"/>
<path opacity="0.1" d="M320.811 160.556C320.504 168.223 314.709 174.439 307.864 174.439C301.02 174.439 295.72 168.223 296.026 160.556C296.332 152.887 302.128 146.672 308.973 146.672C315.816 146.672 321.117 152.888 320.811 160.556Z" fill="white"/>
<path opacity="0.1" d="M331.939 192.199C326.03 200.777 316.774 206.354 306.585 206.354C296.397 206.354 287.598 200.777 282.374 192.199C288.187 185.713 297.389 181.5 307.578 181.5C317.778 181.5 326.643 185.713 331.939 192.199Z" fill="white"/>
<path d="M155.967 284.674C154.834 287.457 153.642 290.519 152.595 293.505C151.54 296.52 150.488 299.538 149.57 302.599C147.788 308.72 146.118 314.897 145.295 321.092L145.022 323.065C145.001 323.302 145.016 323.639 145.109 324.063C145.284 324.914 145.758 326.053 146.424 327.17C147.77 329.431 149.679 331.72 151.738 333.845C153.791 336.004 156.022 338.068 158.34 340.029C160.635 342.007 163.055 343.943 165.423 345.757L163.194 350.459C157.504 347.672 152.204 344.34 147.071 340.158C144.547 338.003 142.055 335.683 139.847 332.548C138.759 330.966 137.688 329.18 136.987 326.822C136.648 325.645 136.411 324.315 136.41 322.876C136.418 322.545 136.434 322.08 136.454 321.857L136.513 321.191L136.632 319.859C137.283 312.756 138.687 305.929 140.537 299.306C141.47 295.999 142.465 292.726 143.601 289.514C144.761 286.28 145.906 283.177 147.357 279.922L155.967 284.674Z" fill="#E58A7B"/>
<path d="M163.749 344.96L172.2 340.156L170.017 350.563C170.017 350.563 164.214 352.378 161.515 349.224L163.749 344.96Z" fill="#E58A7B"/>
<path d="M179.939 341.865L177.691 350.468L170.016 350.564L172.2 340.156L179.939 341.865Z" fill="#E58A7B"/>
<path d="M191.876 234.5C191.876 234.5 192.61 237.52 193.772 239.797C192.773 240.842 191.876 240.479 191.876 240.479V234.5Z" fill="#DF5753"/>
<path d="M191.627 234.579C192.122 234.579 192.523 233.892 192.523 233.043C192.523 232.195 192.122 231.508 191.627 231.508C191.132 231.508 190.731 232.195 190.731 233.043C190.731 233.892 191.132 234.579 191.627 234.579Z" fill="#323737"/>
<path d="M191.408 231.556L193.226 230.969C193.226 230.969 192.293 232.561 191.408 231.556Z" fill="#323737"/>
<path d="M168.513 244.328C169.605 250.566 170.694 261.996 166.798 266.158C166.798 266.158 168.32 272.486 178.666 272.486C190.042 272.486 184.103 266.158 184.103 266.158C177.894 264.496 178.055 259.336 179.136 254.489L168.513 244.328Z" fill="#E58A7B"/>
<path d="M165.494 230.132C166.064 240.546 166.107 244.967 170.803 250.312C177.864 258.352 189.155 255.289 191.374 244.895C193.37 235.538 192.101 220.079 183.003 215.935C174.038 211.852 164.922 219.718 165.494 230.132Z" fill="#E58A7B"/>
<path d="M166.41 218.353C161.749 220.257 155.531 218.841 157.971 234.96C160.554 252.027 156.578 257.642 156.578 257.642C156.578 257.642 174.269 261.864 192.328 257.39C192.328 257.39 186.815 246.587 188.363 238.704C190.336 228.65 188.772 224.934 188.772 224.934C188.772 224.934 172.964 215.676 166.41 218.353Z" fill="#323737"/>
<path d="M186.145 235.561C186.126 237.625 186.772 239.703 187.609 241.147C188.869 243.319 190.364 242.434 190.738 240.179C191.075 238.15 190.825 234.575 189.212 233.188C187.624 231.824 186.168 233.203 186.145 235.561Z" fill="#E58A7B"/>
<path d="M162.362 220.175C161.016 215.961 167.408 209.479 180.92 212.175C194.432 214.872 195.026 227.462 195.026 227.462L192.292 223.827L192.415 227.655L178.528 230.645L162.362 220.175Z" fill="#323737"/>
<path d="M163.507 266.867C163.321 265.58 164.093 264.367 165.241 264.155C169.449 263.377 179.012 261.801 183.826 262.547C187.402 263.102 188.348 265.442 188.499 267.355C188.611 268.774 187.564 269.971 186.293 269.906L165.496 268.853C164.498 268.802 163.666 267.974 163.507 266.867Z" fill="#3D5EE1"/>
<path opacity="0.6" d="M163.507 266.867C163.321 265.58 164.093 264.367 165.241 264.155C169.449 263.377 179.012 261.801 183.826 262.547C187.402 263.102 188.348 265.442 188.499 267.355C188.611 268.774 187.564 269.971 186.293 269.906L165.496 268.853C164.498 268.802 163.666 267.974 163.507 266.867Z" fill="black"/>
<path d="M175.525 500.974L183.233 506.969L196.14 487.37L188.432 481.375L175.525 500.974Z" fill="#E58A7B"/>
<path d="M157.531 500.579L165.686 505.782L177.109 485.053L168.955 479.852L157.531 500.579Z" fill="#E58A7B"/>
<path d="M196.134 487.381L189.483 497.484L181.772 491.486L188.423 481.383L196.134 487.381Z" fill="#CF6F64"/>
<path d="M168.95 479.859L177.107 485.064L171.214 495.746L163.058 490.542L168.95 479.859Z" fill="#CF6F64"/>
<path d="M182.028 332.305C182.028 332.305 212.144 374.83 206.494 415.495C201.93 448.341 175.502 492.817 175.502 492.817L163.075 485.897C163.075 485.897 176.577 456.339 185.443 425.006C189.161 411.866 187.577 397.39 180.626 386.016C165.371 361.052 140.93 375.906 157.371 332.306L182.028 332.305Z" fill="#3D5EE1"/>
<path opacity="0.6" d="M182.028 332.305C182.028 332.305 212.144 374.83 206.494 415.495C201.93 448.341 175.502 492.817 175.502 492.817L163.075 485.897C163.075 485.897 176.577 456.339 185.443 425.006C189.161 411.866 187.577 397.39 180.626 386.016C165.371 361.052 140.93 375.906 157.371 332.306L182.028 332.305Z" fill="black"/>
<path opacity="0.4" d="M196.8 359.633L192.425 354.758C192.425 355.144 200.906 413.79 203.29 430.272C204.727 425.219 205.834 420.234 206.497 415.497C209.263 395.586 203.449 375.221 196.8 359.633Z" fill="black"/>
<path d="M195.479 332.306C195.479 332.306 231.74 385.745 232.761 417.791C233.616 444.642 193.263 496.51 193.263 496.51L181.548 488.018C181.548 488.018 205.144 451.145 211.084 421.003C208.819 391.168 160.204 332.305 160.204 332.305H195.479V332.306Z" fill="#3D5EE1"/>
<path opacity="0.6" d="M195.479 332.306C195.479 332.306 231.74 385.745 232.761 417.791C233.616 444.642 193.263 496.51 193.263 496.51L181.548 488.018C181.548 488.018 205.144 451.145 211.084 421.003C208.819 391.168 160.204 332.305 160.204 332.305H195.479V332.306Z" fill="black"/>
<path d="M150.616 268.551C146.732 269.577 143.021 285.372 143.021 285.372L158.166 296.699C158.166 296.699 163.213 284.215 161.452 278.747C159.616 273.052 155.519 267.255 150.616 268.551Z" fill="#3D5EE1"/>
<path opacity="0.2" d="M153.579 278.711L152.521 292.471L158.159 296.699C158.159 296.699 160.801 290.159 161.588 284.458L153.579 278.711Z" fill="black"/>
<path d="M199.963 268.857C199.963 268.857 204.432 270.62 195.479 332.307C180.357 332.307 164.729 332.307 157.371 332.307C158.011 314.93 158.029 304.214 150.616 268.552C150.616 268.552 158.6 266.607 166.798 266.163C173.211 265.818 178.465 265.587 184.103 266.165C191.534 266.924 199.963 268.857 199.963 268.857Z" fill="#3D5EE1"/>
<path d="M203.833 278.649C204.697 281.322 205.61 284.214 206.561 286.99C207.474 289.808 208.421 292.621 209.398 295.421L212.331 303.838L213.072 305.942L213.444 306.994L213.631 307.519C213.663 307.613 213.657 307.605 213.645 307.595C213.594 307.57 213.549 307.304 212.808 306.759C212.444 306.506 211.834 306.262 211.246 306.249C210.654 306.224 210.185 306.387 209.916 306.518C209.377 306.806 209.368 306.931 209.38 306.91C209.415 306.89 209.526 306.771 209.648 306.606C210.171 305.903 210.802 304.69 211.356 303.484C211.922 302.255 212.456 300.942 212.988 299.61C214.047 296.94 215.01 294.152 215.989 291.361C216.958 288.562 217.871 285.721 218.775 282.872L221.497 274.32L226.105 275.621C225.194 281.739 224.014 287.73 222.609 293.742C221.923 296.755 221.128 299.741 220.221 302.756C219.769 304.267 219.263 305.773 218.681 307.308C218.077 308.856 217.478 310.382 216.409 312.155C216.128 312.604 215.81 313.078 215.366 313.601C214.897 314.116 214.355 314.737 213.187 315.326C212.606 315.606 211.797 315.854 210.864 315.812C209.935 315.783 208.993 315.413 208.341 314.96C207.016 314.011 206.558 313.108 206.165 312.43C205.983 312.09 205.828 311.738 205.72 311.485L205.493 310.965L205.039 309.925L204.134 307.844C202.953 305.056 201.795 302.253 200.698 299.419C199.612 296.578 198.554 293.721 197.528 290.843C196.546 287.92 195.575 285.089 194.71 281.98L203.833 278.649Z" fill="#E58A7B"/>
<path d="M199.963 268.855C204.544 270.078 209.69 285.241 209.69 285.241L196.077 298.238C196.077 298.238 187.254 281.703 189.04 276.244C190.898 270.559 193.979 267.258 199.963 268.855Z" fill="#3D5EE1"/>
<path d="M223.623 269.594L228.401 265.117L231.725 270.918L229.276 275.762C229.276 275.762 225.377 279.761 221.926 277.727C220.811 274.895 221.504 271.58 223.623 269.594Z" fill="#E58A7B"/>
<path d="M237.073 265.131L236.716 266.59L229.146 268.014L228.4 265.117L237.073 265.131Z" fill="#E58A7B"/>
<path d="M194.233 497.209L180.576 487.312L183.022 482.547L198.37 493.118L194.233 497.209Z" fill="#3D5EE1"/>
<path d="M171.008 505.081C169.922 505.081 168.492 504.31 167.626 503.771C167.549 503.723 167.504 503.627 167.514 503.527C167.522 503.429 167.583 503.346 167.667 503.314C168.035 503.184 171.275 502.072 172.193 502.935C172.337 503.071 172.499 503.323 172.447 503.743C172.381 504.299 172.153 504.691 171.773 504.903C171.553 505.026 171.292 505.081 171.008 505.081ZM168.318 503.619C169.803 504.466 170.999 504.779 171.574 504.458C171.82 504.322 171.961 504.066 172.009 503.676C172.034 503.465 171.968 503.373 171.907 503.317C171.425 502.862 169.629 503.216 168.318 503.619Z" fill="#323737"/>
<path d="M167.735 503.802C167.676 503.802 167.618 503.775 167.576 503.727C167.521 503.662 167.501 503.571 167.523 503.485C167.554 503.362 168.3 500.452 169.528 499.788C169.856 499.613 170.188 499.603 170.514 499.755C171.03 499.999 171.082 500.422 171.064 500.651C170.98 501.856 168.788 503.52 167.788 503.794C167.771 503.799 167.753 503.802 167.735 503.802ZM170.053 500.147C169.943 500.147 169.832 500.178 169.72 500.239C168.988 500.634 168.373 502.204 168.079 503.16C169.131 502.664 170.568 501.348 170.619 500.614C170.627 500.494 170.603 500.339 170.339 500.216C170.245 500.17 170.149 500.147 170.053 500.147Z" fill="#323737"/>
<path d="M188.092 510.873C186.746 510.873 184.868 508.934 183.841 507.743C183.775 507.666 183.759 507.552 183.801 507.457C183.844 507.364 183.952 507.31 184.028 507.322C184.502 507.39 188.662 508.02 189.249 509.336C189.361 509.591 189.352 509.861 189.221 510.12C189.001 510.554 188.682 510.803 188.274 510.861C188.216 510.869 188.155 510.873 188.092 510.873ZM184.628 507.922C186.139 509.568 187.46 510.479 188.219 510.365C188.485 510.328 188.686 510.168 188.835 509.873C188.892 509.761 188.897 509.662 188.851 509.558C188.531 508.843 186.31 508.225 184.628 507.922Z" fill="#323737"/>
<path d="M184.759 507.882C184.452 507.882 184.177 507.861 183.96 507.815C183.884 507.799 183.819 507.739 183.792 507.657C183.765 507.574 183.778 507.48 183.829 507.412C183.897 507.319 185.515 505.134 187.043 504.984C187.522 504.942 187.927 505.084 188.274 505.416C188.744 505.868 188.712 506.27 188.602 506.527C188.223 507.42 186.156 507.882 184.759 507.882ZM184.451 507.38C185.787 507.463 187.923 506.965 188.201 506.313C188.225 506.258 188.296 506.092 187.986 505.796C187.728 505.548 187.429 505.445 187.083 505.479C186.08 505.579 184.959 506.771 184.451 507.38Z" fill="#323737"/>
<path d="M168.063 502.388L157.919 499.175C157.549 499.058 157.177 499.25 157.024 499.637L153.6 508.262C153.245 509.158 153.737 510.267 154.594 510.52C158.147 511.572 159.91 511.879 164.371 513.293C167.116 514.162 171.045 515.752 174.835 516.951C178.541 518.125 179.886 514.016 178.404 513.136C171.758 509.19 171.234 506.484 169.416 503.487C169.088 502.947 168.604 502.559 168.063 502.388Z" fill="#3D5EE1"/>
<path d="M184.117 506.174L175.458 499.438C175.142 499.193 174.736 499.24 174.477 499.549L168.734 506.458C168.138 507.175 168.283 508.404 169.019 508.955C172.073 511.245 173.652 512.177 177.46 515.14C179.803 516.962 184.479 521.004 187.715 523.52C190.879 525.982 193.343 522.586 192.197 521.214C187.059 515.061 185.925 511.204 185.077 507.706C184.923 507.076 184.577 506.532 184.117 506.174Z" fill="#3D5EE1"/>
<path d="M177.098 493.703L161.481 485.008L163.098 480.273L179.766 489.427L177.098 493.703Z" fill="#3D5EE1"/>
<path d="M156.8 329.797L155.479 333.619C155.345 333.915 155.658 334.217 156.099 334.217H195.667C196.01 334.217 196.294 334.029 196.316 333.787L196.659 329.966C196.683 329.7 196.385 329.477 196.01 329.477H157.42C157.137 329.477 156.886 329.607 156.8 329.797Z" fill="#3D5EE1"/>
<path opacity="0.4" d="M156.8 329.797L155.479 333.619C155.345 333.915 155.658 334.217 156.099 334.217H195.667C196.01 334.217 196.294 334.029 196.316 333.787L196.659 329.966C196.683 329.7 196.385 329.477 196.01 329.477H157.42C157.137 329.477 156.886 329.607 156.8 329.797Z" fill="white"/>
<path d="M163.023 334.633H161.99C161.784 334.633 161.627 334.514 161.642 334.369L162.126 329.405C162.14 329.26 162.32 329.141 162.527 329.141H163.56C163.766 329.141 163.922 329.26 163.908 329.405L163.424 334.369C163.409 334.515 163.229 334.633 163.023 334.633Z" fill="#3D5EE1"/>
<path d="M187.43 334.633H186.396C186.191 334.633 186.034 334.514 186.048 334.369L186.533 329.405C186.547 329.26 186.726 329.141 186.933 329.141H187.967C188.172 329.141 188.329 329.26 188.315 329.405L187.83 334.369C187.816 334.515 187.635 334.633 187.43 334.633Z" fill="#3D5EE1"/>
<path d="M162.113 561.569C179.809 561.569 194.155 560.403 194.155 558.964C194.155 557.526 179.809 556.359 162.113 556.359C144.417 556.359 130.071 557.526 130.071 558.964C130.071 560.403 144.417 561.569 162.113 561.569Z" fill="#F5F5F5"/>
<path d="M181.64 555.292C175.971 553.448 169.731 551.073 165.871 548.547C165.763 548.477 165.649 548.426 165.541 548.362V519.647H176.943C178.829 519.647 180.358 517.934 180.358 515.821C180.358 513.709 178.829 511.997 176.943 511.997H165.541V380.914H158.713V511.997H147.31C145.425 511.997 143.897 513.709 143.897 515.821C143.897 517.934 145.425 519.647 147.31 519.647H158.713V548.36C158.604 548.425 158.49 548.474 158.383 548.545C154.522 551.071 148.282 553.447 142.613 555.291C140.754 555.895 141.146 558.965 143.082 558.965H162.126H181.17C183.107 558.967 183.5 555.897 181.64 555.292Z" fill="#E0E0E0"/>
<path d="M183.394 395.628H140.859C137.451 395.628 134.663 392.505 134.663 388.687V374.519C134.663 370.702 137.451 367.578 140.859 367.578H183.394C186.802 367.578 189.59 370.702 189.59 374.519V388.687C189.59 392.505 186.802 395.628 183.394 395.628Z" fill="#3D5EE1"/>
<path d="M140.468 395.625V398.064C140.468 400.074 142.421 401.719 144.807 401.719H179.446C181.832 401.719 183.785 400.075 183.785 398.064V395.625H140.468Z" fill="#3D5EE1"/>
<path opacity="0.3" d="M140.468 395.625V398.064C140.468 400.074 142.421 401.719 144.807 401.719H179.446C181.832 401.719 183.785 400.075 183.785 398.064V395.625H140.468Z" fill="white"/>
</svg>
