<svg width="94" height="80" viewBox="0 0 94 80" fill="none" xmlns="http://www.w3.org/2000/svg">
<path d="M0.499939 2.66667C0.499939 1.19391 1.54461 0 2.83327 0H91.4999C92.7884 0 93.8333 1.19391 93.8333 2.66667V5.86667H0.499939V2.66667Z" fill="white"/>
<mask id="mask0_3217_497898" style="mask-type:luminance" maskUnits="userSpaceOnUse" x="0" y="0" width="94" height="6">
<path d="M0.499939 2.66667C0.499939 1.19391 1.54461 0 2.83327 0H91.4999C92.7884 0 93.8333 1.19391 93.8333 2.66667V5.86667H0.499939V2.66667Z" fill="white"/>
</mask>
<g mask="url(#mask0_3217_497898)">
<path d="M0.266663 2.66661C0.266663 1.04657 1.41579 -0.266724 2.83333 -0.266724H91.5C92.9177 -0.266724 94.0666 1.04657 94.0666 2.66661H93.6C93.6 1.34113 92.6596 0.26661 91.5 0.26661H2.83333C1.67353 0.26661 0.733329 1.34113 0.733329 2.66661H0.266663ZM0.266663 5.86661V2.66661C0.266663 1.04657 1.41579 -0.266724 2.83333 -0.266724V0.26661C1.67353 0.26661 0.733329 1.34113 0.733329 2.66661V5.86661H0.266663ZM91.5 -0.266724C92.9177 -0.266724 94.0666 1.04657 94.0666 2.66661V5.86661H93.6V2.66661C93.6 1.34113 92.6596 0.26661 91.5 0.26661V-0.266724Z" fill="#E5E7EB"/>
</g>
<path d="M3.53331 3.7333C3.91991 3.7333 4.23331 3.37513 4.23331 2.9333C4.23331 2.49147 3.91991 2.1333 3.53331 2.1333C3.14671 2.1333 2.83331 2.49147 2.83331 2.9333C2.83331 3.37513 3.14671 3.7333 3.53331 3.7333Z" fill="#D00C0C"/>
<path d="M5.86656 3.7333C6.25316 3.7333 6.56657 3.37513 6.56657 2.9333C6.56657 2.49147 6.25316 2.1333 5.86656 2.1333C5.47996 2.1333 5.16656 2.49147 5.16656 2.9333C5.16656 3.37513 5.47996 3.7333 5.86656 3.7333Z" fill="#03C95A"/>
<path d="M8.19994 3.7333C8.58654 3.7333 8.89994 3.37513 8.89994 2.9333C8.89994 2.49147 8.58654 2.1333 8.19994 2.1333C7.81334 2.1333 7.49994 2.49147 7.49994 2.9333C7.49994 3.37513 7.81334 3.7333 8.19994 3.7333Z" fill="#FFC107"/>
<path d="M0.616638 6H93.7166V77.3333C93.7166 78.7323 92.724 79.8667 91.4999 79.8667H2.8333C1.60907 79.8667 0.616638 78.7323 0.616638 77.3333V6Z" fill="white"/>
<path d="M0.616638 6H93.7166V77.3333C93.7166 78.7323 92.724 79.8667 91.4999 79.8667H2.8333C1.60907 79.8667 0.616638 78.7323 0.616638 77.3333V6Z" stroke="#E5E7EB" stroke-width="0.5"/>
<path d="M93.5999 5.8667H0.733215V80H93.5999V5.8667Z" fill="#838A9B"/>
<path d="M17.7665 12.9333H5.16655C3.94232 12.9333 2.94989 14.0676 2.94989 15.4667V72C2.94989 73.3992 3.94232 74.5334 5.16655 74.5334H17.7665C18.9908 74.5334 19.9832 73.3992 19.9832 72V15.4667C19.9832 14.0676 18.9908 12.9333 17.7665 12.9333Z" fill="white"/>
<path d="M17.7665 12.9333H5.16655C3.94232 12.9333 2.94989 14.0676 2.94989 15.4667V72C2.94989 73.3992 3.94232 74.5334 5.16655 74.5334H17.7665C18.9908 74.5334 19.9832 73.3992 19.9832 72V15.4667C19.9832 14.0676 18.9908 12.9333 17.7665 12.9333Z" fill="#F4F6FA"/>
<path d="M11.2332 16.2667H6.09991C5.58443 16.2667 5.16656 16.7443 5.16656 17.3334C5.16656 17.9225 5.58443 18.4001 6.09991 18.4001H11.2332C11.7487 18.4001 12.1666 17.9225 12.1666 17.3334C12.1666 16.7443 11.7487 16.2667 11.2332 16.2667Z" fill="white"/>
<path d="M12.8666 24.8H5.86656C5.47996 24.8 5.16656 25.1582 5.16656 25.6C5.16656 26.0419 5.47996 26.4 5.86656 26.4H12.8666C13.2532 26.4 13.5666 26.0419 13.5666 25.6C13.5666 25.1582 13.2532 24.8 12.8666 24.8Z" fill="#E9EDF4"/>
<path d="M12.8666 27.4667H5.86656C5.47996 27.4667 5.16656 27.8248 5.16656 28.2667C5.16656 28.7085 5.47996 29.0667 5.86656 29.0667H12.8666C13.2532 29.0667 13.5666 28.7085 13.5666 28.2667C13.5666 27.8248 13.2532 27.4667 12.8666 27.4667Z" fill="#E9EDF4"/>
<path d="M8.66656 30.1333H5.86656C5.47996 30.1333 5.16656 30.4915 5.16656 30.9333C5.16656 31.3751 5.47996 31.7333 5.86656 31.7333H8.66656C9.05316 31.7333 9.36656 31.3751 9.36656 30.9333C9.36656 30.4915 9.05316 30.1333 8.66656 30.1333Z" fill="#E9EDF4"/>
<path d="M14.7332 32.8H5.86656C5.47996 32.8 5.16656 33.1582 5.16656 33.6C5.16656 34.0419 5.47996 34.4001 5.86656 34.4001H14.7332C15.1198 34.4001 15.4332 34.0419 15.4332 33.6C15.4332 33.1582 15.1198 32.8 14.7332 32.8Z" fill="#E9EDF4"/>
<path d="M10.5332 35.4667H5.86656C5.47996 35.4667 5.16656 35.8248 5.16656 36.2667C5.16656 36.7085 5.47996 37.0667 5.86656 37.0667H10.5332C10.9198 37.0667 11.2332 36.7085 11.2332 36.2667C11.2332 35.8248 10.9198 35.4667 10.5332 35.4667Z" fill="#E9EDF4"/>
<path d="M14.7332 38.1333H5.86656C5.47996 38.1333 5.16656 38.4915 5.16656 38.9333C5.16656 39.3751 5.47996 39.7333 5.86656 39.7333H14.7332C15.1198 39.7333 15.4332 39.3751 15.4332 38.9333C15.4332 38.4915 15.1198 38.1333 14.7332 38.1333Z" fill="#E9EDF4"/>
<path d="M9.59989 40.8H5.86656C5.47996 40.8 5.16656 41.1582 5.16656 41.6C5.16656 42.0419 5.47996 42.4 5.86656 42.4H9.59989C9.98651 42.4 10.2999 42.0419 10.2999 41.6C10.2999 41.1582 9.98651 40.8 9.59989 40.8Z" fill="#E9EDF4"/>
<path d="M17.0666 43.4667H5.86656C5.47996 43.4667 5.16656 43.8248 5.16656 44.2667C5.16656 44.7085 5.47996 45.0667 5.86656 45.0667H17.0666C17.4532 45.0667 17.7666 44.7085 17.7666 44.2667C17.7666 43.8248 17.4532 43.4667 17.0666 43.4667Z" fill="#E9EDF4"/>
<path d="M12.8666 46.1333H5.86656C5.47996 46.1333 5.16656 46.4915 5.16656 46.9333C5.16656 47.3751 5.47996 47.7333 5.86656 47.7333H12.8666C13.2532 47.7333 13.5666 47.3751 13.5666 46.9333C13.5666 46.4915 13.2532 46.1333 12.8666 46.1333Z" fill="#E9EDF4"/>
<path d="M17.0666 48.8H5.86656C5.47996 48.8 5.16656 49.1582 5.16656 49.6C5.16656 50.0419 5.47996 50.4 5.86656 50.4H17.0666C17.4532 50.4 17.7666 50.0419 17.7666 49.6C17.7666 49.1582 17.4532 48.8 17.0666 48.8Z" fill="#E9EDF4"/>
<path d="M5.16656 69.0133H17.7666" stroke="#E9EDF4" stroke-width="0.2"/>
<path d="M9.13322 72.2666C9.64869 72.2666 10.0665 71.7891 10.0665 71.2C10.0665 70.6109 9.64869 70.1333 9.13322 70.1333C8.61775 70.1333 8.19989 70.6109 8.19989 71.2C8.19989 71.7891 8.61775 72.2666 9.13322 72.2666Z" fill="#E9EDF4"/>
<path d="M11.4666 72.2666C11.9821 72.2666 12.3999 71.7891 12.3999 71.2C12.3999 70.6109 11.9821 70.1333 11.4666 70.1333C10.9511 70.1333 10.5333 70.6109 10.5333 71.2C10.5333 71.7891 10.9511 72.2666 11.4666 72.2666Z" fill="#E9EDF4"/>
<path d="M13.8 72.2666C14.3154 72.2666 14.7333 71.7891 14.7333 71.2C14.7333 70.6109 14.3154 70.1333 13.8 70.1333C13.2845 70.1333 12.8666 70.6109 12.8666 71.2C12.8666 71.7891 13.2845 72.2666 13.8 72.2666Z" fill="#E9EDF4"/>
<path d="M22.7499 13.8667C22.7499 13.3833 23.0862 13.05 23.4333 13.05H91.0999C91.4472 13.05 91.7833 13.3832 91.7833 13.8667V16C91.7833 16.4835 91.4472 16.8167 91.0999 16.8167H23.4333C23.0862 16.8167 22.7499 16.4835 22.7499 16V13.8667Z" fill="#F4F6FA"/>
<path d="M32.5333 14.1333H25.5333C25.1467 14.1333 24.8333 14.4915 24.8333 14.9333C24.8333 15.3751 25.1467 15.7333 25.5333 15.7333H32.5333C32.9199 15.7333 33.2333 15.3751 33.2333 14.9333C33.2333 14.4915 32.9199 14.1333 32.5333 14.1333Z" fill="#E9EDF4"/>
<path d="M41.8666 14.1333H34.8666C34.48 14.1333 34.1666 14.4915 34.1666 14.9333C34.1666 15.3751 34.48 15.7333 34.8666 15.7333H41.8666C42.2532 15.7333 42.5666 15.3751 42.5666 14.9333C42.5666 14.4915 42.2532 14.1333 41.8666 14.1333Z" fill="#E9EDF4"/>
<path d="M46.9999 14.1333H44.1999C43.8133 14.1333 43.4999 14.4915 43.4999 14.9333C43.4999 15.3751 43.8133 15.7333 44.1999 15.7333H46.9999C47.3865 15.7333 47.6999 15.3751 47.6999 14.9333C47.6999 14.4915 47.3865 14.1333 46.9999 14.1333Z" fill="#E9EDF4"/>
<path d="M58.1999 14.1333H49.3332C48.9466 14.1333 48.6332 14.4915 48.6332 14.9333C48.6332 15.3751 48.9466 15.7333 49.3332 15.7333H58.1999C58.5865 15.7333 58.8999 15.3751 58.8999 14.9333C58.8999 14.4915 58.5865 14.1333 58.1999 14.1333Z" fill="#E9EDF4"/>
<path d="M65.2 14.1333H60.5333C60.1467 14.1333 59.8333 14.4915 59.8333 14.9333C59.8333 15.3751 60.1467 15.7333 60.5333 15.7333H65.2C65.5866 15.7333 65.9 15.3751 65.9 14.9333C65.9 14.4915 65.5866 14.1333 65.2 14.1333Z" fill="#E9EDF4"/>
<path d="M77.5666 16C78.082 16 78.4999 15.5225 78.4999 14.9334C78.4999 14.3443 78.082 13.8667 77.5666 13.8667C77.0511 13.8667 76.6332 14.3443 76.6332 14.9334C76.6332 15.5225 77.0511 16 77.5666 16Z" fill="#E9EDF4"/>
<path d="M80.3666 16C80.8821 16 81.2999 15.5225 81.2999 14.9334C81.2999 14.3443 80.8821 13.8667 80.3666 13.8667C79.8511 13.8667 79.4333 14.3443 79.4333 14.9334C79.4333 15.5225 79.8511 16 80.3666 16Z" fill="#E9EDF4"/>
<path d="M83.1665 16C83.682 16 84.0999 15.5225 84.0999 14.9334C84.0999 14.3443 83.682 13.8667 83.1665 13.8667C82.6511 13.8667 82.2332 14.3443 82.2332 14.9334C82.2332 15.5225 82.6511 16 83.1665 16Z" fill="#E9EDF4"/>
<path d="M85.9666 16C86.4821 16 86.8999 15.5225 86.8999 14.9334C86.8999 14.3443 86.4821 13.8667 85.9666 13.8667C85.4511 13.8667 85.0333 14.3443 85.0333 14.9334C85.0333 15.5225 85.4511 16 85.9666 16Z" fill="#E9EDF4"/>
<path d="M88.7666 16C89.2821 16 89.7 15.5225 89.7 14.9334C89.7 14.3443 89.2821 13.8667 88.7666 13.8667C88.2512 13.8667 87.8333 14.3443 87.8333 14.9334C87.8333 15.5225 88.2512 16 88.7666 16Z" fill="#E9EDF4"/>
<path d="M22.7499 72C22.7499 71.5164 23.0861 71.1833 23.4333 71.1833H91.0999C91.4472 71.1833 91.7833 71.5164 91.7833 72V73.0667C91.7833 73.5503 91.4472 73.8833 91.0999 73.8833H23.4333C23.0861 73.8833 22.7499 73.5503 22.7499 73.0667V72Z" fill="#F4F6FA"/>
<path d="M65.1999 73.0667H46.9999C46.7422 73.0667 46.5333 72.8279 46.5333 72.5333C46.5333 72.2388 46.7422 72 46.9999 72H65.1999C65.4576 72 65.6666 72.2388 65.6666 72.5333C65.6666 72.8279 65.4576 73.0667 65.1999 73.0667Z" fill="#E9EDF4"/>
<path d="M90.8333 19H23.8333C23.281 19 22.8333 19.4477 22.8333 20V68C22.8333 68.5523 23.281 69 23.8333 69H90.8333C91.3856 69 91.8333 68.5523 91.8333 68V20C91.8333 19.4477 91.3856 19 90.8333 19Z" fill="#F4F6FA"/>
</svg>
