<svg width="94" height="80" viewBox="0 0 94 80" fill="none" xmlns="http://www.w3.org/2000/svg">
<path d="M0.166626 2.66667C0.166626 1.19391 1.2113 0 2.49996 0H91.1666C92.4551 0 93.4999 1.19391 93.4999 2.66667V5.86667H0.166626V2.66667Z" fill="white"/>
<mask id="mask0_3217_497719" style="mask-type:luminance" maskUnits="userSpaceOnUse" x="0" y="0" width="94" height="6">
<path d="M0.166626 2.66667C0.166626 1.19391 1.2113 0 2.49996 0H91.1666C92.4551 0 93.4999 1.19391 93.4999 2.66667V5.86667H0.166626V2.66667Z" fill="white"/>
</mask>
<g mask="url(#mask0_3217_497719)">
<path d="M-0.0666504 2.66661C-0.0666504 1.04657 1.08249 -0.266724 2.50002 -0.266724H91.1667C92.5844 -0.266724 93.7333 1.04657 93.7333 2.66661H93.2667C93.2667 1.34113 92.3263 0.26661 91.1667 0.26661H2.50002C1.34022 0.26661 0.400016 1.34113 0.400016 2.66661H-0.0666504ZM-0.0666504 5.86661V2.66661C-0.0666504 1.04657 1.08249 -0.266724 2.50002 -0.266724V0.26661C1.34022 0.26661 0.400016 1.34113 0.400016 2.66661V5.86661H-0.0666504ZM91.1667 -0.266724C92.5844 -0.266724 93.7333 1.04657 93.7333 2.66661V5.86661H93.2667V2.66661C93.2667 1.34113 92.3263 0.26661 91.1667 0.26661V-0.266724Z" fill="#E9EDF4"/>
</g>
<path d="M3.2 3.5333C3.5866 3.5333 3.9 3.2199 3.9 2.8333C3.9 2.4467 3.5866 2.1333 3.2 2.1333C2.8134 2.1333 2.5 2.4467 2.5 2.8333C2.5 3.2199 2.8134 3.5333 3.2 3.5333Z" fill="#E82646"/>
<path d="M5.53325 3.5333C5.91985 3.5333 6.23325 3.2199 6.23325 2.8333C6.23325 2.4467 5.91985 2.1333 5.53325 2.1333C5.14665 2.1333 4.83325 2.4467 4.83325 2.8333C4.83325 3.2199 5.14665 3.5333 5.53325 3.5333Z" fill="#1ABE17"/>
<path d="M7.86663 3.5333C8.25323 3.5333 8.56663 3.2199 8.56663 2.8333C8.56663 2.4467 8.25323 2.1333 7.86663 2.1333C7.48003 2.1333 7.16663 2.4467 7.16663 2.8333C7.16663 3.2199 7.48003 3.5333 7.86663 3.5333Z" fill="#EAB300"/>
<path d="M0.283325 6H93.3833V77.3333C93.3833 78.7323 92.3907 79.8667 91.1666 79.8667H2.5C1.27576 79.8667 0.283325 78.7323 0.283325 77.3333V6Z" fill="#838A9B"/>
<path d="M89 15C89 13.8954 88.1046 13 87 13H24C22.8954 13 22 13.8954 22 15V72C22 73.1046 22.8954 74 24 74H87C88.1046 74 89 73.1046 89 72V15Z" fill="#F4F6FA"/>
<path d="M0.283325 6H93.3833V77.3333C93.3833 78.7323 92.3907 79.8667 91.1666 79.8667H2.5C1.27576 79.8667 0.283325 78.7323 0.283325 77.3333V6Z" stroke="#E9EDF4" stroke-width="0.5"/>
<path d="M14.1666 10.2H3.43334C2.91787 10.2 2.5 10.6775 2.5 11.2666C2.5 11.8557 2.91787 12.3333 3.43334 12.3333H14.1666C14.6821 12.3333 15.1 11.8557 15.1 11.2666C15.1 10.6775 14.6821 10.2 14.1666 10.2Z" fill="white"/>
<path d="M10.2 19.7333H3.2C2.8134 19.7333 2.5 20.0914 2.5 20.5333C2.5 20.9751 2.8134 21.3333 3.2 21.3333H10.2C10.5866 21.3333 10.9 20.9751 10.9 20.5333C10.9 20.0914 10.5866 19.7333 10.2 19.7333Z" fill="#E9EDF4"/>
<path d="M10.2 22.4H3.2C2.8134 22.4 2.5 22.7582 2.5 23.2C2.5 23.6419 2.8134 24 3.2 24H10.2C10.5866 24 10.9 23.6419 10.9 23.2C10.9 22.7582 10.5866 22.4 10.2 22.4Z" fill="#E9EDF4"/>
<path d="M6 25.0667H3.2C2.8134 25.0667 2.5 25.4247 2.5 25.8666C2.5 26.3084 2.8134 26.6667 3.2 26.6667H6C6.3866 26.6667 6.7 26.3084 6.7 25.8666C6.7 25.4247 6.3866 25.0667 6 25.0667Z" fill="#E9EDF4"/>
<path d="M12.0666 27.7333H3.2C2.8134 27.7333 2.5 28.0914 2.5 28.5333C2.5 28.9751 2.8134 29.3333 3.2 29.3333H12.0666C12.4532 29.3333 12.7666 28.9751 12.7666 28.5333C12.7666 28.0914 12.4532 27.7333 12.0666 27.7333Z" fill="#E9EDF4"/>
<path d="M7.86667 30.4H3.2C2.8134 30.4 2.5 30.7582 2.5 31.2C2.5 31.6419 2.8134 32 3.2 32H7.86667C8.25327 32 8.56667 31.6419 8.56667 31.2C8.56667 30.7582 8.25327 30.4 7.86667 30.4Z" fill="#E9EDF4"/>
<path d="M12.0666 33.0667H3.2C2.8134 33.0667 2.5 33.4247 2.5 33.8666C2.5 34.3084 2.8134 34.6666 3.2 34.6666H12.0666C12.4532 34.6666 12.7666 34.3084 12.7666 33.8666C12.7666 33.4247 12.4532 33.0667 12.0666 33.0667Z" fill="#E9EDF4"/>
<path d="M6.93334 35.7333H3.2C2.8134 35.7333 2.5 36.0914 2.5 36.5333C2.5 36.9751 2.8134 37.3333 3.2 37.3333H6.93334C7.31994 37.3333 7.63334 36.9751 7.63334 36.5333C7.63334 36.0914 7.31994 35.7333 6.93334 35.7333Z" fill="#E9EDF4"/>
<path d="M14.4 38.4H3.2C2.8134 38.4 2.5 38.7582 2.5 39.2C2.5 39.6419 2.8134 40 3.2 40H14.4C14.7866 40 15.1 39.6419 15.1 39.2C15.1 38.7582 14.7866 38.4 14.4 38.4Z" fill="#E9EDF4"/>
<path d="M10.2 41.0667H3.2C2.8134 41.0667 2.5 41.4248 2.5 41.8667C2.5 42.3085 2.8134 42.6667 3.2 42.6667H10.2C10.5866 42.6667 10.9 42.3085 10.9 41.8667C10.9 41.4248 10.5866 41.0667 10.2 41.0667Z" fill="#E9EDF4"/>
<path d="M14.4 43.7334H3.2C2.8134 43.7334 2.5 44.0916 2.5 44.5334C2.5 44.9752 2.8134 45.3334 3.2 45.3334H14.4C14.7866 45.3334 15.1 44.9752 15.1 44.5334C15.1 44.0916 14.7866 43.7334 14.4 43.7334Z" fill="#E9EDF4"/>
<path d="M2.5 74.08H15.1" stroke="#E9EDF4" stroke-width="0.2"/>
<path d="M6.46666 77.3333C6.98213 77.3333 7.39999 76.8558 7.39999 76.2667C7.39999 75.6776 6.98213 75.2 6.46666 75.2C5.9512 75.2 5.53333 75.6776 5.53333 76.2667C5.53333 76.8558 5.9512 77.3333 6.46666 77.3333Z" fill="#E9EDF4"/>
<path d="M8.79991 77.3333C9.31543 77.3333 9.73323 76.8558 9.73323 76.2667C9.73323 75.6776 9.31543 75.2 8.79991 75.2C8.28445 75.2 7.86658 75.6776 7.86658 76.2667C7.86658 76.8558 8.28445 77.3333 8.79991 77.3333Z" fill="#E9EDF4"/>
<path d="M11.1334 77.3333C11.6488 77.3333 12.0667 76.8558 12.0667 76.2667C12.0667 75.6776 11.6488 75.2 11.1334 75.2C10.6179 75.2 10.2 75.6776 10.2 76.2667C10.2 76.8558 10.6179 77.3333 11.1334 77.3333Z" fill="#E9EDF4"/>
<mask id="mask1_3217_497719" style="mask-type:luminance" maskUnits="userSpaceOnUse" x="17" y="5" width="77" height="6">
<path d="M17.4333 5.8667H93.5V10.1334H17.4333V5.8667Z" fill="white"/>
</mask>
<g mask="url(#mask1_3217_497719)">
<path d="M17.4333 6.13331H93.5V5.59998H17.4333V6.13331Z" fill="#E9EDF4"/>
</g>
<path d="M37.9666 6.93335H20.6999C20.1844 6.93335 19.7666 7.41091 19.7666 8.00002C19.7666 8.58912 20.1844 9.0667 20.6999 9.0667H37.9666C38.482 9.0667 38.8999 8.58912 38.8999 8.00002C38.8999 7.41091 38.482 6.93335 37.9666 6.93335Z" fill="#E9EDF4"/>
<path d="M81.6333 8.80335C82.1487 8.80335 82.5667 8.38472 82.5667 7.86835C82.5667 7.35196 82.1487 6.93335 81.6333 6.93335C81.1178 6.93335 80.7 7.35196 80.7 7.86835C80.7 8.38472 81.1178 8.80335 81.6333 8.80335Z" fill="#E9EDF4"/>
<path d="M84.4333 8.80335C84.9488 8.80335 85.3666 8.38472 85.3666 7.86835C85.3666 7.35196 84.9488 6.93335 84.4333 6.93335C83.9178 6.93335 83.5 7.35196 83.5 7.86835C83.5 8.38472 83.9178 8.80335 84.4333 8.80335Z" fill="#E9EDF4"/>
<path d="M87.2332 8.80335C87.7487 8.80335 88.1666 8.38472 88.1666 7.86835C88.1666 7.35196 87.7487 6.93335 87.2332 6.93335C86.7178 6.93335 86.2999 7.35196 86.2999 7.86835C86.2999 8.38472 86.7178 8.80335 87.2332 8.80335Z" fill="#E9EDF4"/>
<path d="M63.3999 78.5H45.1999C44.9422 78.5 44.7333 78.2612 44.7333 77.9667C44.7333 77.6721 44.9422 77.4333 45.1999 77.4333H63.3999C63.6576 77.4333 63.8666 77.6721 63.8666 77.9667C63.8666 78.2612 63.6576 78.5 63.3999 78.5Z" fill="#E9EDF4"/>
</svg>
