<svg width="94" height="80" viewBox="0 0 94 80" fill="none" xmlns="http://www.w3.org/2000/svg">
<path d="M0.450073 2.66667C0.450073 1.19391 1.49474 0 2.78341 0H91.2167C92.5052 0 93.5501 1.19391 93.5501 2.66667V5.86667H0.450073V2.66667Z" fill="white"/>
<mask id="mask0_3217_497805" style="mask-type:luminance" maskUnits="userSpaceOnUse" x="0" y="0" width="94" height="6">
<path d="M0.450073 2.66667C0.450073 1.19391 1.49474 0 2.78341 0H91.2167C92.5052 0 93.5501 1.19391 93.5501 2.66667V5.86667H0.450073V2.66667Z" fill="white"/>
</mask>
<g mask="url(#mask0_3217_497805)">
<path d="M0.216797 2.66661C0.216797 1.04657 1.36593 -0.266724 2.78346 -0.266724H91.2168C92.6345 -0.266724 93.7834 1.04657 93.7834 2.66661H93.3168C93.3168 1.34113 92.3764 0.26661 91.2168 0.26661H2.78346C1.62367 0.26661 0.683457 1.34113 0.683457 2.66661H0.216797ZM0.216797 5.86661V2.66661C0.216797 1.04657 1.36593 -0.266724 2.78346 -0.266724V0.26661C1.62367 0.26661 0.683457 1.34113 0.683457 2.66661V5.86661H0.216797ZM91.2168 -0.266724C92.6345 -0.266724 93.7834 1.04657 93.7834 2.66661V5.86661H93.3168V2.66661C93.3168 1.34113 92.3764 0.26661 91.2168 0.26661V-0.266724Z" fill="#E9EDF4"/>
</g>
<path d="M3.48333 3.5333C3.86992 3.5333 4.18333 3.2199 4.18333 2.8333C4.18333 2.4467 3.86992 2.1333 3.48333 2.1333C3.09673 2.1333 2.78333 2.4467 2.78333 2.8333C2.78333 3.2199 3.09673 3.5333 3.48333 3.5333Z" fill="#E82646"/>
<path d="M5.8167 3.5333C6.2033 3.5333 6.5167 3.2199 6.5167 2.8333C6.5167 2.4467 6.2033 2.1333 5.8167 2.1333C5.4301 2.1333 5.1167 2.4467 5.1167 2.8333C5.1167 3.2199 5.4301 3.5333 5.8167 3.5333Z" fill="#1ABE17"/>
<path d="M8.15007 3.5333C8.53667 3.5333 8.85007 3.2199 8.85007 2.8333C8.85007 2.4467 8.53667 2.1333 8.15007 2.1333C7.76347 2.1333 7.45007 2.4467 7.45007 2.8333C7.45007 3.2199 7.76347 3.5333 8.15007 3.5333Z" fill="#EAB300"/>
<path d="M0.56665 6H93.4333V77.3333C93.4333 78.7323 92.4407 79.8667 91.2167 79.8667H2.78332C1.55909 79.8667 0.56665 78.7323 0.56665 77.3333V6Z" fill="#838A9B"/>
<path d="M0.56665 6H93.4333V77.3333C93.4333 78.7323 92.4407 79.8667 91.2167 79.8667H2.78332C1.55909 79.8667 0.56665 78.7323 0.56665 77.3333V6Z" stroke="#E9EDF4" stroke-width="0.5"/>
<path d="M3.71676 6.93335H2.78343C2.26797 6.93335 1.8501 7.41091 1.8501 8.00002C1.8501 8.58912 2.26797 9.0667 2.78343 9.0667H3.71676C4.23223 9.0667 4.6501 8.58912 4.6501 8.00002C4.6501 7.41091 4.23223 6.93335 3.71676 6.93335Z" fill="#838A9B"/>
<path d="M3.71666 12.2666C3.71666 11.9721 3.50772 11.7333 3.24999 11.7333C2.99226 11.7333 2.78333 11.9721 2.78333 12.2666V13.8666C2.78333 14.1612 2.99226 14.3999 3.24999 14.3999C3.50772 14.3999 3.71666 14.1612 3.71666 13.8666V12.2666Z" fill="#E9EDF4"/>
<path d="M3.71666 16C3.71666 15.7055 3.50772 15.4667 3.24999 15.4667C2.99226 15.4667 2.78333 15.7055 2.78333 16V17.0667C2.78333 17.3612 2.99226 17.6 3.24999 17.6C3.50772 17.6 3.71666 17.3612 3.71666 17.0667V16Z" fill="#E9EDF4"/>
<path d="M3.71666 19.2C3.71666 18.9054 3.50772 18.6666 3.24999 18.6666C2.99226 18.6666 2.78333 18.9054 2.78333 19.2V20.8C2.78333 21.0945 2.99226 21.3333 3.24999 21.3333C3.50772 21.3333 3.71666 21.0945 3.71666 20.8V19.2Z" fill="#E9EDF4"/>
<path d="M3.71666 22.9334C3.71666 22.6388 3.50772 22.4 3.24999 22.4C2.99226 22.4 2.78333 22.6388 2.78333 22.9334V24C2.78333 24.2946 2.99226 24.5334 3.24999 24.5334C3.50772 24.5334 3.71666 24.2946 3.71666 24V22.9334Z" fill="#E9EDF4"/>
<path d="M3.71666 26.1333C3.71666 25.8388 3.50772 25.6 3.24999 25.6C2.99226 25.6 2.78333 25.8388 2.78333 26.1333V27.7333C2.78333 28.0279 2.99226 28.2666 3.24999 28.2666C3.50772 28.2666 3.71666 28.0279 3.71666 27.7333V26.1333Z" fill="#E9EDF4"/>
<path d="M3.71666 29.8667C3.71666 29.5722 3.50772 29.3334 3.24999 29.3334C2.99226 29.3334 2.78333 29.5722 2.78333 29.8667V31.4667C2.78333 31.7613 2.99226 32 3.24999 32C3.50772 32 3.71666 31.7613 3.71666 31.4667V29.8667Z" fill="#E9EDF4"/>
<path d="M3.71666 33.5999C3.71666 33.3053 3.50772 33.0667 3.24999 33.0667C2.99226 33.0667 2.78333 33.3053 2.78333 33.5999V34.6666C2.78333 34.9611 2.99226 35.2 3.24999 35.2C3.50772 35.2 3.71666 34.9611 3.71666 34.6666V33.5999Z" fill="#E9EDF4"/>
<path d="M3.71666 36.8001C3.71666 36.5055 3.50772 36.2667 3.24999 36.2667C2.99226 36.2667 2.78333 36.5055 2.78333 36.8001V37.8667C2.78333 38.1613 2.99226 38.4001 3.24999 38.4001C3.50772 38.4001 3.71666 38.1613 3.71666 37.8667V36.8001Z" fill="#E9EDF4"/>
<path d="M3.71666 40C3.71666 39.7055 3.50772 39.4667 3.24999 39.4667C2.99226 39.4667 2.78333 39.7055 2.78333 40V41.6C2.78333 41.8946 2.99226 42.1333 3.24999 42.1333C3.50772 42.1333 3.71666 41.8946 3.71666 41.6V40Z" fill="#E9EDF4"/>
<path d="M1.8501 67.7467H4.6501" stroke="#E9EDF4" stroke-width="0.2"/>
<path d="M3.24998 72C3.76545 72 4.18332 71.5225 4.18332 70.9334C4.18332 70.3443 3.76545 69.8667 3.24998 69.8667C2.73452 69.8667 2.31665 70.3443 2.31665 70.9334C2.31665 71.5225 2.73452 72 3.24998 72Z" fill="#E9EDF4"/>
<path d="M3.24998 74.6667C3.76545 74.6667 4.18332 74.1891 4.18332 73.6C4.18332 73.0109 3.76545 72.5333 3.24998 72.5333C2.73452 72.5333 2.31665 73.0109 2.31665 73.6C2.31665 74.1891 2.73452 74.6667 3.24998 74.6667Z" fill="#E9EDF4"/>
<path d="M3.24998 77.3333C3.76545 77.3333 4.18332 76.8558 4.18332 76.2667C4.18332 75.6776 3.76545 75.2 3.24998 75.2C2.73452 75.2 2.31665 75.6776 2.31665 76.2667C2.31665 76.8558 2.73452 77.3333 3.24998 77.3333Z" fill="#E9EDF4"/>
<mask id="mask1_3217_497805" style="mask-type:luminance" maskUnits="userSpaceOnUse" x="6" y="5" width="88" height="6">
<path d="M6.05005 5.8667H93.55V10.1334H6.05005V5.8667Z" fill="white"/>
</mask>
<g mask="url(#mask1_3217_497805)">
<path d="M6.05005 6.13331H93.55V5.59998H6.05005V6.13331Z" fill="#E9EDF4"/>
</g>
<path d="M24.5834 6.93335H7.3168C6.80129 6.93335 6.38342 7.41091 6.38342 8.00002C6.38342 8.58912 6.80129 9.0667 7.3168 9.0667H24.5834C25.0989 9.0667 25.5168 8.58912 25.5168 8.00002C25.5168 7.41091 25.0989 6.93335 24.5834 6.93335Z" fill="#E9EDF4"/>
<path d="M85.6833 8.80335C86.1988 8.80335 86.6167 8.38474 86.6167 7.86835C86.6167 7.35196 86.1988 6.93335 85.6833 6.93335C85.1679 6.93335 84.75 7.35196 84.75 7.86835C84.75 8.38474 85.1679 8.80335 85.6833 8.80335Z" fill="#E9EDF4"/>
<path d="M88.4834 8.80335C88.9988 8.80335 89.4167 8.38474 89.4167 7.86835C89.4167 7.35196 88.9988 6.93335 88.4834 6.93335C87.9679 6.93335 87.55 7.35196 87.55 7.86835C87.55 8.38474 87.9679 8.80335 88.4834 8.80335Z" fill="#E9EDF4"/>
<path d="M91.2834 8.80335C91.7989 8.80335 92.2168 8.38474 92.2168 7.86835C92.2168 7.35196 91.7989 6.93335 91.2834 6.93335C90.768 6.93335 90.3501 7.35196 90.3501 7.86835C90.3501 8.38474 90.768 8.80335 91.2834 8.80335Z" fill="#E9EDF4"/>
<path d="M91 13C91 11.8954 90.1046 11 89 11H9C7.89543 11 7 11.8954 7 13V74C7 75.1046 7.89543 76 9 76H89C90.1046 76 91 75.1046 91 74V13Z" fill="#F4F6FA"/>
<path d="M57.7334 78.5H39.5334C39.2757 78.5 39.0668 78.2612 39.0668 77.9667C39.0668 77.6721 39.2757 77.4333 39.5334 77.4333H57.7334C57.9912 77.4333 58.2001 77.6721 58.2001 77.9667C58.2001 78.2612 57.9912 78.5 57.7334 78.5Z" fill="#E9EDF4"/>
</svg>
