<svg width="94" height="80" viewBox="0 0 94 80" fill="none" xmlns="http://www.w3.org/2000/svg">
<path d="M90.4999 0H3.16663C1.50977 0 0.166626 1.34315 0.166626 3V77C0.166626 78.6569 1.50977 80 3.16663 80H90.4999C92.1568 80 93.4999 78.6569 93.4999 77V3C93.4999 1.34315 92.1568 0 90.4999 0Z" fill="#838A9B"/>
<path d="M0.166626 2.66667C0.166626 1.19391 1.2113 0 2.49996 0H91.1666C92.4551 0 93.4999 1.19391 93.4999 2.66667V5.86667H0.166626V2.66667Z" fill="white"/>
<mask id="mask0_3217_497991" style="mask-type:luminance" maskUnits="userSpaceOnUse" x="0" y="0" width="94" height="6">
<path d="M0.166626 2.66667C0.166626 1.19391 1.2113 0 2.49996 0H91.1666C92.4551 0 93.4999 1.19391 93.4999 2.66667V5.86667H0.166626V2.66667Z" fill="white"/>
</mask>
<g mask="url(#mask0_3217_497991)">
<path d="M-0.0666504 2.66667C-0.0666504 1.04663 1.08249 -0.266663 2.50002 -0.266663H91.1667C92.5844 -0.266663 93.7333 1.04663 93.7333 2.66667H93.2667C93.2667 1.34119 92.3263 0.26667 91.1667 0.26667H2.50002C1.34022 0.26667 0.400016 1.34119 0.400016 2.66667H-0.0666504ZM-0.0666504 5.86667V2.66667C-0.0666504 1.04663 1.08249 -0.266663 2.50002 -0.266663V0.26667C1.34022 0.26667 0.400016 1.34119 0.400016 2.66667V5.86667H-0.0666504ZM91.1667 -0.266663C92.5844 -0.266663 93.7333 1.04663 93.7333 2.66667V5.86667H93.2667V2.66667C93.2667 1.34119 92.3263 0.26667 91.1667 0.26667V-0.266663Z" fill="#E9EDF4"/>
</g>
<path d="M3.2 3.53336C3.5866 3.53336 3.9 3.21996 3.9 2.83336C3.9 2.44676 3.5866 2.13336 3.2 2.13336C2.8134 2.13336 2.5 2.44676 2.5 2.83336C2.5 3.21996 2.8134 3.53336 3.2 3.53336Z" fill="#E82646"/>
<path d="M5.53325 3.53336C5.91985 3.53336 6.23325 3.21996 6.23325 2.83336C6.23325 2.44676 5.91985 2.13336 5.53325 2.13336C5.14665 2.13336 4.83325 2.44676 4.83325 2.83336C4.83325 3.21996 5.14665 3.53336 5.53325 3.53336Z" fill="#1ABE17"/>
<path d="M7.86663 3.53336C8.25323 3.53336 8.56663 3.21996 8.56663 2.83336C8.56663 2.44676 8.25323 2.13336 7.86663 2.13336C7.48003 2.13336 7.16663 2.44676 7.16663 2.83336C7.16663 3.21996 7.48003 3.53336 7.86663 3.53336Z" fill="#EAB300"/>
<path d="M0.283326 5.75H0.0333252V6V77.3333C0.0333252 78.8379 1.10737 80.1167 2.5 80.1167H91.1666C92.5591 80.1167 93.6333 78.8379 93.6333 77.3333V6V5.75H93.3833H0.283326Z" stroke="#E9EDF4" stroke-width="0.5"/>
<mask id="mask1_3217_497991" style="mask-type:luminance" maskUnits="userSpaceOnUse" x="0" y="5" width="77" height="6">
<path d="M0.166626 5.86664H76.2333V10.1333H0.166626V5.86664Z" fill="white"/>
</mask>
<g mask="url(#mask1_3217_497991)">
<path d="M0.166626 6.13331H76.2333V5.59998H0.166626V6.13331Z" fill="#E9EDF4"/>
</g>
<path d="M3.43334 8.80335C3.9488 8.80335 4.36667 8.38474 4.36667 7.86835C4.36667 7.35196 3.9488 6.93335 3.43334 6.93335C2.91787 6.93335 2.5 7.35196 2.5 7.86835C2.5 8.38474 2.91787 8.80335 3.43334 8.80335Z" fill="#E9EDF4"/>
<path d="M6.23326 8.80335C6.74873 8.80335 7.1666 8.38474 7.1666 7.86835C7.1666 7.35196 6.74873 6.93335 6.23326 6.93335C5.7178 6.93335 5.29993 7.35196 5.29993 7.86835C5.29993 8.38474 5.7178 8.80335 6.23326 8.80335Z" fill="#E9EDF4"/>
<path d="M9.03331 8.80335C9.54873 8.80335 9.96663 8.38474 9.96663 7.86835C9.96663 7.35196 9.54873 6.93335 9.03331 6.93335C8.51785 6.93335 8.09998 7.35196 8.09998 7.86835C8.09998 8.38474 8.51785 8.80335 9.03331 8.80335Z" fill="#E9EDF4"/>
<path d="M72.9666 6.93335H55.6999C55.1844 6.93335 54.7666 7.41091 54.7666 8.00002C54.7666 8.58912 55.1844 9.0667 55.6999 9.0667H72.9666C73.482 9.0667 73.8999 8.58912 73.8999 8.00002C73.8999 7.41091 73.482 6.93335 72.9666 6.93335Z" fill="#E9EDF4"/>
<path d="M73.0541 11H4.94595C3.87123 11 3 11.8687 3 12.9403V74.0597C3 75.1313 3.87123 76 4.94595 76H73.0541C74.1288 76 75 75.1313 75 74.0597V12.9403C75 11.8687 74.1288 11 73.0541 11Z" fill="#F4F6FA"/>
<path d="M46.1334 78.9333H27.9334C27.6757 78.9333 27.4667 78.6946 27.4667 78.4C27.4667 78.1055 27.6757 77.8667 27.9334 77.8667H46.1334C46.3911 77.8667 46.6001 78.1055 46.6001 78.4C46.6001 78.6946 46.3911 78.9333 46.1334 78.9333Z" fill="#E9EDF4"/>
<path d="M90.2334 11.2H79.5C78.9845 11.2 78.5667 11.6776 78.5667 12.2667C78.5667 12.8558 78.9845 13.3333 79.5 13.3333H90.2334C90.7489 13.3333 91.1666 12.8558 91.1666 12.2667C91.1666 11.6776 90.7489 11.2 90.2334 11.2Z" fill="white"/>
<path d="M86.2666 19.7333H79.2666C78.88 19.7333 78.5667 20.0915 78.5667 20.5333C78.5667 20.9752 78.88 21.3333 79.2666 21.3333H86.2666C86.6532 21.3333 86.9667 20.9752 86.9667 20.5333C86.9667 20.0915 86.6532 19.7333 86.2666 19.7333Z" fill="#E9EDF4"/>
<path d="M86.2666 22.4H79.2666C78.88 22.4 78.5667 22.7582 78.5667 23.2C78.5667 23.6419 78.88 24 79.2666 24H86.2666C86.6532 24 86.9667 23.6419 86.9667 23.2C86.9667 22.7582 86.6532 22.4 86.2666 22.4Z" fill="#E9EDF4"/>
<path d="M82.0667 25.0667H79.2666C78.88 25.0667 78.5667 25.4248 78.5667 25.8667C78.5667 26.3085 78.88 26.6667 79.2666 26.6667H82.0667C82.4533 26.6667 82.7666 26.3085 82.7666 25.8667C82.7666 25.4248 82.4533 25.0667 82.0667 25.0667Z" fill="#E9EDF4"/>
<path d="M88.1333 27.7333H79.2666C78.88 27.7333 78.5667 28.0915 78.5667 28.5333C78.5667 28.9752 78.88 29.3333 79.2666 29.3333H88.1333C88.5199 29.3333 88.8334 28.9752 88.8334 28.5333C88.8334 28.0915 88.5199 27.7333 88.1333 27.7333Z" fill="#E9EDF4"/>
<path d="M83.9333 30.4H79.2666C78.88 30.4 78.5667 30.7582 78.5667 31.2C78.5667 31.6419 78.88 32 79.2666 32H83.9333C84.3199 32 84.6333 31.6419 84.6333 31.2C84.6333 30.7582 84.3199 30.4 83.9333 30.4Z" fill="#E9EDF4"/>
<path d="M88.1333 33.0667H79.2666C78.88 33.0667 78.5667 33.4248 78.5667 33.8667C78.5667 34.3085 78.88 34.6667 79.2666 34.6667H88.1333C88.5199 34.6667 88.8334 34.3085 88.8334 33.8667C88.8334 33.4248 88.5199 33.0667 88.1333 33.0667Z" fill="#E9EDF4"/>
<path d="M83 35.7333H79.2666C78.88 35.7333 78.5667 36.0915 78.5667 36.5333C78.5667 36.9752 78.88 37.3333 79.2666 37.3333H83C83.3866 37.3333 83.7001 36.9752 83.7001 36.5333C83.7001 36.0915 83.3866 35.7333 83 35.7333Z" fill="#E9EDF4"/>
<path d="M90.4667 38.4H79.2666C78.88 38.4 78.5667 38.7582 78.5667 39.2C78.5667 39.6419 78.88 40 79.2666 40H90.4667C90.8533 40 91.1666 39.6419 91.1666 39.2C91.1666 38.7582 90.8533 38.4 90.4667 38.4Z" fill="#E9EDF4"/>
<path d="M86.2666 41.0667H79.2666C78.88 41.0667 78.5667 41.4248 78.5667 41.8667C78.5667 42.3085 78.88 42.6667 79.2666 42.6667H86.2666C86.6532 42.6667 86.9667 42.3085 86.9667 41.8667C86.9667 41.4248 86.6532 41.0667 86.2666 41.0667Z" fill="#E9EDF4"/>
<path d="M90.4667 43.7333H79.2666C78.88 43.7333 78.5667 44.0915 78.5667 44.5333C78.5667 44.9752 78.88 45.3333 79.2666 45.3333H90.4667C90.8533 45.3333 91.1666 44.9752 91.1666 44.5333C91.1666 44.0915 90.8533 43.7333 90.4667 43.7333Z" fill="#E9EDF4"/>
<path d="M78.5667 74.08H91.1666" stroke="#E9EDF4" stroke-width="0.2"/>
<path d="M82.5334 77.07C83.0488 77.07 83.4667 76.6514 83.4667 76.135C83.4667 75.6186 83.0488 75.2 82.5334 75.2C82.0179 75.2 81.6 75.6186 81.6 76.135C81.6 76.6514 82.0179 77.07 82.5334 77.07Z" fill="#E9EDF4"/>
<path d="M84.8665 77.07C85.382 77.07 85.7999 76.6514 85.7999 76.135C85.7999 75.6186 85.382 75.2 84.8665 75.2C84.3511 75.2 83.9332 75.6186 83.9332 76.135C83.9332 76.6514 84.3511 77.07 84.8665 77.07Z" fill="#E9EDF4"/>
<path d="M87.1999 77.07C87.7154 77.07 88.1332 76.6514 88.1332 76.135C88.1332 75.6186 87.7154 75.2 87.1999 75.2C86.6844 75.2 86.2666 75.6186 86.2666 76.135C86.2666 76.6514 86.6844 77.07 87.1999 77.07Z" fill="#E9EDF4"/>
</svg>
